<?xml version="1.0" encoding="UTF-8" standalone="no"?>
<!-- Generator: Adobe Illustrator 19.0.0, SVG Export Plug-In . SVG Version: 6.00 Build 0)  -->

<svg
   xmlns:dc="http://purl.org/dc/elements/1.1/"
   xmlns:cc="http://creativecommons.org/ns#"
   xmlns:rdf="http://www.w3.org/1999/02/22-rdf-syntax-ns#"
   xmlns:svg="http://www.w3.org/2000/svg"
   xmlns="http://www.w3.org/2000/svg"
   xmlns:sodipodi="http://sodipodi.sourceforge.net/DTD/sodipodi-0.dtd"
   xmlns:inkscape="http://www.inkscape.org/namespaces/inkscape"
   version="1.1"
   id="Abat-jour"
   x="0px"
   y="0px"
   viewBox="0 0 595.3 841.9"
   style="enable-background:new 0 0 595.3 841.9;"
   xml:space="preserve"
   inkscape:version="0.48.4 r9939"
   width="100%"
   height="100%"
   sodipodi:docname="abat.svg"><metadata
   id="metadata4656"><rdf:RDF><cc:Work
       rdf:about=""><dc:format>image/svg+xml</dc:format><dc:type
         rdf:resource="http://purl.org/dc/dcmitype/StillImage" /><dc:title></dc:title></cc:Work></rdf:RDF></metadata><defs
   id="defs4654" /><sodipodi:namedview
   pagecolor="#ffffff"
   bordercolor="#666666"
   borderopacity="1"
   objecttolerance="10"
   gridtolerance="10"
   guidetolerance="10"
   inkscape:pageopacity="0"
   inkscape:pageshadow="2"
   inkscape:window-width="1680"
   inkscape:window-height="987"
   id="namedview4652"
   showgrid="false"
   inkscape:zoom="1.1212733"
   inkscape:cx="179.01543"
   inkscape:cy="535.71156"
   inkscape:window-x="-8"
   inkscape:window-y="-8"
   inkscape:window-maximized="1"
   inkscape:current-layer="Abat-jour" />
<style
   type="text/css"
   id="style4543">
	.st0{fill:none;stroke:#FF0000;stroke-width:0.1;stroke-miterlimit:10;}
</style>

<g
   id="Basique"
   style="stroke:#ff0000;stroke-opacity:1;stroke-width:0.03543307;stroke-miterlimit:4;stroke-dasharray:none;fill:none">
	<path
   id="XMLID_197_"
   class="st0"
   d="M84.6,39.1c-1.3,3.8,0.7,8,4.6,9.3L57,37.4c-67.9,198.7-63.2,404.7-0.1,589.2l31.7-10.8   c2.5-1.3,3.7-4.3,2.8-7.1c-1.1-3.1-4.4-4.7-7.5-3.7l33.4-11.4c-3.1,1.1-4.7,4.4-3.7,7.5c1,2.8,3.8,4.4,6.6,3.9l52.9-18.1   c2.6-1.3,3.9-4.3,3-7.2c-1.1-3.1-4.4-4.7-7.5-3.7l33.4-11.4c-3.1,1.1-4.7,4.4-3.7,7.5c1,2.9,3.9,4.5,6.8,3.8l52.5-17.9   c2.8-1.2,4.2-4.4,3.2-7.3c-1.1-3.1-4.4-4.7-7.5-3.7l33.4-11.4c-3.1,1.1-4.7,4.4-3.7,7.5c1,3,4.2,4.6,7.3,3.7l23.2-7.9   c-44.3-129.6-47.9-274.6-0.8-414.3l-23.4-8c3.8,1.3,8-0.7,9.3-4.6c1.3-3.8-0.7-8-4.6-9.3l-30.6-10.5c-3.8-1.3-8,0.7-9.3,4.6   c-1.3,3.8,0.7,8,4.6,9.3l-54.1-18.5c3.8,1.3,8-0.7,9.3-4.6c1.3-3.8-0.7-8-4.6-9.3l-30.6-10.5c-3.8-1.3-8,0.7-9.3,4.6   c-1.3,3.8,0.7,8,4.6,9.3l-54.1-18.5c3.8,1.3,8-0.7,9.3-4.6c1.3-3.8-0.7-8-4.6-9.3L93.9,34.5C90.1,33.2,85.9,35.2,84.6,39.1z"
   style="stroke:#ff0000;stroke-opacity:1;stroke-width:0.03543307;stroke-miterlimit:4;stroke-dasharray:none;fill:none" />
	<line
   id="XMLID_196_"
   class="st0"
   x1="83.9"
   y1="605"
   x2="76.9"
   y2="607.4"
   style="stroke:#ff0000;stroke-opacity:1;stroke-width:0.03543307;stroke-miterlimit:4;stroke-dasharray:none;fill:none" />
	<line
   id="XMLID_195_"
   class="st0"
   x1="117.3"
   y1="593.6"
   x2="124.3"
   y2="591.2"
   style="stroke:#ff0000;stroke-opacity:1;stroke-width:0.03543307;stroke-miterlimit:4;stroke-dasharray:none;fill:none" />
	<line
   id="XMLID_194_"
   class="st0"
   x1="168.7"
   y1="576.1"
   x2="161.7"
   y2="578.5"
   style="stroke:#ff0000;stroke-opacity:1;stroke-width:0.03543307;stroke-miterlimit:4;stroke-dasharray:none;fill:none" />
	<line
   id="XMLID_193_"
   class="st0"
   x1="202.1"
   y1="564.7"
   x2="209.1"
   y2="562.3"
   style="stroke:#ff0000;stroke-opacity:1;stroke-width:0.03543307;stroke-miterlimit:4;stroke-dasharray:none;fill:none" />
	<line
   id="XMLID_192_"
   class="st0"
   x1="253.5"
   y1="547.1"
   x2="246.5"
   y2="549.5"
   style="stroke:#ff0000;stroke-opacity:1;stroke-width:0.03543307;stroke-miterlimit:4;stroke-dasharray:none;fill:none" />
	<line
   id="XMLID_191_"
   class="st0"
   x1="286.9"
   y1="535.7"
   x2="293.8"
   y2="533.3"
   style="stroke:#ff0000;stroke-opacity:1;stroke-width:0.03543307;stroke-miterlimit:4;stroke-dasharray:none;fill:none" />
</g>
<path
   style="fill:none;stroke:#ff0000;stroke-width:0.03543307;stroke-opacity:1;stroke-miterlimit:4;stroke-dasharray:none"
   d="m 204.10986,327.25485 -19.71767,-0.0573 c -0.90185,-6.42983 -2.39044,-12.64244 -4.39638,-18.57047 l 17.1004,-10.98193 -13.25841,-25.85651 -17.13014,10.99843 c -3.61139,-4.98621 -7.66085,-9.5595 -12.09897,-13.62533 l 9.91807,-19.09374 -23.03865,-14.96964 -9.90319,19.07724 c -5.29086,-2.27683 -10.8277,-3.9734 -16.5733,-5.01574 l 0.0513,-22.0631 -26.651523,-0.0774 -0.0513,22.0631 c -5.74654,1.0091 -11.29828,2.67466 -16.59635,4.91934 l -9.81449,-19.13455 -23.10784,14.83552 9.82926,19.16776 -0.11072,47.69814 c 29.50354,13.33236 29.55827,14.34063 29.55827,14.34063 l 24.020153,1.51524 0.63305,8.72411 12.99168,0.0378 9.06486,9.46309 -7.1552,5.79406 -13.63355,1.4224 -0.064,27.6121 -25.331763,0.64075 -9.77209,13.77777 -20.50692,0.93723 -0.0318,13.72298 -9.91811,19.11038 23.03866,14.9696 9.90318,-19.0772 c 5.28738,2.27528 10.83175,3.9732 16.5733,5.01575 l -0.0513,22.0631 26.651533,0.0774 0.0513,-22.0631 c 5.75014,-1.00893 11.29521,-2.6734 16.59638,-4.91935 l 9.81449,19.1345 23.10783,-14.83546 -9.8293,-19.15119 c 4.46156,-4.04412 8.53958,-8.58358 12.17692,-13.55478 l 17.064,11.09787 13.37826,-25.77912 -17.04919,-11.08117 c 2.03333,-5.91762 3.55142,-12.11883 4.48253,-18.54471 l 19.71768,0.0573 0.0692,-29.82176 z"
   id="rect4360"
   inkscape:connector-curvature="0" /><path
   style="fill:none;stroke:none;stroke-width:0.03543307000000000;stroke-linecap:butt;stroke-linejoin:miter;stroke-miterlimit:4;stroke-opacity:1;stroke-dasharray:none"
   d="m 164.75592,214.8983 c 0,0 86.81458,85.99116 74.38237,126.64471 -12.43222,40.65348 -57.38443,103.73714 -57.38443,103.73714"
   id="path4396"
   inkscape:connector-curvature="0"
   sodipodi:nodetypes="csc" /><path
   inkscape:connector-curvature="0"
   id="path5179"
   style="font-size:40px;font-style:normal;font-variant:normal;font-weight:normal;font-stretch:normal;text-align:start;line-height:125%;letter-spacing:0px;word-spacing:0px;writing-mode:lr-tb;text-anchor:start;fill:none;fill-opacity:1;stroke:#ff0000;font-family:Bauhaus 93;-inkscape-font-specification:'Bauhaus 93,';stroke-opacity:1;stroke-width:0.03543307;stroke-miterlimit:4;stroke-dasharray:none"
   d="m 210.56222,256.60369 -2.57101,2.48334 -0.81862,-1.06115 -2.50078,2.41549 -2.46187,-3.19128 5.9499,-5.74691 c 1.11925,-1.08108 2.34347,-1.58908 3.67265,-1.52407 1.32916,0.065 2.44652,0.68443 3.35205,1.85822 0.99848,1.29431 1.3345,2.85818 1.00806,4.69149 l -3.72622,-0.96868 c 0.25208,-0.49955 0.23462,-0.93533 -0.0524,-1.30742 -0.38001,-0.49255 -0.87441,-0.44481 -1.4832,0.14317 l -1.18717,1.14671 z" /><path
   inkscape:connector-curvature="0"
   id="path5181"
   style="font-size:40px;font-style:normal;font-variant:normal;font-weight:normal;font-stretch:normal;text-align:start;line-height:125%;letter-spacing:0px;word-spacing:0px;writing-mode:lr-tb;text-anchor:start;fill:none;fill-opacity:1;stroke:#ff0000;font-family:Bauhaus 93;-inkscape-font-specification:'Bauhaus 93,';stroke-opacity:1;stroke-width:0.03543307;stroke-miterlimit:4;stroke-dasharray:none"
   d="m 216.18947,264.75506 -2.59345,2.35632 -0.68439,-0.94311 -2.34132,2.12721 -2.37491,-3.27273 6.2531,-5.68132 c 1.21027,-1.09965 2.41851,-1.58434 3.62469,-1.45416 1.20617,0.13026 2.29476,0.86437 3.2658,2.20253 0.93591,1.28972 1.32434,2.51959 1.16527,3.6896 -0.15909,1.17001 -0.87259,2.33096 -2.14048,3.48297 l -6.35395,5.77294 -2.37491,-3.27274 6.15944,-5.5962 c 0.38421,-0.34914 0.61371,-0.64236 0.68852,-0.87973 0.0748,-0.23739 0.0167,-0.4877 -0.17445,-0.75104 -0.37047,-0.51051 -0.8967,-0.45599 -1.57868,0.16362 l -1.22469,1.11274 z" /><path
   inkscape:connector-curvature="0"
   id="path5183"
   style="font-size:40px;font-style:normal;font-variant:normal;font-weight:normal;font-stretch:normal;text-align:start;line-height:125%;letter-spacing:0px;word-spacing:0px;writing-mode:lr-tb;text-anchor:start;fill:none;fill-opacity:1;stroke:#ff0000;font-family:Bauhaus 93;-inkscape-font-specification:'Bauhaus 93,';stroke-opacity:1;stroke-width:0.03543307;stroke-miterlimit:4;stroke-dasharray:none"
   d="m 225.55923,266.55799 2.75737,4.12384 c 1.63439,2.44436 1.59215,4.38603 -0.12672,5.82503 -0.85203,0.71326 -1.8402,0.88781 -2.96452,0.52361 0.34105,1.60783 -0.0928,2.9177 -1.30142,3.92959 -0.92633,0.77547 -1.90346,1.03585 -2.93139,0.78112 -0.49602,-0.1294 -0.92947,-0.35006 -1.30033,-0.66205 -0.37089,-0.31204 -0.78238,-0.80613 -1.23453,-1.48236 l -0.42807,-0.64017 2.60806,-2.18339 0.38358,0.5737 c 0.22608,0.33809 0.42384,0.54431 0.59327,0.6186 0.16943,0.0742 0.35074,0.0308 0.54394,-0.13118 0.32692,-0.2737 0.30138,-0.69324 -0.0766,-1.25862 l -0.43362,-0.64849 2.70466,-2.26423 c 0.41507,0.62079 0.81332,0.7715 1.19475,0.45218 0.3517,-0.29441 0.34039,-0.72156 -0.0339,-1.28137 l -0.41693,-0.62359 -7.42293,6.21429 -2.25703,-3.37559 z" /><path
   inkscape:connector-curvature="0"
   id="path5185"
   style="font-size:40px;font-style:normal;font-variant:normal;font-weight:normal;font-stretch:normal;text-align:start;line-height:125%;letter-spacing:0px;word-spacing:0px;writing-mode:lr-tb;text-anchor:start;fill:none;fill-opacity:1;stroke:#ff0000;font-family:Bauhaus 93;-inkscape-font-specification:'Bauhaus 93,';stroke-opacity:1;stroke-width:0.03543307;stroke-miterlimit:4;stroke-dasharray:none"
   d="m 232.12046,276.52323 2.14035,3.46944 -6.19357,4.78399 c -0.48368,0.37361 -0.75211,0.7092 -0.80529,1.00682 -0.0532,0.29762 0.0784,0.70279 0.39469,1.21553 l 0.11071,0.17948 -3.02424,2.33593 -0.56934,-0.92288 c -0.78024,-1.26472 -1.0586,-2.5049 -0.83506,-3.7206 0.22351,-1.2157 0.92077,-2.27579 2.09177,-3.18028 z" /><path
   inkscape:connector-curvature="0"
   id="path5187"
   style="font-size:40px;font-style:normal;font-variant:normal;font-weight:normal;font-stretch:normal;text-align:start;line-height:125%;letter-spacing:0px;word-spacing:0px;writing-mode:lr-tb;text-anchor:start;fill:none;fill-opacity:1;stroke:#ff0000;font-family:Bauhaus 93;-inkscape-font-specification:'Bauhaus 93,';stroke-opacity:1;stroke-width:0.03543307;stroke-miterlimit:4;stroke-dasharray:none"
   d="m 233.304,291.31823 -2.84128,1.96616 -0.57108,-1.03326 -2.56504,1.77505 -1.9817,-3.58548 6.85064,-4.7407 c 1.32591,-0.91754 2.57961,-1.22556 3.76102,-0.92392 1.18142,0.30159 2.17723,1.18536 2.98749,2.65133 0.78097,1.41303 1.02578,2.68837 0.73441,3.82599 -0.29142,1.13767 -1.13161,2.18714 -2.52069,3.14836 l -6.96112,4.8172 -1.9817,-3.58548 6.74801,-4.66971 c 0.42093,-0.29129 0.68204,-0.54934 0.78333,-0.77403 0.1013,-0.22475 0.0722,-0.48136 -0.0872,-0.76986 -0.30915,-0.55928 -0.83726,-0.58044 -1.58443,-0.0634 l -1.34171,0.9285 z" /><path
   inkscape:connector-curvature="0"
   id="path5189"
   style="font-size:40px;font-style:normal;font-variant:normal;font-weight:normal;font-stretch:normal;text-align:start;line-height:125%;letter-spacing:0px;word-spacing:0px;writing-mode:lr-tb;text-anchor:start;fill:none;fill-opacity:1;stroke:#ff0000;font-family:Bauhaus 93;-inkscape-font-specification:'Bauhaus 93,';stroke-opacity:1;stroke-width:0.03543307;stroke-miterlimit:4;stroke-dasharray:none"
   d="m 242.64343,295.04541 2.07595,4.59673 c 1.23043,2.72464 0.88768,4.62868 -1.02827,5.71203 -0.94975,0.53703 -1.94999,0.51699 -3.00077,-0.0603 0.0865,1.64967 -0.5439,2.85543 -1.89114,3.61719 -1.03257,0.58383 -2.03525,0.6505 -3.00807,0.20007 -0.46843,-0.22379 -0.86109,-0.52531 -1.17793,-0.90454 -0.31684,-0.3793 -0.64547,-0.94582 -0.98586,-1.69962 l -0.32228,-0.71361 2.90714,-1.64374 0.28877,0.63946 c 0.17017,0.3769 0.33297,0.61836 0.48832,0.72439 0.15531,0.1061 0.34069,0.0982 0.556,-0.0234 0.36443,-0.20607 0.40436,-0.62415 0.11975,-1.25438 l -0.32644,-0.72287 3.0148,-1.70463 c 0.3125,0.69194 0.68133,0.91775 1.10646,0.67734 0.39202,-0.22167 0.44718,-0.64449 0.16535,-1.26849 l -0.31387,-0.69508 -8.27413,4.67844 -1.69924,-3.76264 z" /><path
   inkscape:connector-curvature="0"
   id="path5191"
   style="font-size:40px;font-style:normal;font-variant:normal;font-weight:normal;font-stretch:normal;text-align:start;line-height:125%;letter-spacing:0px;word-spacing:0px;writing-mode:lr-tb;text-anchor:start;fill:none;fill-opacity:1;stroke:#ff0000;font-family:Bauhaus 93;-inkscape-font-specification:'Bauhaus 93,';stroke-opacity:1;stroke-width:0.03543307;stroke-miterlimit:4;stroke-dasharray:none"
   d="m 251.67422,319.69717 -3.46441,1.13477 c 0.0126,-0.32151 -0.003,-0.56196 -0.0434,-0.72142 -0.08,-0.3056 -0.24958,-0.53496 -0.50879,-0.68803 -0.25926,-0.15313 -0.53133,-0.183 -0.81634,-0.0897 -0.24345,0.0797 -0.52087,0.30047 -0.83235,0.66214 l -0.40014,0.46647 c -0.72083,0.842 -1.48501,1.3953 -2.2925,1.65979 -1.18155,0.387 -2.30494,0.24466 -3.37023,-0.42698 -1.0653,-0.6717 -1.77526,-1.68522 -2.12983,-3.04051 -0.17029,-0.65107 -0.20533,-1.33927 -0.10501,-2.06456 l 3.51791,-1.15233 c -0.11889,0.4573 -0.13921,0.83544 -0.0609,1.1344 0.0921,0.35211 0.25956,0.61641 0.50236,0.79297 0.24276,0.17653 0.50075,0.22007 0.77387,0.13059 0.17812,-0.0583 0.51747,-0.37506 1.01808,-0.95017 0.79178,-0.91574 1.6627,-1.52922 2.61267,-1.8404 1.14594,-0.37536 2.25248,-0.24195 3.31974,0.40025 1.06727,0.6422 1.76686,1.59778 2.09883,2.86667 0.14599,0.55806 0.20628,1.13342 0.18082,1.72603 z" /><path
   inkscape:connector-curvature="0"
   id="path5193"
   style="font-size:40px;font-style:normal;font-variant:normal;font-weight:normal;font-stretch:normal;text-align:start;line-height:125%;letter-spacing:0px;word-spacing:0px;writing-mode:lr-tb;text-anchor:start;fill:none;fill-opacity:1;stroke:#ff0000;font-family:Bauhaus 93;-inkscape-font-specification:'Bauhaus 93,';stroke-opacity:1;stroke-width:0.03543307;stroke-miterlimit:4;stroke-dasharray:none"
   d="m 252.85669,328.16189 -12.55976,1.83966 -0.48904,-4.18014 12.55981,-1.83962 z" /><path
   inkscape:connector-curvature="0"
   style="font-size:40px;font-style:normal;font-variant:normal;font-weight:normal;font-stretch:normal;text-align:start;line-height:125%;letter-spacing:0px;word-spacing:0px;writing-mode:lr-tb;text-anchor:start;fill:none;fill-opacity:1;stroke:#ff0000;font-family:Bauhaus 93;-inkscape-font-specification:'Bauhaus 93,';stroke-opacity:1;stroke-width:0.03543307;stroke-miterlimit:4;stroke-dasharray:none"
   d="m 252.50503,340.16869 c -0.0913,-1.16541 -0.42559,-2.26557 -1.01685,-3.30909 -0.98262,-1.73437 -2.37998,-2.81491 -4.19433,-3.25193 -1.79627,-0.43267 -3.46261,-0.0997 -5.00607,1.01552 -1.54349,1.11521 -2.51952,2.68338 -2.90618,4.6933 -0.38932,2.02343 -0.0844,3.88262 0.90756,5.6015 0.99192,1.71887 2.40087,2.7997 4.20923,3.23532 1.77808,0.4283 3.43002,0.0978 4.9763,-0.99895 1.54629,-1.09686 2.51355,-2.63115 2.89113,-4.59368 0.0216,-0.11211 0.0276,-0.22103 0.0455,-0.33215 l -3.86039,-0.0112 c -0.21906,0.54291 -0.57133,0.97534 -1.05721,1.30944 -0.66732,0.45884 -1.39128,0.5998 -2.18359,0.40897 -0.79225,-0.19086 -1.4133,-0.64228 -1.85277,-1.36772 -0.43947,-0.72542 -0.57426,-1.5243 -0.41022,-2.37695 0.16145,-0.83921 0.58008,-1.49192 1.25176,-1.95679 0.67163,-0.46489 1.3973,-0.5984 2.18354,-0.40904 0.78623,0.18938 1.39607,0.65474 1.83791,1.38433 0.18724,0.30911 0.32004,0.61811 0.39871,0.94812 l 3.78612,0.0109 z"
   id="path5195" /><path
   inkscape:connector-curvature="0"
   id="path5197"
   style="font-size:40px;font-style:normal;font-variant:normal;font-weight:normal;font-stretch:normal;text-align:start;line-height:125%;letter-spacing:0px;word-spacing:0px;writing-mode:lr-tb;text-anchor:start;fill:none;fill-opacity:1;stroke:#ff0000;font-family:Bauhaus 93;-inkscape-font-specification:'Bauhaus 93,';stroke-opacity:1;stroke-width:0.03543307;stroke-miterlimit:4;stroke-dasharray:none"
   d="m 237.02706,348.03006 7.51102,3.74222 c 1.31682,0.65604 2.19532,1.62231 2.63551,2.8987 0.44014,1.27637 0.3683,2.64813 -0.21547,4.1153 -0.58134,1.46076 -1.41041,2.38702 -2.48729,2.7788 -1.07688,0.39167 -2.33592,0.22852 -3.77708,-0.48945 l -7.39231,-3.68308 1.53251,-3.85125 7.39234,3.68308 c 0.70645,0.35198 1.17166,0.24653 1.39561,-0.31626 0.2164,-0.54388 -0.0286,-0.99182 -0.73505,-1.34374 l -7.39232,-3.68309 z" /><path
   inkscape:connector-curvature="0"
   id="path5199"
   style="font-size:40px;font-style:normal;font-variant:normal;font-weight:normal;font-stretch:normal;text-align:start;line-height:125%;letter-spacing:0px;word-spacing:0px;writing-mode:lr-tb;text-anchor:start;fill:none;fill-opacity:1;stroke:#ff0000;font-family:Bauhaus 93;-inkscape-font-specification:'Bauhaus 93,';stroke-opacity:1;stroke-width:0.03543307;stroke-miterlimit:4;stroke-dasharray:none"
   d="m 230.25899,364.20656 7.98876,4.9489 c 0.99046,0.61359 1.63331,1.45094 1.92856,2.51215 0.2952,1.06117 0.17765,2.12775 -0.35274,3.1997 -0.62927,1.27177 -1.6355,1.92634 -3.01868,1.96357 0.35613,0.76655 0.53625,1.46369 0.5404,2.09136 0.004,0.62761 -0.16758,1.29268 -0.5152,1.99525 -0.55135,1.11432 -1.28777,1.77376 -2.20923,1.97837 -0.92153,0.20456 -1.97223,-0.0583 -3.15214,-0.78951 l -7.7046,-4.7729 1.82486,-3.68824 7.20936,4.46608 c 0.35721,0.22125 0.60974,0.33618 0.75757,0.34469 0.14782,0.008 0.26969,-0.0842 0.36558,-0.27795 0.17979,-0.36338 -0.007,-0.71608 -0.55842,-1.05805 l -7.26619,-4.50128 1.82485,-3.68825 7.20937,4.46602 c 0.35179,0.21794 0.60374,0.33048 0.75576,0.33767 0.15203,0.008 0.27602,-0.0862 0.37187,-0.28 0.17977,-0.36338 -0.0253,-0.72778 -0.61523,-1.09325 l -7.20937,-4.46608 z" /><path
   inkscape:connector-curvature="0"
   id="path5201"
   style="font-size:40px;font-style:normal;font-variant:normal;font-weight:normal;font-stretch:normal;text-align:start;line-height:125%;letter-spacing:0px;word-spacing:0px;writing-mode:lr-tb;text-anchor:start;fill:none;fill-opacity:1;stroke:#ff0000;font-family:Bauhaus 93;-inkscape-font-specification:'Bauhaus 93,';stroke-opacity:1;stroke-width:0.03543307;stroke-miterlimit:4;stroke-dasharray:none"
   d="m 222.97959,386.19767 -3.06831,-2.08817 c 0.10561,-0.30088 0.21949,-0.56366 0.34165,-0.78839 0.72335,-1.33075 1.71728,-2.17349 2.98177,-2.52825 1.26451,-0.35476 2.4861,-0.13105 3.6648,0.67117 1.14699,0.7806 1.87602,1.8905 2.1871,3.32972 0.31107,1.43922 0.1178,2.80051 -0.57982,4.08396 -0.778,1.43125 -1.76519,2.3049 -2.96158,2.62095 -1.19639,0.31604 -2.44207,0.0333 -3.73706,-0.84793 l -3.87702,-2.63861 1.80355,-3.31796 3.66294,2.4929 c 0.41756,0.2842 0.81245,0.39694 1.18464,0.33831 0.3722,-0.0586 0.66278,-0.28016 0.87174,-0.66456 0.18968,-0.34896 0.24,-0.72792 0.15096,-1.13691 -0.089,-0.40905 -0.28949,-0.71962 -0.60134,-0.93186 -0.32771,-0.22307 -0.65997,-0.29119 -0.99678,-0.2044 -0.3368,0.0867 -0.60165,0.30757 -0.79454,0.66246 -0.15754,0.28977 -0.2351,0.60566 -0.2327,0.94757 z" /><path
   inkscape:connector-curvature="0"
   id="path5203"
   style="font-size:40px;font-style:normal;font-variant:normal;font-weight:normal;font-stretch:normal;text-align:start;line-height:125%;letter-spacing:0px;word-spacing:0px;writing-mode:lr-tb;text-anchor:start;fill:none;fill-opacity:1;stroke:#ff0000;font-family:Bauhaus 93;-inkscape-font-specification:'Bauhaus 93,';stroke-opacity:1;stroke-width:0.03543307;stroke-miterlimit:4;stroke-dasharray:none"
   d="m 225.85775,400.45033 -2.98938,-2.13187 -0.83789,1.47108 -3.09111,-2.20441 0.8379,-1.47108 c -0.62083,-0.44274 -1.11098,-0.63837 -1.47043,-0.58684 -0.35946,0.0515 -0.70543,0.3691 -1.03793,0.95288 l -3.07545,-2.19325 c 0.0912,-0.17305 0.16009,-0.3004 0.20664,-0.38213 0.42227,-0.74137 0.97433,-1.3307 1.65621,-1.7679 0.68187,-0.43722 1.39931,-0.66645 2.15234,-0.6876 0.95894,-0.0221 1.99402,0.36306 3.10527,1.15557 l 6.40915,4.57062 z" /><path
   inkscape:connector-curvature="0"
   id="path5205"
   style="font-size:40px;font-style:normal;font-variant:normal;font-weight:normal;font-stretch:normal;text-align:start;line-height:125%;letter-spacing:0px;word-spacing:0px;writing-mode:lr-tb;text-anchor:start;fill:none;fill-opacity:1;stroke:#ff0000;font-family:Bauhaus 93;-inkscape-font-specification:'Bauhaus 93,';stroke-opacity:1;stroke-width:0.03543307;stroke-miterlimit:4;stroke-dasharray:none"
   d="m 211.79406,406.90286 2.90343,-4.91002 c 0.26623,0.0892 0.49222,0.20255 0.67796,0.34009 0.25797,0.19097 0.48005,0.43012 0.66625,0.71738 l -0.97293,1.64533 c 0.64096,0.30856 1.14068,0.15972 1.49912,-0.44643 0.23897,-0.40415 0.28006,-0.84685 0.12329,-1.32812 -0.15677,-0.48132 -0.47507,-0.89959 -0.95489,-1.25485 -0.50048,-0.37052 -0.97802,-0.54767 -1.43267,-0.5315 -0.45465,0.0163 -0.79974,0.22341 -1.0353,0.62172 -0.19118,0.32328 -0.23106,0.742 -0.11966,1.25615 l -3.0719,0.37763 c -0.095,-1.30711 0.16817,-2.48603 0.78948,-3.53671 0.75786,-1.28161 1.77891,-2.07371 3.06314,-2.37631 1.28423,-0.30256 2.49388,-0.0337 3.62895,0.80667 1.1299,0.83659 1.82408,1.98345 2.08255,3.44064 0.25845,1.4572 0.009,2.82662 -0.74911,4.10825 -0.74079,1.25272 -1.74346,2.02319 -3.008,2.31129 -1.26456,0.28809 -2.45404,0.0195 -3.56846,-0.8055 -0.11351,-0.084 -0.28726,-0.22928 -0.52125,-0.43571 z m 8.99498,1.55482 -1.21358,2.0523 -0.58187,-3.38162 1.08047,-1.8272 z" /><path
   inkscape:connector-curvature="0"
   style="font-size:40px;font-style:normal;font-variant:normal;font-weight:normal;font-stretch:normal;text-align:start;line-height:125%;letter-spacing:0px;word-spacing:0px;writing-mode:lr-tb;text-anchor:start;fill:none;fill-opacity:1;stroke:#ff0000;font-family:Bauhaus 93;-inkscape-font-specification:'Bauhaus 93,';stroke-opacity:1;stroke-width:0.03543307;stroke-miterlimit:4;stroke-dasharray:none"
   d="m 213.79307,412.19369 c -0.0118,-0.18036 -0.0305,-0.36527 -0.0582,-0.5484 -0.22102,-1.46506 -0.89554,-2.63462 -2.01118,-3.49476 -1.09527,-0.8443 -2.30345,-1.12011 -3.62091,-0.84121 -1.31745,0.27884 -2.34671,1.03009 -3.10843,2.26703 -0.76171,1.23695 -1.03188,2.59611 -0.79638,4.06812 0.23552,1.47196 0.91086,2.62971 2.01123,3.47812 1.08507,0.83661 2.28247,1.12235 3.59116,0.85777 1.30866,-0.26462 2.33442,-0.99228 3.07859,-2.20073 0.48646,-0.78999 0.77671,-1.61643 0.88176,-2.47287 l -3.54859,-0.0104 c -0.0308,0.0715 -0.0621,0.14688 -0.10444,0.21566 -0.21413,0.34771 -0.50845,0.5602 -0.87747,0.62878 -0.36903,0.0686 -0.71778,-0.0212 -1.03872,-0.26885 -0.31584,-0.24351 -0.50182,-0.56681 -0.57678,-0.98187 -0.0749,-0.41511 -0.015,-0.80378 0.19567,-1.14581 0.20711,-0.3363 0.50411,-0.54272 0.87745,-0.61214 0.37332,-0.0694 0.72286,0.0255 1.03872,0.26884 0.29699,0.22894 0.47644,0.53038 0.56212,0.89879 l 3.50404,0.0102 c -0.003,-0.0393 0.003,-0.0769 2.8e-4,-0.11632 z"
   id="path5207" /></svg>