<?xml version="1.0" encoding="UTF-8" standalone="no"?>
<!-- Generator: Adobe Illustrator 19.0.0, SVG Export Plug-In . SVG Version: 6.00 Build 0)  -->

<svg
   xmlns:dc="http://purl.org/dc/elements/1.1/"
   xmlns:cc="http://creativecommons.org/ns#"
   xmlns:rdf="http://www.w3.org/1999/02/22-rdf-syntax-ns#"
   xmlns:svg="http://www.w3.org/2000/svg"
   xmlns="http://www.w3.org/2000/svg"
   xmlns:sodipodi="http://sodipodi.sourceforge.net/DTD/sodipodi-0.dtd"
   xmlns:inkscape="http://www.inkscape.org/namespaces/inkscape"
   version="1.1"
   id="Abat-jour"
   x="0px"
   y="0px"
   viewBox="0 0 595.3 841.9"
   style="enable-background:new 0 0 595.3 841.9;"
   xml:space="preserve"
   inkscape:version="0.48.4 r9939"
   width="100%"
   height="100%"
   sodipodi:docname="abat.svg"><metadata
   id="metadata4592"><rdf:RDF><cc:Work
       rdf:about=""><dc:format>image/svg+xml</dc:format><dc:type
         rdf:resource="http://purl.org/dc/dcmitype/StillImage" /><dc:title></dc:title></cc:Work></rdf:RDF></metadata><defs
   id="defs4590" /><sodipodi:namedview
   pagecolor="#ffffff"
   bordercolor="#666666"
   borderopacity="1"
   objecttolerance="10"
   gridtolerance="10"
   guidetolerance="10"
   inkscape:pageopacity="0"
   inkscape:pageshadow="2"
   inkscape:window-width="1680"
   inkscape:window-height="987"
   id="namedview4588"
   showgrid="false"
   inkscape:zoom="0.56063665"
   inkscape:cx="-20.642151"
   inkscape:cy="715.29376"
   inkscape:window-x="-8"
   inkscape:window-y="-8"
   inkscape:window-maximized="1"
   inkscape:current-layer="Abat-jour" />
<style
   type="text/css"
   id="style4479">
	.st0{fill:none;stroke:#FF0000;stroke-width:0.1;stroke-miterlimit:10;}
</style>

<g
   id="Basique"
   style="stroke:#ff0000;stroke-opacity:1;stroke-width:0.03543307;stroke-miterlimit:4;stroke-dasharray:none;fill:none">
	<path
   id="XMLID_197_"
   class="st0"
   d="M84.6,39.1c-1.3,3.8,0.7,8,4.6,9.3L57,37.4c-67.9,198.7-63.2,404.7-0.1,589.2l31.7-10.8   c2.5-1.3,3.7-4.3,2.8-7.1c-1.1-3.1-4.4-4.7-7.5-3.7l33.4-11.4c-3.1,1.1-4.7,4.4-3.7,7.5c1,2.8,3.8,4.4,6.6,3.9l52.9-18.1   c2.6-1.3,3.9-4.3,3-7.2c-1.1-3.1-4.4-4.7-7.5-3.7l33.4-11.4c-3.1,1.1-4.7,4.4-3.7,7.5c1,2.9,3.9,4.5,6.8,3.8l52.5-17.9   c2.8-1.2,4.2-4.4,3.2-7.3c-1.1-3.1-4.4-4.7-7.5-3.7l33.4-11.4c-3.1,1.1-4.7,4.4-3.7,7.5c1,3,4.2,4.6,7.3,3.7l23.2-7.9   c-44.3-129.6-47.9-274.6-0.8-414.3l-23.4-8c3.8,1.3,8-0.7,9.3-4.6c1.3-3.8-0.7-8-4.6-9.3l-30.6-10.5c-3.8-1.3-8,0.7-9.3,4.6   c-1.3,3.8,0.7,8,4.6,9.3l-54.1-18.5c3.8,1.3,8-0.7,9.3-4.6c1.3-3.8-0.7-8-4.6-9.3l-30.6-10.5c-3.8-1.3-8,0.7-9.3,4.6   c-1.3,3.8,0.7,8,4.6,9.3l-54.1-18.5c3.8,1.3,8-0.7,9.3-4.6c1.3-3.8-0.7-8-4.6-9.3L93.9,34.5C90.1,33.2,85.9,35.2,84.6,39.1z"
   style="stroke:#ff0000;stroke-opacity:1;stroke-width:0.03543307;stroke-miterlimit:4;stroke-dasharray:none;fill:none" />
	<line
   id="XMLID_196_"
   class="st0"
   x1="83.9"
   y1="605"
   x2="76.9"
   y2="607.4"
   style="stroke:#ff0000;stroke-opacity:1;stroke-width:0.03543307;stroke-miterlimit:4;stroke-dasharray:none;fill:none" />
	<line
   id="XMLID_195_"
   class="st0"
   x1="117.3"
   y1="593.6"
   x2="124.3"
   y2="591.2"
   style="stroke:#ff0000;stroke-opacity:1;stroke-width:0.03543307;stroke-miterlimit:4;stroke-dasharray:none;fill:none" />
	<line
   id="XMLID_194_"
   class="st0"
   x1="168.7"
   y1="576.1"
   x2="161.7"
   y2="578.5"
   style="stroke:#ff0000;stroke-opacity:1;stroke-width:0.03543307;stroke-miterlimit:4;stroke-dasharray:none;fill:none" />
	<line
   id="XMLID_193_"
   class="st0"
   x1="202.1"
   y1="564.7"
   x2="209.1"
   y2="562.3"
   style="stroke:#ff0000;stroke-opacity:1;stroke-width:0.03543307;stroke-miterlimit:4;stroke-dasharray:none;fill:none" />
	<line
   id="XMLID_192_"
   class="st0"
   x1="253.5"
   y1="547.1"
   x2="246.5"
   y2="549.5"
   style="stroke:#ff0000;stroke-opacity:1;stroke-width:0.03543307;stroke-miterlimit:4;stroke-dasharray:none;fill:none" />
	<line
   id="XMLID_191_"
   class="st0"
   x1="286.9"
   y1="535.7"
   x2="293.8"
   y2="533.3"
   style="stroke:#ff0000;stroke-opacity:1;stroke-width:0.03543307;stroke-miterlimit:4;stroke-dasharray:none;fill:none" />
</g>
<path
   sodipodi:type="star"
   style="fill:none;stroke:#ff0000;stroke-width:0.03543307;stroke-miterlimit:4;stroke-opacity:1;stroke-dasharray:none"
   id="path5102"
   sodipodi:sides="5"
   sodipodi:cx="105.94557"
   sodipodi:cy="150.73129"
   sodipodi:r1="16.151968"
   sodipodi:r2="8.075984"
   sodipodi:arg1="0.89605538"
   sodipodi:arg2="1.5243739"
   inkscape:flatsided="false"
   inkscape:rounded="0"
   inkscape:randomized="0"
   d="m 116.03563,163.34386 -9.71529,-4.54528 -9.252035,5.42642 1.320635,-10.64435 -8.019875,-7.12235 10.531475,-2.03329 4.29549,-9.82828 5.18818,9.38771 10.67463,1.04814 -7.32501,7.83521 z"
   transform="translate(0,-2.0838898e-5)"
   inkscape:transform-center-x="0.231624"
   inkscape:transform-center-y="-1.3204316" /><path
   sodipodi:type="star"
   style="fill:none;stroke:#ff0000;stroke-width:0.03543307;stroke-miterlimit:4;stroke-opacity:1;stroke-dasharray:none"
   id="path5104"
   sodipodi:sides="5"
   sodipodi:cx="143.78327"
   sodipodi:cy="193.61402"
   sodipodi:r1="15.803502"
   sodipodi:r2="7.9017511"
   sodipodi:arg1="0.49934672"
   sodipodi:arg2="1.1276653"
   inkscape:flatsided="false"
   inkscape:rounded="0"
   inkscape:randomized="0"
   d="m 157.65709,201.18155 -10.48579,-0.42899 -6.29795,8.39474 -2.83229,-10.10514 -9.93004,-3.39559 8.73533,-5.81633 0.16084,-10.49332 8.23103,6.51045 10.02945,-3.08965 -3.64828,9.84001 z"
   transform="translate(0,-2.0838898e-5)"
   inkscape:transform-center-x="0.89921497"
   inkscape:transform-center-y="0.62809174" /><path
   sodipodi:type="star"
   style="fill:none;stroke:#ff0000;stroke-width:0.03543307;stroke-miterlimit:4;stroke-opacity:1;stroke-dasharray:none"
   id="path5106"
   sodipodi:sides="5"
   sodipodi:cx="176.57595"
   sodipodi:cy="133.07369"
   sodipodi:r1="20.686149"
   sodipodi:r2="10.343075"
   sodipodi:arg1="0.9151007"
   sodipodi:arg2="1.5434192"
   inkscape:flatsided="false"
   inkscape:rounded="0"
   inkscape:randomized="0"
   d="m 189.18851,149.47002 -12.32944,-6.05714 -11.97947,6.72282 1.95067,-13.59776 -10.09563,-9.31569 13.53502,-2.34673 5.74003,-12.48023 6.41443,12.14739 13.64317,1.60249 -9.57069,9.85423 z"
   transform="translate(0,-2.0838898e-5)"
   inkscape:transform-center-x="0.17498633"
   inkscape:transform-center-y="-1.8081955" /><path
   sodipodi:type="star"
   style="fill:none;stroke:#ff0000;stroke-width:0.03543307;stroke-miterlimit:4;stroke-opacity:1;stroke-dasharray:none"
   id="path5108"
   sodipodi:sides="5"
   sodipodi:cx="194.23354"
   sodipodi:cy="279.37948"
   sodipodi:r1="11.898673"
   sodipodi:r2="5.9493366"
   sodipodi:arg1="0.55859932"
   sodipodi:arg2="1.1869178"
   inkscape:flatsided="false"
   inkscape:rounded="0"
   inkscape:randomized="0"
   d="m 204.32359,285.68577 -7.86191,-0.78995 -5.10778,6.02863 -1.67818,-7.72123 -7.31195,-2.99484 6.82474,-3.98204 0.58874,-7.87953 5.8961,5.2602 7.67582,-1.87499 -3.18075,7.23302 z"
   transform="translate(0,-2.0838898e-5)"
   inkscape:transform-center-x="0.88985986"
   inkscape:transform-center-y="0.25613667" /><path
   sodipodi:type="star"
   style="fill:none;stroke:#ff0000;stroke-width:0.03543307;stroke-miterlimit:4;stroke-opacity:1;stroke-dasharray:none"
   id="path5110"
   sodipodi:sides="5"
   sodipodi:cx="52.972785"
   sodipodi:cy="415.59521"
   sodipodi:r1="8.9184322"
   sodipodi:r2="4.4592162"
   sodipodi:arg1="0.78539816"
   sodipodi:arg2="1.4137167"
   inkscape:flatsided="false"
   inkscape:rounded="0"
   inkscape:randomized="0"
   d="m 59.27907,421.9015 -5.608709,-1.90197 -4.746459,3.54207 0.07569,-5.92194 -4.835441,-3.4196 5.65549,-1.75799 1.757992,-5.65549 3.419592,4.83544 5.921939,-0.0757 -3.542065,4.74646 z"
   transform="translate(0,-2.0838898e-5)"
   inkscape:transform-center-x="0.43112619"
   inkscape:transform-center-y="-0.43113363" /><path
   sodipodi:type="star"
   style="fill:none;stroke:#ff0000;stroke-width:0.03543307;stroke-miterlimit:4;stroke-opacity:1;stroke-dasharray:none"
   id="path5112"
   sodipodi:sides="5"
   sodipodi:cx="51.711528"
   sodipodi:cy="542.98214"
   sodipodi:r1="10.168577"
   sodipodi:r2="5.0842887"
   sodipodi:arg1="0.51914611"
   sodipodi:arg2="1.1474646"
   inkscape:flatsided="false"
   inkscape:rounded="0"
   inkscape:randomized="0"
   d="m 60.540326,548.02714 -6.74017,-0.40955 -4.158485,5.32021 -1.693319,-6.53684 -6.344863,-2.31092 5.693641,-3.63044 0.237144,-6.74843 5.212183,4.2931 6.491426,-1.85984 -2.472334,6.28372 z"
   transform="translate(0,-2.0838898e-5)"
   inkscape:transform-center-x="0.63962218"
   inkscape:transform-center-y="0.34235628" /><path
   sodipodi:type="star"
   style="fill:none;stroke:#ff0000;stroke-width:0.03543307;stroke-miterlimit:4;stroke-opacity:1;stroke-dasharray:none"
   id="path5114"
   sodipodi:sides="5"
   sodipodi:cx="64.324096"
   sodipodi:cy="506.4057"
   sodipodi:r1="11.628213"
   sodipodi:r2="5.8141067"
   sodipodi:arg1="0.21866895"
   sodipodi:arg2="0.84698748"
   inkscape:flatsided="false"
   inkscape:rounded="0"
   inkscape:randomized="0"
   d="m 75.675408,508.92821 -7.500958,1.83394 -2.741658,7.21879 -4.062096,-6.56712 -7.712699,-0.37674 4.990444,-5.89264 -2.025052,-7.45163 7.14636,2.92527 6.461149,-4.22862 -0.573751,7.70055 z"
   transform="translate(0,-2.0838898e-5)"
   inkscape:transform-center-x="-0.34260429"
   inkscape:transform-center-y="0.77948916" /><path
   sodipodi:type="star"
   style="fill:none;stroke:#ff0000;stroke-width:0.03543307;stroke-miterlimit:4;stroke-opacity:1;stroke-dasharray:none"
   id="path5116"
   sodipodi:sides="5"
   sodipodi:cx="84.504204"
   sodipodi:cy="569.46854"
   sodipodi:r1="10.090054"
   sodipodi:r2="5.0450273"
   sodipodi:arg1="0"
   sodipodi:arg2="0.62831853"
   inkscape:flatsided="false"
   inkscape:rounded="0"
   inkscape:randomized="0"
   d="m 94.594257,569.46857 -6.00854,2.96539 -0.963515,6.63082 -4.676997,-4.79811 -6.604026,1.13268 3.117998,-5.93078 -3.117998,-5.93079 6.604026,1.13268 4.676997,-4.7981 0.963515,6.63081 z"
   transform="translate(0,-2.0838898e-5)"
   inkscape:transform-center-x="-0.96351269"
   inkscape:transform-center-y="-1.167734e-005" /><path
   sodipodi:type="star"
   style="fill:none;stroke:#ff0000;stroke-width:0.03543307;stroke-miterlimit:4;stroke-opacity:1;stroke-dasharray:none"
   id="path5118"
   sodipodi:sides="5"
   sodipodi:cx="254.77387"
   sodipodi:cy="433.2528"
   sodipodi:r1="10.849741"
   sodipodi:r2="5.4248709"
   sodipodi:arg1="0.95054684"
   sodipodi:arg2="1.5788654"
   inkscape:flatsided="false"
   inkscape:rounded="0"
   inkscape:randomized="0"
   d="m 261.08015,442.08161 -6.35006,-3.40411 -6.40416,3.30119 1.27522,-7.09119 -5.11861,-5.0706 7.13818,-0.97849 3.24069,-6.43499 3.13642,6.48645 7.12147,1.09355 -5.19977,4.98734 z"
   transform="translate(0,-2.0838898e-5)"
   inkscape:transform-center-x="-0.027048007"
   inkscape:transform-center-y="-1.0103041" /><path
   sodipodi:type="star"
   style="fill:none;stroke:#ff0000;stroke-width:0.03543307;stroke-miterlimit:4;stroke-opacity:1;stroke-dasharray:none"
   id="path5120"
   sodipodi:sides="5"
   sodipodi:cx="245.94507"
   sodipodi:cy="502.62193"
   sodipodi:r1="9.095052"
   sodipodi:r2="4.5475263"
   sodipodi:arg1="0.5880026"
   sodipodi:arg2="1.2163211"
   inkscape:flatsided="false"
   inkscape:rounded="0"
   inkscape:randomized="0"
   d="m 253.51261,507.66694 -5.9891,-0.78022 -4.03805,4.49136 -1.10869,-5.93708 -5.51936,-2.45251 5.30389,-2.88909 0.62689,-6.00708 4.38668,4.15152 5.9068,-1.26008 -2.59277,5.45487 z"
   transform="translate(0,-2.0838898e-5)"
   inkscape:transform-center-x="0.76006546"
   inkscape:transform-center-y="0.11326795" /><path
   sodipodi:type="star"
   style="fill:none;stroke:#ff0000;stroke-width:0.03543307;stroke-miterlimit:4;stroke-opacity:1;stroke-dasharray:none"
   id="path5122"
   sodipodi:sides="5"
   sodipodi:cx="269.90895"
   sodipodi:cy="459.7392"
   sodipodi:r1="11.628213"
   sodipodi:r2="5.8141069"
   sodipodi:arg1="0.86217005"
   sodipodi:arg2="1.4904886"
   inkscape:flatsided="false"
   inkscape:rounded="0"
   inkscape:randomized="0"
   d="m 277.47648,468.56799 -7.10113,-3.03342 -6.5246,4.13003 0.69059,-7.69095 -5.94411,-4.92901 7.52793,-1.71984 2.85094,-7.17634 3.96193,6.62803 7.70609,0.4938 -5.07933,5.81619 z"
   transform="translate(0,-2.0838898e-5)"
   inkscape:transform-center-x="0.28826649"
   inkscape:transform-center-y="-0.83267374" /><g
   style="font-size:40px;font-style:normal;font-weight:normal;line-height:125%;letter-spacing:0px;word-spacing:0px;fill:none;fill-opacity:1;stroke:#ff0000;font-family:Sans;stroke-opacity:1;stroke-width:0.03543307;stroke-miterlimit:4;stroke-dasharray:none"
   id="text5124"><path
     d="m 73.784285,322.43169 c 2.813809,1.02128 6.896056,1.98371 12.246753,2.8873 3.89775,0.62852 6.601203,1.41172 8.110367,2.34959 1.509111,0.9378 2.280689,2.06406 2.314736,3.37875 0.02759,1.06732 -0.570374,1.61682 -1.793894,1.64852 -0.702916,0.0181 -1.204248,-0.10238 -1.503998,-0.36161 -0.299801,-0.25929 -0.51904,-0.80393 -0.65772,-1.63392 -0.138729,-0.83006 -0.62018,-1.56655 -1.444355,-2.20947 -0.824222,-0.64299 -2.506159,-1.21165 -5.045818,-1.70599 l -6.538611,-1.25706 c -2.264996,-0.44941 -4.245302,-0.97127 -5.940924,-1.5656 -1.695633,-0.59439 -2.952515,-1.0959 -3.770648,-1.50453 -0.818138,-0.40869 -1.274448,-0.67692 -1.36893,-0.8047 -0.09448,-0.12783 -0.174495,-0.45139 -0.240033,-0.97068 l -0.308386,-2.1021 c -0.03883,-0.49398 0.0518,-0.76659 0.271904,-0.81786 0.220101,-0.0513 1.057979,-0.13811 2.513636,-0.26042 1.455652,-0.12235 2.543339,-0.24493 3.263064,-0.36773 0.719713,-0.12285 2.678686,-0.55127 5.876924,-1.28526 3.198213,-0.73404 6.434538,-1.25413 9.708982,-1.56027 -0.05445,-0.0898 -1.913591,-0.58547 -5.577442,-1.48708 -3.663884,-0.90163 -6.115646,-1.52201 -7.355292,-1.86114 -1.239664,-0.33915 -2.567715,-0.82254 -3.984158,-1.45016 -1.416452,-0.62765 -2.613249,-1.44983 -3.590395,-2.46655 -0.977148,-1.01674 -1.484246,-2.24101 -1.521296,-3.67281 -0.03233,-1.24959 0.335395,-2.2653 1.103188,-3.04714 0.767792,-0.78184 1.490116,-1.18152 2.166975,-1.19903 0.416524,-0.0108 1.062949,0.43163 1.939278,1.32723 0.876319,0.8956 1.319364,1.53214 1.329138,1.90962 0.01077,0.41652 -0.441322,0.68873 -1.356283,0.81661 -0.914971,0.12787 -1.595611,0.37668 -2.041922,0.74643 -0.446317,0.36973 -0.663074,0.80192 -0.650273,1.29655 0.05018,1.93944 3.796202,3.7507 11.238068,5.43377 l 2.377647,0.52461 c 4.298014,0.99591 7.412327,1.80104 9.34295,2.41538 l 1.85149,0.5773 c 0.407188,0.13273 0.658122,0.26625 0.752802,0.40059 0.09462,0.13429 0.188072,0.47379 0.280345,1.01848 l 0.326394,2.04302 c 0.05979,0.29801 0.09171,0.52512 0.09578,0.68134 0.0074,0.28634 -0.05933,0.47693 -0.20012,0.57178 -0.140852,0.0948 -0.413019,0.14743 -0.816502,0.15789 -2.8246,0.0731 -6.6077,0.60404 -11.349311,1.59294 -4.741644,0.98884 -8.093011,1.59331 -10.054112,1.81341 z"
     style="font-size:40px;font-style:normal;font-variant:normal;font-weight:bold;font-stretch:normal;text-align:start;line-height:125%;writing-mode:lr-tb;text-anchor:start;font-family:Script MT Bold;-inkscape-font-specification:'Script MT Bold, Bold';fill:none;stroke:#ff0000;stroke-opacity:1;stroke-width:0.03543307;stroke-miterlimit:4;stroke-dasharray:none"
     id="path10865" /><path
     style="font-size:40px;font-style:normal;font-variant:normal;font-weight:bold;font-stretch:normal;text-align:start;line-height:125%;writing-mode:lr-tb;text-anchor:start;font-family:Script MT Bold;-inkscape-font-specification:'Script MT Bold, Bold';fill:none;stroke:#ff0000;stroke-opacity:1;stroke-width:0.03543307;stroke-miterlimit:4;stroke-dasharray:none"
     d="M 75.96875 332.5 C 75.609773 332.51909 75.242201 332.5714 74.875 332.625 C 73.019659 332.89583 71.610517 333.56496 70.625 334.65625 C 69.63948 335.74754 69.250584 337.03667 69.46875 338.53125 C 69.690973 340.05362 70.453852 341.38725 71.78125 342.53125 L 72.96875 341.34375 C 72.73317 341.04587 72.607078 340.74289 72.5625 340.4375 C 72.455294 339.70308 72.71366 339.08011 73.375 338.5625 C 74.036332 338.04488 75.011181 337.68995 76.3125 337.5 C 78.657431 337.1577 80.796991 337.34003 82.6875 338.03125 C 83.514586 338.33365 84.175463 338.72805 84.6875 339.21875 L 86.28125 338.71875 C 85.551583 337.142 84.433861 335.78379 82.90625 334.65625 C 80.796386 333.09896 78.481589 332.36635 75.96875 332.5 z M 80.90625 340.46875 C 80.653543 340.47713 80.413934 340.49364 80.15625 340.53125 C 78.403977 340.78703 76.874798 341.62944 75.53125 343.0625 C 75.140815 342.88823 74.813931 342.71092 74.5 342.53125 L 73.46875 343.71875 C 73.829316 343.92757 74.216856 344.12095 74.625 344.3125 C 74.037009 345.33259 73.802082 346.29107 73.9375 347.21875 C 73.990156 347.5795 74.17136 348.07258 74.5 348.65625 C 74.828629 349.23989 75.324283 349.80251 76 350.375 L 78.25 350.0625 C 76.545052 348.92968 75.626004 347.92573 75.5 347.0625 C 75.394672 346.34097 75.5841 345.62048 76.09375 344.875 C 79.790102 345.67762 82.840624 345.88294 85.25 345.53125 C 85.739587 345.45977 86.132303 345.35046 86.4375 345.1875 C 86.742663 345.02451 86.992162 344.66871 87.15625 344.125 C 87.320291 343.58126 87.316095 342.75141 87.15625 341.65625 C 87.14071 341.54979 87.111971 341.4487 87.09375 341.34375 L 85.84375 341.46875 C 85.849369 341.50222 85.870055 341.52862 85.875 341.5625 C 85.92759 341.92325 85.92408 342.23294 85.875 342.4375 C 84.338486 341.06134 82.675197 340.41009 80.90625 340.46875 z "
     transform="translate(0,-2.0838898e-5)"
     id="path10867" /><path
     style="font-size:40px;font-style:normal;font-variant:normal;font-weight:bold;font-stretch:normal;text-align:start;line-height:125%;writing-mode:lr-tb;text-anchor:start;font-family:Script MT Bold;-inkscape-font-specification:'Script MT Bold, Bold';fill:none;stroke:#ff0000;stroke-opacity:1;stroke-width:0.03543307;stroke-miterlimit:4;stroke-dasharray:none"
     d="M 79.375 349.28125 C 78.707783 349.3124 78.047441 349.40738 77.375 349.5625 C 75.573356 349.97812 74.234424 350.8422 73.375 352.15625 C 72.515572 353.4703 72.289443 354.99323 72.6875 356.71875 C 73.044579 358.26663 73.73072 359.58019 74.78125 360.6875 C 75.831774 361.79479 77.354829 362.97328 79.3125 364.21875 L 81.5 363.71875 C 79.59795 362.54061 78.344766 361.62609 77.71875 360.96875 C 77.092721 360.31139 76.661919 359.55612 76.46875 358.71875 C 75.974102 356.57453 76.924237 354.95324 79.28125 353.875 C 79.615349 354.46962 79.951362 355.01229 80.28125 355.53125 L 81.5625 354.96875 C 81.210635 354.51502 80.853117 354.02543 80.53125 353.4375 C 82.573944 352.96645 84.33052 352.97039 85.78125 353.4375 L 87.0625 351.78125 C 86.541099 351.38372 85.96404 350.99703 85.3125 350.65625 C 83.357859 349.63391 81.376652 349.18781 79.375 349.28125 z M 88.6875 353.375 L 87.625 354.4375 C 87.936424 354.72741 88.136311 355.01767 88.21875 355.375 C 88.423615 356.26312 87.936744 356.87526 86.71875 357.15625 C 85.319849 357.47896 84.047531 357.18955 82.90625 356.34375 C 82.335425 356.58058 81.971469 356.72164 81.28125 357 C 83.474979 359.97653 85.572805 361.24744 87.59375 360.78125 C 88.583367 360.55294 89.304883 360.00723 89.75 359.15625 C 90.195081 358.30524 90.272182 357.30494 90 356.125 C 89.768197 355.1202 89.326892 354.20207 88.6875 353.375 z M 92.0625 353.875 L 91.9375 355.125 C 93.698922 357.08386 95.230833 358.48332 96.53125 359.3125 C 97.831617 360.14166 99.2255 360.57025 100.6875 360.59375 L 99.21875 356.3125 C 97.091167 356.06835 94.69354 355.2591 92.0625 353.875 z "
     transform="translate(0,-2.0838898e-5)"
     id="path10869" /></g>
<flowRoot
   xml:space="preserve"
   id="flowRoot5139"
   style="fill:none;stroke:#ff0000;stroke-opacity:1;stroke-width:0.03543307;stroke-linejoin:miter;stroke-linecap:butt;fill-opacity:1;font-family:Sans;font-style:normal;font-weight:normal;font-size:40px;line-height:125%;letter-spacing:0px;word-spacing:0px;stroke-miterlimit:4;stroke-dasharray:none"><flowRegion
     id="flowRegion5141"><rect
       id="rect5143"
       width="48.558388"
       height="81.666374"
       x="62.747524"
       y="293.88394"
       style="fill:none;stroke:#ff0000;stroke-opacity:1;stroke-width:0.03543307;stroke-miterlimit:4;stroke-dasharray:none" /></flowRegion><flowPara
     id="flowPara5145" /></flowRoot><path
   sodipodi:type="star"
   style="fill:none;stroke:#ff0000;stroke-width:0.03543307;stroke-miterlimit:4;stroke-opacity:1;stroke-dasharray:none"
   id="path5147"
   sodipodi:sides="5"
   sodipodi:cx="173.42281"
   sodipodi:cy="404.2439"
   sodipodi:r1="17.668853"
   sodipodi:r2="8.8344269"
   sodipodi:arg1="-0.035699113"
   sodipodi:arg2="0.59261942"
   inkscape:flatsided="false"
   inkscape:rounded="0"
   inkscape:randomized="0"
   d="m 191.0804,403.61327 -10.32961,5.56497 -1.27172,11.66415 -8.48463,-8.10437 -11.48626,2.39494 5.08583,-10.57375 -5.82717,-10.184 11.62784,1.56944 7.88486,-8.689 2.10058,11.54371 z"
   transform="translate(0,-2.0838898e-5)"
   inkscape:transform-center-x="-1.5008097"
   inkscape:transform-center-y="-0.19488317" /><path
   sodipodi:type="star"
   style="fill:none;stroke:#ff0000;stroke-width:0.03543307;stroke-miterlimit:4;stroke-opacity:1;stroke-dasharray:none"
   id="path5151"
   sodipodi:sides="5"
   sodipodi:cx="193.2876"
   sodipodi:cy="333.2982"
   sodipodi:r1="4.3804848"
   sodipodi:r2="2.1902424"
   sodipodi:arg1="-0.52807445"
   sodipodi:arg2="0.10024408"
   inkscape:flatsided="false"
   inkscape:rounded="0"
   inkscape:randomized="0"
   d="m 197.07137,331.09099 -1.60453,2.42639 1.08918,2.69732 -2.80346,-0.77619 -2.22874,1.86938 -0.12811,-2.9061 -2.46661,-1.54199 2.72429,-1.01987 0.70429,-2.82238 1.81181,2.27578 z"
   transform="translate(0,-2.0838898e-5)"
   inkscape:transform-center-x="0.28736566"
   inkscape:transform-center-y="-0.13547451" /><path
   sodipodi:type="star"
   style="fill:none;stroke:#ff0000;stroke-width:0.03543307;stroke-miterlimit:4;stroke-opacity:1;stroke-dasharray:none"
   id="path5153"
   sodipodi:sides="5"
   sodipodi:cx="222.92714"
   sodipodi:cy="277.48759"
   sodipodi:r1="4.4256456"
   sodipodi:r2="2.2128228"
   sodipodi:arg1="-0.071307465"
   sodipodi:arg2="0.55701107"
   inkscape:flatsided="false"
   inkscape:rounded="0"
   inkscape:randomized="0"
   d="m 227.34154,277.17227 -2.53607,1.48512 -0.21432,2.93109 -2.19613,-1.95301 -2.85387,0.70192 1.17879,-2.69215 -1.54946,-2.49728 2.92466,0.28917 1.89624,-2.24533 0.62875,2.87087 z"
   transform="translate(0,-2.0838898e-5)"
   inkscape:transform-center-x="-0.32886447"
   inkscape:transform-center-y="-0.097443133" /><path
   sodipodi:type="star"
   style="fill:none;stroke:#ff0000;stroke-width:0.03543307;stroke-miterlimit:4;stroke-opacity:1;stroke-dasharray:none"
   id="path5155"
   sodipodi:sides="5"
   sodipodi:cx="125.17974"
   sodipodi:cy="249.42463"
   sodipodi:r1="5.3973096"
   sodipodi:r2="2.6986548"
   sodipodi:arg1="0.11710874"
   sodipodi:arg2="0.74542728"
   inkscape:flatsided="false"
   inkscape:rounded="0"
   inkscape:randomized="0"
   d="m 130.54008,250.05527 -3.37737,1.19983 -0.9263,3.4624 -2.18477,-2.84131 -3.57918,0.18899 2.02711,-2.95586 -1.28576,-3.3456 3.43759,1.01449 2.78454,-2.25669 0.0974,3.58285 z"
   transform="translate(0,-2.0838898e-5)"
   inkscape:transform-center-x="-0.32652744"
   inkscape:transform-center-y="0.19486977" /></svg>