<?xml version="1.0" encoding="UTF-8" standalone="no"?>
<!-- Generator: Adobe Illustrator 19.0.0, SVG Export Plug-In . SVG Version: 6.00 Build 0)  -->

<svg
   xmlns:dc="http://purl.org/dc/elements/1.1/"
   xmlns:cc="http://creativecommons.org/ns#"
   xmlns:rdf="http://www.w3.org/1999/02/22-rdf-syntax-ns#"
   xmlns:svg="http://www.w3.org/2000/svg"
   xmlns="http://www.w3.org/2000/svg"
   xmlns:sodipodi="http://sodipodi.sourceforge.net/DTD/sodipodi-0.dtd"
   xmlns:inkscape="http://www.inkscape.org/namespaces/inkscape"
   version="1.1"
   id="Abat-jour"
   x="0px"
   y="0px"
   viewBox="0 0 595.3 841.9"
   style="enable-background:new 0 0 595.3 841.9;"
   xml:space="preserve"
   inkscape:version="0.48.4 r9939"
   width="100%"
   height="100%"
   sodipodi:docname="abat.svg"><metadata
   id="metadata4713"><rdf:RDF><cc:Work
       rdf:about=""><dc:format>image/svg+xml</dc:format><dc:type
         rdf:resource="http://purl.org/dc/dcmitype/StillImage" /><dc:title></dc:title></cc:Work></rdf:RDF></metadata><defs
   id="defs4711" /><sodipodi:namedview
   pagecolor="#ffffff"
   bordercolor="#666666"
   borderopacity="1"
   objecttolerance="10"
   gridtolerance="10"
   guidetolerance="10"
   inkscape:pageopacity="0"
   inkscape:pageshadow="2"
   inkscape:window-width="1680"
   inkscape:window-height="987"
   id="namedview4709"
   showgrid="false"
   inkscape:zoom="0.79285996"
   inkscape:cx="-4.2183135"
   inkscape:cy="568.07487"
   inkscape:window-x="-8"
   inkscape:window-y="-8"
   inkscape:window-maximized="1"
   inkscape:current-layer="Abat-jour" />
<style
   type="text/css"
   id="style4600">
	.st0{fill:none;stroke:#FF0000;stroke-width:0.1;stroke-miterlimit:10;}
</style>

<g
   id="Basique"
   style="stroke:#ff0000;stroke-width:0.03543307;stroke-miterlimit:4;stroke-opacity:1;stroke-dasharray:none;fill:none"
   transform="translate(10.090054,2.5225136)">
	<path
   id="XMLID_197_"
   class="st0"
   d="m 84.6,39.1 c -1.3,3.8 0.7,8 4.6,9.3 L 57,37.4 C -10.9,236.1 -6.2,442.1 56.9,626.6 l 31.7,-10.8 c 2.5,-1.3 3.7,-4.3 2.8,-7.1 C 90.3,605.6 87,604 83.9,605 l 33.4,-11.4 c -3.1,1.1 -4.7,4.4 -3.7,7.5 1,2.8 3.8,4.4 6.6,3.9 l 52.9,-18.1 c 2.6,-1.3 3.9,-4.3 3,-7.2 -1.1,-3.1 -4.4,-4.7 -7.5,-3.7 L 202,564.6 c -3.1,1.1 -4.7,4.4 -3.7,7.5 1,2.9 3.9,4.5 6.8,3.8 L 257.6,558 c 2.8,-1.2 4.2,-4.4 3.2,-7.3 -1.1,-3.1 -4.4,-4.7 -7.5,-3.7 l 33.4,-11.4 c -3.1,1.1 -4.7,4.4 -3.7,7.5 1,3 4.2,4.6 7.3,3.7 l 23.2,-7.9 C 269.2,409.3 265.6,264.3 312.7,124.6 l -23.4,-8 c 3.8,1.3 8,-0.7 9.3,-4.6 1.3,-3.8 -0.7,-8 -4.6,-9.3 L 263.4,92.2 c -3.8,-1.3 -8,0.7 -9.3,4.6 -1.3,3.8 0.7,8 4.6,9.3 L 204.6,87.6 c 3.8,1.3 8,-0.7 9.3,-4.6 1.3,-3.8 -0.7,-8 -4.6,-9.3 L 178.7,63.2 c -3.8,-1.3 -8,0.7 -9.3,4.6 -1.3,3.8 0.7,8 4.6,9.3 L 119.9,58.6 c 3.8,1.3 8,-0.7 9.3,-4.6 1.3,-3.8 -0.7,-8 -4.6,-9.3 L 93.9,34.5 c -3.8,-1.3 -8,0.7 -9.3,4.6 z"
   style="fill:none;stroke:#ff0000;stroke-width:0.03543307;stroke-miterlimit:4;stroke-opacity:1;stroke-dasharray:none"
   inkscape:connector-curvature="0" />
	<line
   id="XMLID_196_"
   class="st0"
   x1="83.900002"
   y1="605"
   x2="76.900002"
   y2="607.40002"
   style="fill:none;stroke:#ff0000;stroke-width:0.03543307;stroke-miterlimit:4;stroke-opacity:1;stroke-dasharray:none" />
	<line
   id="XMLID_195_"
   class="st0"
   x1="117.3"
   y1="593.59998"
   x2="124.3"
   y2="591.20001"
   style="fill:none;stroke:#ff0000;stroke-width:0.03543307;stroke-miterlimit:4;stroke-opacity:1;stroke-dasharray:none" />
	<line
   id="XMLID_194_"
   class="st0"
   x1="168.7"
   y1="576.09998"
   x2="161.7"
   y2="578.5"
   style="fill:none;stroke:#ff0000;stroke-width:0.03543307;stroke-miterlimit:4;stroke-opacity:1;stroke-dasharray:none" />
	<line
   id="XMLID_193_"
   class="st0"
   x1="202.10001"
   y1="564.70001"
   x2="209.10001"
   y2="562.29999"
   style="fill:none;stroke:#ff0000;stroke-width:0.03543307;stroke-miterlimit:4;stroke-opacity:1;stroke-dasharray:none" />
	<line
   id="XMLID_192_"
   class="st0"
   x1="253.5"
   y1="547.09998"
   x2="246.5"
   y2="549.5"
   style="fill:none;stroke:#ff0000;stroke-width:0.03543307;stroke-miterlimit:4;stroke-opacity:1;stroke-dasharray:none" />
	<line
   id="XMLID_191_"
   class="st0"
   x1="286.89999"
   y1="535.70001"
   x2="293.79999"
   y2="533.29999"
   style="fill:none;stroke:#ff0000;stroke-width:0.03543307;stroke-miterlimit:4;stroke-opacity:1;stroke-dasharray:none" />
</g>
<path
   style="fill:none;stroke:#ff0000;stroke-width:0.03543307;stroke-linecap:butt;stroke-linejoin:miter;stroke-opacity:1;stroke-miterlimit:4;stroke-dasharray:none"
   d="m 105.94557,125.50615 c 0,388.46709 143.78327,229.54873 143.78327,229.54873 z"
   id="path5231"
   inkscape:connector-curvature="0"
   transform="translate(0,-2.0838898e-5)" /><path
   style="fill:none;stroke:#ff0000;stroke-width:0.03543307;stroke-linecap:butt;stroke-linejoin:miter;stroke-opacity:1;stroke-miterlimit:4;stroke-dasharray:none"
   d="m 196.75606,455.95543 c -110.990599,-55.4953 -25.22514,63.06283 -25.22514,63.06283 z"
   id="path5233"
   inkscape:connector-curvature="0"
   transform="translate(0,-2.0838898e-5)" /><path
   sodipodi:type="arc"
   style="fill:none;stroke:#ff0000;stroke-width:0.03543307;stroke-miterlimit:4;stroke-opacity:1;stroke-dasharray:none"
   id="path5241"
   sodipodi:cx="230.81"
   sodipodi:cy="162.0826"
   sodipodi:rx="21.441364"
   sodipodi:ry="23.963879"
   d="m 252.25136,162.0826 a 21.441364,23.963879 0 1 1 -42.88273,0 21.441364,23.963879 0 1 1 42.88273,0 z"
   transform="translate(0,-2.0838898e-5)" /><g
   style="font-size:40px;font-style:normal;font-weight:normal;line-height:125%;letter-spacing:0px;word-spacing:0px;fill:none;fill-opacity:1;stroke:#ff0000;font-family:Sans;stroke-opacity:1;stroke-width:0.03543307;stroke-miterlimit:4;stroke-dasharray:none"
   id="text5249"><path
     d="m 104.45985,392.85648 c -1.3021,1.10677 -2.55536,1.88802 -3.75977,2.34375 -1.204437,0.45572 -2.496754,0.68359 -3.876952,0.68359 -2.278652,0 -4.029953,-0.55664 -5.253907,-1.66992 -1.22396,-1.11328 -1.835938,-2.53581 -1.835937,-4.26758 -10e-7,-1.01562 0.231118,-1.94335 0.693359,-2.7832 0.462237,-0.83984 1.067705,-1.51367 1.816407,-2.02149 0.748693,-0.5078 1.591791,-0.89191 2.529296,-1.15234 0.690097,-0.18228 1.731763,-0.35806 3.125,-0.52735 2.838534,-0.33852 4.928374,-0.74217 6.269534,-1.21093 0.013,-0.48176 0.0195,-0.78775 0.0195,-0.91797 -2e-5,-1.43228 -0.33205,-2.44139 -0.99609,-3.02735 -0.89846,-0.79425 -2.23309,-1.19138 -4.003911,-1.1914 -1.653655,2e-5 -2.874357,0.28973 -3.662109,0.86914 -0.787767,0.57944 -1.370449,1.60483 -1.748047,3.07617 l -3.4375,-0.46875 c 0.312497,-1.47134 0.82682,-2.65949 1.542968,-3.56445 0.716142,-0.90493 1.751297,-1.60154 3.105469,-2.08985 1.354159,-0.48826 2.923168,-0.7324 4.707031,-0.73242 1.770819,2e-5 3.209619,0.20836 4.316409,0.625 1.10675,0.41669 1.92055,0.94078 2.4414,1.57227 0.52082,0.63153 0.8854,1.42905 1.09375,2.39258 0.11717,0.59897 0.17577,1.6797 0.17579,3.24218 l 0,4.6875 c -2e-5,3.26824 0.0748,5.33529 0.2246,6.20118 0.14972,0.86588 0.44595,1.69596 0.88868,2.49023 l -3.67188,0 c -0.3646,-0.72917 -0.59897,-1.58203 -0.70312,-2.55859 z m -0.29297,-7.85157 c -1.27606,0.52085 -3.19012,0.96355 -5.74219,1.32813 -1.445321,0.20834 -2.467455,0.44272 -3.066406,0.70312 -0.598965,0.26043 -1.061204,0.64129 -1.386719,1.14258 -0.325526,0.50131 -0.488286,1.05795 -0.488281,1.66992 -5e-6,0.93751 0.354812,1.71876 1.064453,2.34375 0.709629,0.62501 1.748039,0.93751 3.115234,0.9375 1.354156,1e-5 2.558579,-0.29622 3.613279,-0.88867 1.05468,-0.59244 1.82942,-1.40299 2.32422,-2.43164 0.37759,-0.79426 0.56639,-1.96614 0.56641,-3.51562 z"
     style="stroke:#ff0000;stroke-opacity:1;fill:none;stroke-width:0.03543307;stroke-miterlimit:4;stroke-dasharray:none"
     id="path11618" /></g>
</svg>