<?xml version="1.0" encoding="UTF-8" standalone="no"?>
<!-- Generator: Adobe Illustrator 19.0.0, SVG Export Plug-In . SVG Version: 6.00 Build 0)  -->

<svg
   xmlns:dc="http://purl.org/dc/elements/1.1/"
   xmlns:cc="http://creativecommons.org/ns#"
   xmlns:rdf="http://www.w3.org/1999/02/22-rdf-syntax-ns#"
   xmlns:svg="http://www.w3.org/2000/svg"
   xmlns="http://www.w3.org/2000/svg"
   xmlns:sodipodi="http://sodipodi.sourceforge.net/DTD/sodipodi-0.dtd"
   xmlns:inkscape="http://www.inkscape.org/namespaces/inkscape"
   version="1.1"
   id="Abat-jour"
   x="0px"
   y="0px"
   viewBox="0 0 595.3 841.9"
   style="enable-background:new 0 0 595.3 841.9;"
   xml:space="preserve"
   inkscape:version="0.48.4 r9939"
   width="100%"
   height="100%"
   sodipodi:docname="abat.svg"><metadata
   id="metadata4109"><rdf:RDF><cc:Work
       rdf:about=""><dc:format>image/svg+xml</dc:format><dc:type
         rdf:resource="http://purl.org/dc/dcmitype/StillImage" /><dc:title></dc:title></cc:Work></rdf:RDF></metadata><defs
   id="defs4107">
	
	
	
	
	
	
	
	

</defs><sodipodi:namedview
   pagecolor="#ffffff"
   bordercolor="#666666"
   borderopacity="1"
   objecttolerance="10"
   gridtolerance="10"
   guidetolerance="10"
   inkscape:pageopacity="0"
   inkscape:pageshadow="2"
   inkscape:window-width="1680"
   inkscape:window-height="987"
   id="namedview4105"
   showgrid="false"
   inkscape:zoom="1.1212733"
   inkscape:cx="154.38802"
   inkscape:cy="504.20861"
   inkscape:window-x="-8"
   inkscape:window-y="-8"
   inkscape:window-maximized="1"
   inkscape:current-layer="Abat-jour" />
<style
   type="text/css"
   id="style3996">
	.st0{fill:none;stroke:#FF0000;stroke-width:0.1;stroke-miterlimit:10;}
</style>
<text
   sodipodi:linespacing="125%"
   id="text4807"
   y="353.79361"
   x="369.54825"
   style="font-size:40px;font-style:normal;font-weight:normal;line-height:125%;letter-spacing:0px;word-spacing:0px;fill:none;fill-opacity:1;stroke:#ff0000;font-family:Sans;stroke-opacity:1;stroke-width:0.03543307;stroke-miterlimit:4;stroke-dasharray:none"
   xml:space="preserve"><tspan
     id="tspan4815"
     y="353.79361"
     x="369.54825"
     sodipodi:role="line" /></text>
<path
   d="m 182.58704,232.97174 -3.69198,2.91947 c -2.94959,-2.29794 -4.63032,-4.79045 -5.04217,-7.47755 -0.41182,-2.68715 0.41166,-5.37109 2.47047,-8.05183 2.13074,-2.77441 4.56984,-4.71106 7.3173,-5.80995 2.74746,-1.0989 5.80878,-1.49561 9.18394,-1.19013 3.37515,0.30547 6.59952,1.15403 9.67311,2.54568 3.35165,1.51754 5.88187,3.35341 7.59067,5.50761 1.70876,2.15417 2.48482,4.46979 2.32819,6.94686 -0.1567,2.47703 -1.1071,4.85107 -2.85123,7.12212 -1.97792,2.57537 -4.46078,4.36993 -7.44857,5.38371 -2.98782,1.01371 -6.23249,1.19329 -9.73404,0.53874 l 1.58782,-3.80118 c 2.80028,0.46324 5.17067,0.369 7.11119,-0.28272 1.9405,-0.65178 3.57155,-1.83807 4.89316,-3.55888 1.51937,-1.97839 2.19651,-3.9003 2.03142,-5.76573 -0.16513,-1.86546 -1.0398,-3.51971 -2.62405,-4.96275 -1.58427,-1.44308 -3.43753,-2.64506 -5.55974,-3.60593 -2.73696,-1.23924 -5.37128,-2.00209 -7.903,-2.28852 -2.5317,-0.28647 -4.81946,0.0148 -6.86325,0.90378 -2.04379,0.88896 -3.66805,2.11777 -4.87277,3.68643 -1.46544,1.90812 -2.01823,3.83506 -1.65836,5.78082 0.35987,1.94572 1.71384,3.7657 4.06189,5.45995 z"
   style="font-size:46.68162536999999200px;font-style:normal;font-weight:normal;line-height:125%;letter-spacing:0px;word-spacing:0px;fill:none;fill-opacity:1;stroke:#ff0000;font-family:Sans;stroke-opacity:1;stroke-width:0.03543307;stroke-miterlimit:4;stroke-dasharray:none"
   id="path4877"
   inkscape:connector-curvature="0" /><path
   d="m 181.92073,241.54462 c 5.34214,2.4188 8.64334,5.45965 9.90358,9.12256 1.26019,3.66286 0.49678,7.30879 -2.29023,10.93778 -1.82509,2.37635 -4.18018,4.19721 -7.06532,5.46257 -2.88515,1.26529 -5.98174,1.82352 -9.28978,1.67469 -3.30804,-0.14891 -6.57203,-0.9523 -9.79197,-2.41018 -3.26384,-1.47782 -5.77917,-3.32666 -7.54599,-5.54653 -1.76679,-2.21993 -2.57076,-4.59552 -2.41191,-7.12677 0.15887,-2.5313 1.09689,-4.91489 2.81405,-7.15079 1.86104,-2.42323 4.25607,-4.25756 7.18513,-5.50299 2.92904,-1.24545 6.03719,-1.78662 9.32442,-1.62349 3.28724,0.1631 6.34324,0.88416 9.16802,2.16315 z m -2.76302,3.48207 c -3.87857,-1.75613 -7.57442,-2.30541 -11.08756,-1.64785 -3.51314,0.65755 -6.23618,2.24476 -8.16914,4.76163 -1.9689,2.56367 -2.46245,5.18401 -1.48066,7.86101 0.98181,2.67697 3.54373,4.95316 7.68573,6.82859 2.61986,1.18618 5.1787,1.86751 7.67655,2.044 2.49783,0.17642 4.80832,-0.17371 6.93147,-1.05039 2.12312,-0.87675 3.8365,-2.16381 5.14014,-3.8612 1.85201,-2.41153 2.41006,-4.95533 1.67416,-7.6314 -0.73594,-2.67612 -3.52617,-5.11091 -8.37069,-7.30439 z"
   style="font-size:46.68162536999999200px;font-style:normal;font-weight:normal;line-height:125%;letter-spacing:0px;word-spacing:0px;fill:none;fill-opacity:1;stroke:#ff0000;font-family:Sans;stroke-opacity:1;stroke-width:0.03543307;stroke-miterlimit:4;stroke-dasharray:none"
   id="path4879"
   inkscape:connector-curvature="0" /><path
   d="m 143.94015,263.49067 32.18475,14.5725 -8.76571,11.41368 c -1.76214,2.29442 -3.39078,3.90778 -4.88592,4.8401 -1.49516,0.93225 -3.24875,1.42409 -5.26076,1.47552 -2.01205,0.0514 -3.90354,-0.32386 -5.6745,-1.12568 -2.28323,-1.03382 -3.75385,-2.49642 -4.41188,-4.38781 -0.65802,-1.89144 -0.25076,-4.16825 1.22178,-6.83045 -1.2338,0.65618 -2.29396,1.09911 -3.18047,1.32882 -1.90581,0.47812 -4.05655,0.77436 -6.45226,0.88872 l -12.19854,0.51149 3.2905,-4.28451 9.31224,-0.37475 c 2.69615,-0.12032 4.80373,-0.27045 6.32273,-0.45039 1.519,-0.17999 2.67895,-0.43182 3.47985,-0.75547 0.80088,-0.32369 1.48412,-0.71247 2.04969,-1.16634 0.39913,-0.33994 0.93584,-0.94889 1.61013,-1.82685 l 3.03428,-3.95089 -14.29213,-6.47114 z m 15.3642,11.54766 -5.62353,7.32232 c -1.19573,1.55692 -1.92949,2.8655 -2.20129,3.92573 -0.27179,1.0602 -0.14026,2.01904 0.3946,2.87654 0.53484,0.85745 1.32186,1.52143 2.36102,1.99197 1.52215,0.68916 3.11292,0.81385 4.77233,0.37405 1.65938,-0.43986 3.2218,-1.61384 4.68726,-3.52194 l 6.25736,-8.14762 z"
   style="font-size:46.68162536999999200px;font-style:normal;font-weight:normal;line-height:125%;letter-spacing:0px;word-spacing:0px;fill:none;fill-opacity:1;stroke:#ff0000;font-family:Sans;stroke-opacity:1;stroke-width:0.03543307;stroke-miterlimit:4;stroke-dasharray:none"
   id="path4881"
   inkscape:connector-curvature="0" /><path
   d="m 123.96785,289.49631 32.18474,14.5725 -14.29483,18.61308 -3.79806,-1.71967 11.6786,-15.20654 -9.8574,-4.4632 -10.93689,14.24076 -3.77611,-1.70973 10.93689,-14.24077 -10.95511,-4.96021 -12.13712,15.80356 -3.79806,-1.71967 z"
   style="font-size:46.68162536999999200px;font-style:normal;font-weight:normal;line-height:125%;letter-spacing:0px;word-spacing:0px;fill:none;fill-opacity:1;stroke:#ff0000;font-family:Sans;stroke-opacity:1;stroke-width:0.03543307;stroke-miterlimit:4;stroke-dasharray:none"
   id="path4883"
   inkscape:connector-curvature="0" /><path
   d="m 105.60033,313.41237 32.18475,14.5725 -2.68366,3.49434 -35.653165,2.07953 25.269195,11.44129 -2.50834,3.26607 -32.184746,-14.57249 2.683653,-3.49435 35.675133,-2.06958 -25.29116,-11.45124 z"
   style="font-size:46.68162536999999200px;font-style:normal;font-weight:normal;line-height:125%;letter-spacing:0px;word-spacing:0px;fill:none;fill-opacity:1;stroke:#ff0000;font-family:Sans;stroke-opacity:1;stroke-width:0.03543307;stroke-miterlimit:4;stroke-dasharray:none"
   id="path4885"
   inkscape:connector-curvature="0" /><path
   d="m 80.584378,345.98527 28.386682,12.85282 6.51359,-8.48125 3.79806,1.71968 -15.67037,20.40415 -3.79806,-1.71967 6.54056,-8.51636 -28.386686,-12.85282 z"
   style="font-size:46.68162536999999200px;font-style:normal;font-weight:normal;line-height:125%;letter-spacing:0px;word-spacing:0px;fill:none;fill-opacity:1;stroke:#ff0000;font-family:Sans;stroke-opacity:1;stroke-width:0.03543307;stroke-miterlimit:4;stroke-dasharray:none"
   id="path4887"
   inkscape:connector-curvature="0" /><path
   d="m 68.285424,361.99955 32.184746,14.5725 -2.616226,3.40654 L 65.6692,365.4061 z"
   style="font-size:46.68162536999999200px;font-style:normal;font-weight:normal;line-height:125%;letter-spacing:0px;word-spacing:0px;fill:none;fill-opacity:1;stroke:#ff0000;font-family:Sans;stroke-opacity:1;stroke-width:0.03543307;stroke-miterlimit:4;stroke-dasharray:none"
   id="path4889"
   inkscape:connector-curvature="0" /><path
   d="m 61.097554,371.35877 32.184745,14.57249 -2.683654,3.49435 -35.653168,2.07952 25.269192,11.4413 -2.508339,3.26607 -32.184744,-14.5725 2.683647,-3.49433 35.675135,-2.06959 -25.291152,-11.45124 z"
   style="font-size:46.68162536999999200px;font-style:normal;font-weight:normal;line-height:125%;letter-spacing:0px;word-spacing:0px;fill:none;fill-opacity:1;stroke:#ff0000;font-family:Sans;stroke-opacity:1;stroke-width:0.03543307;stroke-miterlimit:4;stroke-dasharray:none"
   id="path4891"
   inkscape:connector-curvature="0" /><flowRoot
   style="font-size:40px;font-style:normal;font-weight:normal;line-height:125%;letter-spacing:0px;word-spacing:0px;fill:none;fill-opacity:1;stroke:#ff0000;font-family:Sans;stroke-opacity:1;stroke-width:0.03543307;stroke-miterlimit:4;stroke-dasharray:none"
   id="flowRoot4853"
   xml:space="preserve"><flowRegion
     id="flowRegion4855"><rect
       y="175.95642"
       x="83.24295"
       height="95.855515"
       width="41.621475"
       id="rect4857"
       style="fill:none;stroke:#ff0000;stroke-opacity:1;stroke-width:0.03543307;stroke-miterlimit:4;stroke-dasharray:none" /></flowRegion><flowPara
     id="flowPara4859" /></flowRoot><path
   inkscape:transform-center-y="6.1143332"
   inkscape:transform-center-x="1.1692514"
   transform="translate(2.5225136,10.090034)"
   d="m 99.639289,211.27161 -19.987245,-46.17608 -49.369825,-9.71291 37.739669,-33.2782 -6.018586,-49.954948 43.311638,25.609031 45.65014,-21.160944 -10.9716,49.105441 34.23192,36.87677 -50.09247,4.73981 z"
   inkscape:randomized="0"
   inkscape:rounded="0"
   inkscape:flatsided="false"
   sodipodi:arg2="2.2490733"
   sodipodi:arg1="1.6207547"
   sodipodi:r2="37.884972"
   sodipodi:r1="75.769943"
   sodipodi:cy="135.59621"
   sodipodi:cx="103.42306"
   sodipodi:sides="5"
   id="path4861"
   style="fill:none;stroke:#ff0000;stroke-width:0.03543307;stroke-miterlimit:4;stroke-opacity:1;stroke-dasharray:none"
   sodipodi:type="star" /><path
   inkscape:transform-center-y="4.761426"
   inkscape:transform-center-x="-2.3384952"
   transform="translate(-5.0450271,31.531399)"
   d="m 175.31469,522.80203 -26.0055,-41.33788 -48.79608,-2.01236 31.27852,-37.50681 -13.16494,-47.02968 45.33668,18.15739 40.6597,-27.05357 -3.25891,48.7287 38.29402,30.30965 -47.3508,11.95859 z"
   inkscape:randomized="0"
   inkscape:rounded="0"
   inkscape:flatsided="false"
   sodipodi:arg2="2.0960332"
   sodipodi:arg1="1.4677147"
   sodipodi:r2="36.771637"
   sodipodi:r1="73.543274"
   sodipodi:cy="449.64914"
   sodipodi:cx="167.74715"
   sodipodi:sides="5"
   id="path4863"
   style="fill:none;stroke:#ff0000;stroke-width:0.03543307;stroke-miterlimit:4;stroke-opacity:1;stroke-dasharray:none"
   sodipodi:type="star" /><path
   sodipodi:open="true"
   sodipodi:end="0.3287927"
   sodipodi:start="0"
   transform="translate(0,-2.0838898e-5)"
   d="m 191.71103,501.9913 a 51.080898,30.900791 0 0 1 -2.73626,9.97789"
   sodipodi:ry="30.900791"
   sodipodi:rx="51.080898"
   sodipodi:cy="501.9913"
   sodipodi:cx="140.63013"
   id="path4874"
   style="fill:none;stroke:#ff0000;stroke-width:0.03543307;stroke-miterlimit:4;stroke-opacity:1;stroke-dasharray:none"
   sodipodi:type="arc" />
<g
   id="Basique"
   style="stroke:#ff0000;stroke-width:0.03543307;stroke-miterlimit:4;stroke-opacity:1;stroke-dasharray:none;fill:none"
   transform="translate(-2.5225136,11.351311)">
	<path
   id="XMLID_197_"
   class="st0"
   d="m 84.6,39.1 c -1.3,3.8 0.7,8 4.6,9.3 L 57,37.4 C -10.9,236.1 -6.2,442.1 56.9,626.6 l 31.7,-10.8 c 2.5,-1.3 3.7,-4.3 2.8,-7.1 C 90.3,605.6 87,604 83.9,605 l 33.4,-11.4 c -3.1,1.1 -4.7,4.4 -3.7,7.5 1,2.8 3.8,4.4 6.6,3.9 l 52.9,-18.1 c 2.6,-1.3 3.9,-4.3 3,-7.2 -1.1,-3.1 -4.4,-4.7 -7.5,-3.7 L 202,564.6 c -3.1,1.1 -4.7,4.4 -3.7,7.5 1,2.9 3.9,4.5 6.8,3.8 L 257.6,558 c 2.8,-1.2 4.2,-4.4 3.2,-7.3 -1.1,-3.1 -4.4,-4.7 -7.5,-3.7 l 33.4,-11.4 c -3.1,1.1 -4.7,4.4 -3.7,7.5 1,3 4.2,4.6 7.3,3.7 l 23.2,-7.9 C 269.2,409.3 265.6,264.3 312.7,124.6 l -23.4,-8 c 3.8,1.3 8,-0.7 9.3,-4.6 1.3,-3.8 -0.7,-8 -4.6,-9.3 L 263.4,92.2 c -3.8,-1.3 -8,0.7 -9.3,4.6 -1.3,3.8 0.7,8 4.6,9.3 L 204.6,87.6 c 3.8,1.3 8,-0.7 9.3,-4.6 1.3,-3.8 -0.7,-8 -4.6,-9.3 L 178.7,63.2 c -3.8,-1.3 -8,0.7 -9.3,4.6 -1.3,3.8 0.7,8 4.6,9.3 L 119.9,58.6 c 3.8,1.3 8,-0.7 9.3,-4.6 1.3,-3.8 -0.7,-8 -4.6,-9.3 L 93.9,34.5 c -3.8,-1.3 -8,0.7 -9.3,4.6 z"
   style="fill:none;stroke:#ff0000;stroke-width:0.03543307;stroke-miterlimit:4;stroke-opacity:1;stroke-dasharray:none"
   inkscape:connector-curvature="0" />
	<line
   id="XMLID_196_"
   class="st0"
   x1="83.900002"
   y1="605"
   x2="76.900002"
   y2="607.40002"
   style="fill:none;stroke:#ff0000;stroke-width:0.03543307;stroke-miterlimit:4;stroke-opacity:1;stroke-dasharray:none" />
	<line
   id="XMLID_195_"
   class="st0"
   x1="117.3"
   y1="593.59998"
   x2="124.3"
   y2="591.20001"
   style="fill:none;stroke:#ff0000;stroke-width:0.03543307;stroke-miterlimit:4;stroke-opacity:1;stroke-dasharray:none" />
	<line
   id="XMLID_194_"
   class="st0"
   x1="168.7"
   y1="576.09998"
   x2="161.7"
   y2="578.5"
   style="fill:none;stroke:#ff0000;stroke-width:0.03543307;stroke-miterlimit:4;stroke-opacity:1;stroke-dasharray:none" />
	<line
   id="XMLID_193_"
   class="st0"
   x1="202.10001"
   y1="564.70001"
   x2="209.10001"
   y2="562.29999"
   style="fill:none;stroke:#ff0000;stroke-width:0.03543307;stroke-miterlimit:4;stroke-opacity:1;stroke-dasharray:none" />
	<line
   id="XMLID_192_"
   class="st0"
   x1="253.5"
   y1="547.09998"
   x2="246.5"
   y2="549.5"
   style="fill:none;stroke:#ff0000;stroke-width:0.03543307;stroke-miterlimit:4;stroke-opacity:1;stroke-dasharray:none" />
	<line
   id="XMLID_191_"
   class="st0"
   x1="286.89999"
   y1="535.70001"
   x2="293.79999"
   y2="533.29999"
   style="fill:none;stroke:#ff0000;stroke-width:0.03543307;stroke-miterlimit:4;stroke-opacity:1;stroke-dasharray:none" />
</g>
</svg>