<?xml version="1.0" encoding="UTF-8" standalone="no"?>
<!-- Generator: Adobe Illustrator 19.0.0, SVG Export Plug-In . SVG Version: 6.00 Build 0)  -->

<svg
   xmlns:dc="http://purl.org/dc/elements/1.1/"
   xmlns:cc="http://creativecommons.org/ns#"
   xmlns:rdf="http://www.w3.org/1999/02/22-rdf-syntax-ns#"
   xmlns:svg="http://www.w3.org/2000/svg"
   xmlns="http://www.w3.org/2000/svg"
   xmlns:sodipodi="http://sodipodi.sourceforge.net/DTD/sodipodi-0.dtd"
   xmlns:inkscape="http://www.inkscape.org/namespaces/inkscape"
   version="1.1"
   id="Abat-jour"
   x="0px"
   y="0px"
   viewBox="0 0 595.3 841.9"
   style="enable-background:new 0 0 595.3 841.9;"
   xml:space="preserve"
   inkscape:version="0.48.4 r9939"
   width="100%"
   height="100%"
   sodipodi:docname="abat.svg"><metadata
   id="metadata4606"><rdf:RDF><cc:Work
       rdf:about=""><dc:format>image/svg+xml</dc:format><dc:type
         rdf:resource="http://purl.org/dc/dcmitype/StillImage" /><dc:title></dc:title></cc:Work></rdf:RDF></metadata><defs
   id="defs4604" /><sodipodi:namedview
   pagecolor="#ffffff"
   bordercolor="#666666"
   borderopacity="1"
   objecttolerance="10"
   gridtolerance="10"
   guidetolerance="10"
   inkscape:pageopacity="0"
   inkscape:pageshadow="2"
   inkscape:window-width="1680"
   inkscape:window-height="987"
   id="namedview4602"
   showgrid="false"
   inkscape:zoom="1.1212733"
   inkscape:cx="365.79122"
   inkscape:cy="550.27103"
   inkscape:window-x="-8"
   inkscape:window-y="-8"
   inkscape:window-maximized="1"
   inkscape:current-layer="Abat-jour" />
<style
   type="text/css"
   id="style4493">
	.st0{fill:none;stroke:#FF0000;stroke-width:0.1;stroke-miterlimit:10;}
</style>

<g
   id="Basique"
   style="stroke:#ff0000;stroke-opacity:1;stroke-width:0.03543307;stroke-miterlimit:4;stroke-dasharray:none;fill:none">
	<path
   id="XMLID_197_"
   class="st0"
   d="M84.6,39.1c-1.3,3.8,0.7,8,4.6,9.3L57,37.4c-67.9,198.7-63.2,404.7-0.1,589.2l31.7-10.8   c2.5-1.3,3.7-4.3,2.8-7.1c-1.1-3.1-4.4-4.7-7.5-3.7l33.4-11.4c-3.1,1.1-4.7,4.4-3.7,7.5c1,2.8,3.8,4.4,6.6,3.9l52.9-18.1   c2.6-1.3,3.9-4.3,3-7.2c-1.1-3.1-4.4-4.7-7.5-3.7l33.4-11.4c-3.1,1.1-4.7,4.4-3.7,7.5c1,2.9,3.9,4.5,6.8,3.8l52.5-17.9   c2.8-1.2,4.2-4.4,3.2-7.3c-1.1-3.1-4.4-4.7-7.5-3.7l33.4-11.4c-3.1,1.1-4.7,4.4-3.7,7.5c1,3,4.2,4.6,7.3,3.7l23.2-7.9   c-44.3-129.6-47.9-274.6-0.8-414.3l-23.4-8c3.8,1.3,8-0.7,9.3-4.6c1.3-3.8-0.7-8-4.6-9.3l-30.6-10.5c-3.8-1.3-8,0.7-9.3,4.6   c-1.3,3.8,0.7,8,4.6,9.3l-54.1-18.5c3.8,1.3,8-0.7,9.3-4.6c1.3-3.8-0.7-8-4.6-9.3l-30.6-10.5c-3.8-1.3-8,0.7-9.3,4.6   c-1.3,3.8,0.7,8,4.6,9.3l-54.1-18.5c3.8,1.3,8-0.7,9.3-4.6c1.3-3.8-0.7-8-4.6-9.3L93.9,34.5C90.1,33.2,85.9,35.2,84.6,39.1z"
   style="stroke:#ff0000;stroke-opacity:1;stroke-width:0.03543307;stroke-miterlimit:4;stroke-dasharray:none;fill:none" />
	<line
   id="XMLID_196_"
   class="st0"
   x1="83.9"
   y1="605"
   x2="76.9"
   y2="607.4"
   style="stroke:#ff0000;stroke-opacity:1;stroke-width:0.03543307;stroke-miterlimit:4;stroke-dasharray:none;fill:none" />
	<line
   id="XMLID_195_"
   class="st0"
   x1="117.3"
   y1="593.6"
   x2="124.3"
   y2="591.2"
   style="stroke:#ff0000;stroke-opacity:1;stroke-width:0.03543307;stroke-miterlimit:4;stroke-dasharray:none;fill:none" />
	<line
   id="XMLID_194_"
   class="st0"
   x1="168.7"
   y1="576.1"
   x2="161.7"
   y2="578.5"
   style="stroke:#ff0000;stroke-opacity:1;stroke-width:0.03543307;stroke-miterlimit:4;stroke-dasharray:none;fill:none" />
	<line
   id="XMLID_193_"
   class="st0"
   x1="202.1"
   y1="564.7"
   x2="209.1"
   y2="562.3"
   style="stroke:#ff0000;stroke-opacity:1;stroke-width:0.03543307;stroke-miterlimit:4;stroke-dasharray:none;fill:none" />
	<line
   id="XMLID_192_"
   class="st0"
   x1="253.5"
   y1="547.1"
   x2="246.5"
   y2="549.5"
   style="stroke:#ff0000;stroke-opacity:1;stroke-width:0.03543307;stroke-miterlimit:4;stroke-dasharray:none;fill:none" />
	<line
   id="XMLID_191_"
   class="st0"
   x1="286.9"
   y1="535.7"
   x2="293.8"
   y2="533.3"
   style="stroke:#ff0000;stroke-opacity:1;stroke-width:0.03543307;stroke-miterlimit:4;stroke-dasharray:none;fill:none" />
</g>
<g
   id="g5199"
   transform="matrix(0.97242584,0,0,1.0490588,-15.83377,-10.501596)"
   style="fill:none;stroke:#ff0000;stroke-opacity:1;stroke-width:0.0350817;stroke-miterlimit:4;stroke-dasharray:none"><path
     d="m 86.980234,191.56369 c -0.386572,14.08488 2.436697,26.21238 8.469807,36.38254 6.033109,10.16992 13.396889,18.46423 22.091369,24.88292 0.47225,0.30741 0.8422,0.40939 1.10989,0.30594 0.26764,-0.10374 0.50285,-0.3092 0.70564,-0.61637 l 2.12422,-2.50024 c 0.31372,-0.27686 0.42672,-0.53853 0.33898,-0.785 -0.0878,-0.24675 -0.37383,-0.52832 -0.85814,-0.8447 -6.49779,-5.00606 -12.01652,-11.85514 -16.55621,-20.54729 -4.539717,-8.69237 -6.650016,-18.72945 -6.330923,-30.11127 0.07876,-6.62436 1.292996,-12.95394 3.642673,-18.98877 2.34965,-6.03498 7.35719,-12.22554 15.02264,-18.57168 9.29854,-7.17948 18.79847,-11.868 28.49985,-14.06557 9.70126,-2.19764 17.61102,-3.05619 23.72929,-2.57565 9.92703,0.386 19.42008,2.50283 28.47916,6.35029 9.05887,3.84738 16.40027,9.61389 22.02422,17.29958 5.62371,7.68556 8.24646,17.47872 7.86825,29.37953 -0.49302,7.83145 -2.31484,14.48156 -5.4655,19.95038 -3.15089,5.46861 -7.02574,10.16196 -11.62453,14.08008 -4.57884,3.93142 -9.1154,7.01303 -13.60967,9.24487 -4.49446,2.23157 -8.46273,3.93821 -11.90483,5.1199 -0.79144,0.24442 -1.29598,0.50326 -1.51363,0.77656 -0.21783,0.273 -0.27842,0.65423 -0.18177,1.14366 l 0.64918,3.0395 c 0.0883,0.40104 0.30829,0.67096 0.65986,0.80974 0.35138,0.1385 0.78326,0.16839 1.29562,0.0897 2.18498,-0.26861 6.1056,-0.65475 11.76192,-1.15838 5.65611,-0.5039 11.20979,-0.9571 16.66108,-1.35957 5.45106,-0.40277 8.96164,-0.58658 10.53172,-0.55146 1.3539,0.0883 2.24215,-0.009 2.66472,-0.29314 0.42232,-0.28396 0.63458,-0.86646 0.63676,-1.74746 0.068,-0.86963 0.0483,-1.4804 -0.0591,-1.83228 -0.10767,-0.35215 -0.44399,-0.62787 -1.009,-0.82716 l -5.70662,-1.88835 c -0.70202,-0.21473 -1.05669,-0.62501 -1.06398,-1.23085 -0.008,-0.60611 0.41328,-1.52903 1.2625,-2.76876 2.47359,-3.58138 5.09218,-8.82185 7.85576,-15.72145 2.7633,-6.89981 4.4709,-14.94224 5.12278,-24.12732 0.37869,-10.9906 -1.14758,-20.87326 -4.57881,-29.64802 -3.4315,-8.77487 -7.79519,-15.89213 -13.09108,-21.35182 -7.32256,-7.53214 -15.45258,-13.14988 -24.39003,-16.85323 -8.93767,-3.7034 -18.0943,-5.7638 -27.4699,-6.18118 -9.85919,-0.49997 -19.95604,0.76741 -30.29056,3.80217 -10.33462,3.03472 -19.21351,7.97139 -26.63669,14.81001 -5.85772,5.60518 -10.635269,12.36686 -14.332641,20.28507 -3.697381,7.9181 -5.875473,17.71628 -6.534305,29.39457 z"
     style="font-size:144px;font-style:normal;font-variant:normal;font-weight:normal;font-stretch:normal;line-height:125%;letter-spacing:0px;word-spacing:0px;fill:none;fill-opacity:1;stroke:#ff0000;font-family:Adobe Caslon Pro;-inkscape-font-specification:Adobe Caslon Pro;stroke-opacity:1;stroke-width:0.0350817;stroke-miterlimit:4;stroke-dasharray:none"
     id="path5187"
     inkscape:connector-curvature="0" /><path
     id="path5189"
     transform="translate(0,-2.0838898e-5)"
     d="m 86.78125,265.15625 c -0.738666,0.0436 -1.112118,0.49655 -1.125,1.34375 -0.0402,1.31363 -0.07935,4.17922 -0.125,8.625 -0.04565,4.44576 -0.253754,10.98082 -0.65625,19.59375 -0.257371,4.68159 -0.649976,10.35723 -1.15625,17.03125 -0.50627,6.67392 -0.934541,13.26847 -1.28125,19.75 -0.844033,8.10621 -0.468372,18.01833 1.15625,29.78125 1.624633,11.76271 7.270107,22.93514 16.90625,33.46875 6.7096,6.95011 14.13589,12.28586 22.28125,16 8.1453,3.71385 17.89187,5.84129 29.21875,6.40625 11.55263,0.46315 21.61357,-1.13216 30.21875,-4.75 8.60498,-3.61815 15.86013,-8.57189 21.75,-14.90625 7.73129,-8.43133 13.0937,-17.98913 16.0625,-28.6875 2.96853,-10.6986 4.67191,-22.50247 5.125,-35.40625 0.12044,-2.9301 0.2717,-7.82539 0.4375,-14.6875 0.16549,-6.86224 0.30204,-11.92621 0.4375,-15.15625 0.46837,-8.93543 0.9039,-15.76546 1.3125,-20.46875 0.40832,-4.70337 0.6635,-7.67012 0.75,-8.90625 0.0286,-0.40788 -0.0278,-0.73466 -0.15625,-1 -0.12868,-0.26538 -0.39109,-0.40971 -0.78125,-0.4375 l -5.375,-0.28125 c -0.58226,-0.0249 -0.99089,0.10494 -1.1875,0.375 -0.19689,0.27 -0.30423,0.6513 -0.3125,1.15625 L 219.75,285 c -0.0668,2.68636 -0.51241,4.71574 -1.3125,6.0625 -0.80036,1.34667 -2.34585,2.11397 -4.6875,2.28125 -1.43441,0.067 -4.77257,0.0432 -9.96875,-0.0625 -5.19642,-0.1057 -10.48147,-0.24623 -15.875,-0.40625 -5.39372,-0.16008 -9.09888,-0.27893 -11.125,-0.375 l -14.96875,-0.75 c -2.3842,-0.12125 -5.31706,-0.28664 -8.40625,-0.46875 l 0,18.53125 c 0.72426,0.0329 2.76072,0.10874 3.09375,0.125 l 14.1875,0.6875 c 1.31533,0.0643 4.40601,0.21833 9.3125,0.46875 4.90629,0.25022 10.112,0.54187 15.59375,0.84375 5.48155,0.30174 9.73987,0.56398 12.78125,0.78125 2.19522,0.18046 4.07661,0.56312 5.625,1.1875 1.54816,0.6243 2.72841,1.64678 3.5625,3.0625 0.86263,1.92659 1.32606,4.50447 1.375,7.71875 0.0487,3.21414 -0.0283,5.99806 -0.1875,8.375 -0.641,11.14861 -2.87266,20.92509 -6.75,29.28125 -3.87759,8.35597 -8.8408,15.00289 -14.875,19.96875 -5.73338,4.60892 -12.67332,8.19501 -20.78125,10.78125 -8.1081,2.58599 -16.13605,3.72094 -24.125,3.40625 -9.16129,-0.5405 -17.54566,-2.33718 -25.15625,-5.40625 -7.61066,-3.06934 -13.96909,-6.86045 -19.03125,-11.40625 -6.23332,-5.38129 -11.069355,-12.17357 -14.5625,-20.375 -3.493164,-8.20162 -5.034352,-17.45654 -4.625,-27.71875 0.255203,-5.05768 0.989392,-9.40829 2.25,-13.0625 1.260613,-3.65433 3.006101,-6.25907 5.1875,-7.8125 2.025402,-1.18127 3.93131,-1.95882 5.71875,-2.375 1.78742,-0.41629 3.63283,-0.58747 5.59375,-0.46875 4.45309,0.15398 10.342,0.38499 17.625,0.6875 4.36761,0.18138 8.14844,0.3613 12.125,0.53125 l 0,-18.84375 c -8.85845,-0.58366 -17.22216,-1.16319 -24.96875,-1.75 -8.26942,-0.62646 -13.30633,-1.07769 -15.125,-1.375 -3.170801,-0.59251 -4.658995,-2.82332 -4.46875,-6.65625 l 0.65625,-13.375 c 0.05128,-1.03325 -0.328584,-1.58314 -1.125,-1.65625 l -5.1875,-0.28125 c -0.120335,-0.0102 -0.238226,-0.006 -0.34375,0 z"
     style="font-size:144px;font-style:normal;font-variant:normal;font-weight:normal;font-stretch:normal;line-height:125%;letter-spacing:0px;word-spacing:0px;fill:none;fill-opacity:1;stroke:#ff0000;font-family:Adobe Caslon Pro;-inkscape-font-specification:Adobe Caslon Pro;stroke-opacity:1;stroke-width:0.0350817;stroke-miterlimit:4;stroke-dasharray:none"
     inkscape:connector-curvature="0" /><path
     d="m 72.660984,480.05767 c -0.30841,13.26598 3.529844,23.58135 11.514819,30.94611 7.984948,7.36448 18.036557,11.37405 30.154847,12.02858 6.50714,0.28271 11.94299,-0.26499 16.30752,-1.64268 4.36442,-1.37798 8.119,-3.31234 11.26372,-5.80337 4.43645,-3.41675 7.97051,-7.79289 10.60224,-13.12872 2.63158,-5.33596 5.1502,-11.41682 7.55586,-18.2423 1.07778,-3.07879 2.76277,-6.80378 5.05494,-11.17506 2.29202,-4.37138 4.97458,-8.04663 8.04772,-11.02578 2.76491,-2.31381 5.69035,-3.8302 8.77632,-4.54919 3.08578,-0.71907 6.04893,-0.98061 8.88949,-0.78464 5.42946,0.16632 10.50226,2.23187 15.21838,6.19674 4.71588,3.96479 7.02395,10.35307 6.92424,19.16485 -0.22828,4.68299 -1.14018,8.78072 -2.73529,12.29307 -1.59538,3.5122 -3.90402,6.5379 -6.92593,9.07695 -4.51343,3.78853 -8.69719,6.47848 -12.55128,8.06971 -3.85431,1.59109 -7.25787,2.666 -10.21067,3.22475 -0.60858,0.16999 -0.82795,0.56001 -0.65812,1.17005 l 0.47945,2.42964 c 0.0719,0.39604 0.22494,0.67098 0.45911,0.82466 0.23395,0.15367 0.59641,0.23857 1.08741,0.2547 2.81576,-0.0643 7.80318,-0.30839 14.96227,-0.7323 7.15886,-0.42419 12.79223,-0.58601 16.90013,-0.48545 0.92678,0.0462 1.72379,-0.0604 2.39037,-0.30682 0.66631,-0.24674 1.0266,-0.62138 1.08085,-1.12391 0.0238,-0.48343 -0.0544,-0.9217 -0.23476,-1.31481 -0.18063,-0.39339 -0.45839,-0.84161 -0.83331,-1.34465 l -2.26519,-2.71916 c -0.48325,-0.50859 -0.73944,-1.05597 -0.76854,-1.64215 -0.0294,-0.58619 0.22316,-1.30868 0.75761,-2.16733 0.99328,-1.71314 2.16969,-4.59468 3.52928,-8.64489 1.3593,-4.0505 2.23595,-8.95176 2.62994,-14.70407 0.29488,-5.43994 -0.19939,-10.5934 -1.48277,-15.46039 -1.28366,-4.86709 -3.51848,-9.20521 -6.70448,-13.01436 -2.81187,-3.37707 -6.40349,-6.40459 -10.77489,-9.08254 -4.37163,-2.67798 -9.08766,-4.20788 -14.14807,-4.58968 -6.56364,-0.32311 -12.28336,0.23534 -17.1592,1.67537 -4.87603,1.43999 -9.03162,3.73036 -12.46679,6.8711 -4.69218,4.36856 -8.49004,9.35812 -11.39361,14.96866 -2.9037,5.61048 -4.97588,10.08465 -6.21657,13.42256 -2.9758,8.15459 -7.0791,15.10021 -12.30991,20.83699 -5.23092,5.73665 -12.87667,8.49621 -22.93728,8.27856 -8.892831,-0.82769 -15.209995,-4.18327 -18.951542,-10.0666 -3.741567,-5.88347 -5.420694,-12.0148 -5.037388,-18.39413 0.307234,-5.60225 1.858416,-10.82913 4.653549,-15.6807 2.795123,-4.85165 6.628599,-8.71176 11.500453,-11.58032 5.174598,-2.92454 9.605068,-4.70836 13.291418,-5.35149 3.68628,-0.64317 7.08962,-0.87442 10.21005,-0.69373 0.59021,0.0294 1.01082,-0.0498 1.26188,-0.23779 0.25097,-0.18798 0.38225,-0.48215 0.39383,-0.8825 l 0.34839,-2.98975 c 0.0446,-0.39457 0.01,-0.70535 -0.10373,-0.93237 -0.11374,-0.22704 -0.45507,-0.40278 -1.0239,-0.52719 -2.1643,-0.32449 -5.75682,-0.82786 -10.77756,-1.51009 -5.02079,-0.68225 -9.99666,-1.3734 -14.927628,-2.07343 -4.93101,-0.70006 -8.343972,-1.23901 -10.238901,-1.61687 -1.084509,-0.22951 -1.89587,-0.16972 -2.434053,0.17933 -0.538182,0.34904 -0.820711,0.83614 -0.847574,1.4613 -0.07153,0.68555 0.02215,1.31671 0.281047,1.89347 0.258882,0.57672 0.903714,1.18525 1.934511,1.82556 0.985268,0.63383 1.773496,1.20773 2.364697,1.72171 0.59119,0.51394 0.880615,1.06298 0.868304,1.6471 -0.01131,0.47971 -0.215269,1.06262 -0.611835,1.74871 -0.396592,0.68604 -1.066816,1.59652 -2.010685,2.73144 -3.334293,3.79308 -6.062405,8.21786 -8.184324,13.27432 -2.121915,5.05637 -3.378197,11.05809 -3.768865,18.00522 z"
     style="font-size:144px;font-style:normal;font-variant:normal;font-weight:normal;font-stretch:normal;line-height:125%;letter-spacing:0px;word-spacing:0px;fill:none;fill-opacity:1;stroke:#ff0000;font-family:Adobe Caslon Pro;-inkscape-font-specification:Adobe Caslon Pro;stroke-opacity:1;stroke-width:0.0350817;stroke-miterlimit:4;stroke-dasharray:none"
     id="path5191"
     inkscape:connector-curvature="0" /></g></svg>