<?xml version="1.0" encoding="UTF-8" standalone="no"?>
<!-- Generator: Adobe Illustrator 19.0.0, SVG Export Plug-In . SVG Version: 6.00 Build 0)  -->

<svg
   xmlns:dc="http://purl.org/dc/elements/1.1/"
   xmlns:cc="http://creativecommons.org/ns#"
   xmlns:rdf="http://www.w3.org/1999/02/22-rdf-syntax-ns#"
   xmlns:svg="http://www.w3.org/2000/svg"
   xmlns="http://www.w3.org/2000/svg"
   xmlns:sodipodi="http://sodipodi.sourceforge.net/DTD/sodipodi-0.dtd"
   xmlns:inkscape="http://www.inkscape.org/namespaces/inkscape"
   version="1.1"
   id="Abat-jour"
   x="0px"
   y="0px"
   viewBox="0 0 595.3 841.9"
   style="enable-background:new 0 0 595.3 841.9;"
   xml:space="preserve"
   inkscape:version="0.48.4 r9939"
   width="100%"
   height="100%"
   sodipodi:docname="abat.svg"><metadata
   id="metadata4651"><rdf:RDF><cc:Work
       rdf:about=""><dc:format>image/svg+xml</dc:format><dc:type
         rdf:resource="http://purl.org/dc/dcmitype/StillImage" /><dc:title></dc:title></cc:Work></rdf:RDF></metadata><defs
   id="defs4649"><inkscape:perspective
     sodipodi:type="inkscape:persp3d"
     inkscape:vp_x="0 : 420.95 : 1"
     inkscape:vp_y="0 : 1000 : 0"
     inkscape:vp_z="595.3 : 420.95 : 1"
     inkscape:persp3d-origin="297.65 : 280.63333 : 1"
     id="perspective5256" /></defs><sodipodi:namedview
   pagecolor="#ffffff"
   bordercolor="#666666"
   borderopacity="1"
   objecttolerance="10"
   gridtolerance="10"
   guidetolerance="10"
   inkscape:pageopacity="0"
   inkscape:pageshadow="2"
   inkscape:window-width="1680"
   inkscape:window-height="987"
   id="namedview4647"
   showgrid="false"
   inkscape:zoom="0.99486311"
   inkscape:cx="156.11162"
   inkscape:cy="466.00286"
   inkscape:window-x="-8"
   inkscape:window-y="-8"
   inkscape:window-maximized="1"
   inkscape:current-layer="Abat-jour" />
<style
   type="text/css"
   id="style4538">
	.st0{fill:none;stroke:#FF0000;stroke-width:0.1;stroke-miterlimit:10;}
</style>

<g
   id="Basique"
   style="stroke:#ff0000;stroke-opacity:1;stroke-width:0.03543307;stroke-miterlimit:4;stroke-dasharray:none;fill:none">
	<path
   id="XMLID_197_"
   class="st0"
   d="M84.6,39.1c-1.3,3.8,0.7,8,4.6,9.3L57,37.4c-67.9,198.7-63.2,404.7-0.1,589.2l31.7-10.8   c2.5-1.3,3.7-4.3,2.8-7.1c-1.1-3.1-4.4-4.7-7.5-3.7l33.4-11.4c-3.1,1.1-4.7,4.4-3.7,7.5c1,2.8,3.8,4.4,6.6,3.9l52.9-18.1   c2.6-1.3,3.9-4.3,3-7.2c-1.1-3.1-4.4-4.7-7.5-3.7l33.4-11.4c-3.1,1.1-4.7,4.4-3.7,7.5c1,2.9,3.9,4.5,6.8,3.8l52.5-17.9   c2.8-1.2,4.2-4.4,3.2-7.3c-1.1-3.1-4.4-4.7-7.5-3.7l33.4-11.4c-3.1,1.1-4.7,4.4-3.7,7.5c1,3,4.2,4.6,7.3,3.7l23.2-7.9   c-44.3-129.6-47.9-274.6-0.8-414.3l-23.4-8c3.8,1.3,8-0.7,9.3-4.6c1.3-3.8-0.7-8-4.6-9.3l-30.6-10.5c-3.8-1.3-8,0.7-9.3,4.6   c-1.3,3.8,0.7,8,4.6,9.3l-54.1-18.5c3.8,1.3,8-0.7,9.3-4.6c1.3-3.8-0.7-8-4.6-9.3l-30.6-10.5c-3.8-1.3-8,0.7-9.3,4.6   c-1.3,3.8,0.7,8,4.6,9.3l-54.1-18.5c3.8,1.3,8-0.7,9.3-4.6c1.3-3.8-0.7-8-4.6-9.3L93.9,34.5C90.1,33.2,85.9,35.2,84.6,39.1z"
   style="stroke:#ff0000;stroke-opacity:1;stroke-width:0.03543307;stroke-miterlimit:4;stroke-dasharray:none;fill:none" />
	<line
   id="XMLID_196_"
   class="st0"
   x1="83.9"
   y1="605"
   x2="76.9"
   y2="607.4"
   style="stroke:#ff0000;stroke-opacity:1;stroke-width:0.03543307;stroke-miterlimit:4;stroke-dasharray:none;fill:none" />
	<line
   id="XMLID_195_"
   class="st0"
   x1="117.3"
   y1="593.6"
   x2="124.3"
   y2="591.2"
   style="stroke:#ff0000;stroke-opacity:1;stroke-width:0.03543307;stroke-miterlimit:4;stroke-dasharray:none;fill:none" />
	<line
   id="XMLID_194_"
   class="st0"
   x1="168.7"
   y1="576.1"
   x2="161.7"
   y2="578.5"
   style="stroke:#ff0000;stroke-opacity:1;stroke-width:0.03543307;stroke-miterlimit:4;stroke-dasharray:none;fill:none" />
	<line
   id="XMLID_193_"
   class="st0"
   x1="202.1"
   y1="564.7"
   x2="209.1"
   y2="562.3"
   style="stroke:#ff0000;stroke-opacity:1;stroke-width:0.03543307;stroke-miterlimit:4;stroke-dasharray:none;fill:none" />
	<line
   id="XMLID_192_"
   class="st0"
   x1="253.5"
   y1="547.1"
   x2="246.5"
   y2="549.5"
   style="stroke:#ff0000;stroke-opacity:1;stroke-width:0.03543307;stroke-miterlimit:4;stroke-dasharray:none;fill:none" />
	<line
   id="XMLID_191_"
   class="st0"
   x1="286.9"
   y1="535.7"
   x2="293.8"
   y2="533.3"
   style="stroke:#ff0000;stroke-opacity:1;stroke-width:0.03543307;stroke-miterlimit:4;stroke-dasharray:none;fill:none" />
</g>
<path
   style="fill:none;stroke:#ff0000;stroke-width:0.03543307;stroke-linecap:butt;stroke-linejoin:miter;stroke-opacity:1;stroke-miterlimit:4;stroke-dasharray:none"
   d="m 159.26276,186.13419 11.18948,2.47819 8.42013,7.64372 1.53779,10.99538 -4.68028,7.27057 -7.88635,3.40018 -7.9834,1.3922 11.14095,1.4742 6.16953,2.72081 4.2586,4.82586 -1.08599,19.17288 -11.95084,2.5903 -45.34025,-21.96064 z"
   id="path5165"
   inkscape:connector-curvature="0" /><path
   style="fill:none;stroke:#ff0000;stroke-width:0.03543307;stroke-linecap:butt;stroke-linejoin:miter;stroke-opacity:1;stroke-miterlimit:4;stroke-dasharray:none"
   d="m 197.57889,433.4485 17.7477,-5.03097 17.72493,4.36262 10.49578,14.33225 -1.14193,13.81769 -8.61679,10.80301 -10.27283,8.04562 16.91968,-6.40964 10.80967,-0.86412 9.69051,3.56001 12.95705,27.86189 -14.99522,12.75779 -80.92695,3.57949 z"
   id="path5165-1"
   inkscape:connector-curvature="0" /><path
   sodipodi:type="star"
   style="fill:none;stroke:#ff0000;stroke-width:0.03543307;stroke-miterlimit:4;stroke-opacity:1;stroke-dasharray:none"
   id="path5254"
   sodipodi:sides="5"
   sodipodi:cx="68.232758"
   sodipodi:cy="362.13843"
   sodipodi:r1="41.015102"
   sodipodi:r2="20.507551"
   sodipodi:arg1="-1.4141944"
   sodipodi:arg2="-0.78587592"
   inkscape:flatsided="false"
   inkscape:rounded="0"
   inkscape:randomized="0"
   d="m 74.629581,321.62523 8.097275,26.00524 26.012974,8.07243 -22.230265,15.73703 0.361115,27.23432 -21.836333,-16.27922 -25.789789,8.75931 8.734665,-25.79815 -16.30008,-21.82077 27.234652,0.3351 z"
   transform="translate(32.165233,-234.20311)"
   inkscape:transform-center-x="-1.9767249"
   inkscape:transform-center-y="-1.9886952" /><path
   sodipodi:type="star"
   style="fill:none;stroke:#ff0000;stroke-width:0.03543307;stroke-miterlimit:4;stroke-opacity:1;stroke-dasharray:none"
   id="path5288"
   sodipodi:sides="5"
   sodipodi:cx="200.43372"
   sodipodi:cy="350.7663"
   sodipodi:r1="30.421766"
   sodipodi:r2="15.210883"
   sodipodi:arg1="-0.9179497"
   sodipodi:arg2="-0.28963116"
   inkscape:flatsided="false"
   inkscape:rounded="0"
   inkscape:randomized="0"
   d="m 218.91342,326.60053 -3.90237,19.82156 14.11622,14.45182 -20.05732,2.41383 -9.38235,17.89117 -8.49374,-18.32973 -19.91482,-3.39446 14.8079,-13.74223 -2.92569,-19.98907 17.64552,9.83657 z"
   transform="translate(-121.62478,176.90875)"
   inkscape:transform-center-x="0.2305658"
   inkscape:transform-center-y="2.6848619" /><path
   sodipodi:type="star"
   style="fill:none;stroke:#ff0000;stroke-width:0.03543307;stroke-miterlimit:4;stroke-opacity:1;stroke-dasharray:none"
   id="path5292"
   sodipodi:sides="5"
   sodipodi:cx="122.96111"
   sodipodi:cy="416.15604"
   sodipodi:r1="33.706715"
   sodipodi:r2="16.853357"
   sodipodi:arg1="0.43535328"
   sodipodi:arg2="1.0636718"
   inkscape:flatsided="false"
   inkscape:rounded="0"
   inkscape:randomized="0"
   d="m 153.5237,430.37119 -22.37749,0.51712 -12.26016,18.7272 -7.40683,-21.12246 -21.599222,-5.87308 17.799822,-13.57151 -1.0889,-22.35697 18.40772,12.73481 20.92625,-7.94429 -6.42322,21.44206 z"
   transform="translate(-50.258173,-60.309828)"
   inkscape:transform-center-x="1.259265"
   inkscape:transform-center-y="1.9974572" /><path
   style="fill:none;stroke:#ff0000;stroke-width:0.03543307;stroke-linecap:butt;stroke-linejoin:miter;stroke-opacity:1;stroke-miterlimit:4;stroke-dasharray:none"
   d="m 83.719687,373.55418 79.604893,62.19131 -29.85183,0 4.26454,22.38888 -55.439113,-80.31565 z"
   id="path5294"
   inkscape:connector-curvature="0" /><path
   sodipodi:type="star"
   style="fill:none;stroke:#ff0000;stroke-width:0.03543307;stroke-miterlimit:4;stroke-opacity:1;stroke-dasharray:none"
   id="path5296"
   sodipodi:sides="5"
   sodipodi:cx="99.511177"
   sodipodi:cy="351.38025"
   sodipodi:r1="29.699135"
   sodipodi:r2="14.849567"
   sodipodi:arg1="-0.41822433"
   sodipodi:arg2="0.2100942"
   inkscape:flatsided="false"
   inkscape:rounded="0"
   inkscape:randomized="0"
   d="m 126.65059,339.31829 -12.61637,15.15887 5.3351,18.98685 -18.31561,-7.31453 -16.408936,10.94125 1.296697,-19.6795 -15.476383,-12.2248 19.117016,-4.84806 6.844006,-18.49659 10.51827,16.68323 z"
   transform="translate(-35.180721,-104.53702)"
   inkscape:transform-center-x="0.95334018"
   inkscape:transform-center-y="-1.9140013" /><path
   style="font-size:56px;font-style:normal;font-weight:normal;line-height:125%;letter-spacing:0px;word-spacing:0px;fill:none;fill-opacity:1;stroke:#ff0000;font-family:Sans;stroke-opacity:1;stroke-width:0.03543307;stroke-miterlimit:4;stroke-dasharray:none"
   d="M 230.34375 208.75 C 227.75775 208.71043 225.24125 209.12799 222.75 209.96875 C 219.42832 211.08974 216.65209 213.00121 214.46875 215.71875 C 212.28542 218.43627 210.97623 221.66297 210.5 225.40625 C 210.0606 228.86015 210.4618 232.18301 211.71875 235.375 C 212.9757 238.56694 215.08687 241.1863 218.0625 243.21875 C 221.03812 245.25112 224.56114 246.51818 228.59375 247.03125 C 232.57208 247.53734 236.22831 247.20943 239.5625 246.0625 C 242.89665 244.91547 245.62089 242.9744 247.75 240.25 C 249.25401 238.32537 250.32538 236.17818 251 233.78125 L 246.125 233.78125 C 245.64232 234.92118 245.01731 235.99993 244.21875 236.96875 C 242.62156 238.90633 240.52204 240.24429 237.96875 241.03125 C 235.41541 241.81813 232.54941 242.00552 229.3125 241.59375 C 224.19489 240.94264 220.3968 239.16306 217.9375 236.25 C 215.47818 233.33688 214.49617 229.89773 215 225.9375 C 215.49463 222.04955 217.28943 219.00728 220.375 216.78125 C 223.46054 214.55519 227.39537 213.73408 232.1875 214.34375 C 238.17308 215.10524 242.28281 216.98907 244.5 220 C 245.87269 221.86413 246.72133 223.86207 247.0625 226 L 251.75 226 C 251.43284 222.34814 250.1115 219.07147 247.78125 216.21875 C 244.4979 212.19932 239.56917 209.77721 232.96875 208.9375 C 232.09622 208.8265 231.20575 208.76319 230.34375 208.75 z "
   transform="translate(0,-2.0838898e-5)"
   id="path5308" /><path
   style="font-size:56px;font-style:normal;font-weight:normal;line-height:125%;letter-spacing:0px;word-spacing:0px;fill:none;fill-opacity:1;stroke:#ff0000;font-family:Sans;stroke-opacity:1;stroke-width:0.03543307;stroke-miterlimit:4;stroke-dasharray:none"
   inkscape:connector-curvature="0"
   id="path5310"
   d="m 217.6844,270.35111 -0.97437,4.78228 c -3.28945,-0.76654 -5.79698,-2.30384 -7.52262,-4.61189 -1.72564,-2.30811 -2.47473,-5.044 -2.24726,-8.20769 0.28499,-3.96373 1.80957,-7.05702 4.57375,-9.27987 2.76418,-2.22287 6.5645,-3.16042 11.40098,-2.81268 3.12733,0.22484 5.8265,0.93978 8.09751,2.14481 2.27096,1.20502 3.91669,2.9088 4.93718,5.11136 1.02042,2.20254 1.4411,4.54929 1.26203,7.04028 -0.22618,3.1455 -1.20664,5.66109 -2.94135,7.54677 -1.73478,1.88563 -4.08607,3.00506 -7.05391,3.35826 l -0.39323,-4.82579 c 1.97816,-0.31473 3.49967,-1.01402 4.56455,-2.09797 1.06483,-1.08401 1.65608,-2.4442 1.77376,-4.08058 0.17776,-2.4728 -0.56415,-4.54566 -2.22579,-6.2186 -1.66167,-1.67296 -4.41072,-2.64734 -8.24715,-2.92317 -3.891,-0.27977 -6.77194,0.26242 -8.6428,1.62657 -1.87088,1.36413 -2.89259,3.24622 -3.06516,5.64629 -0.13857,1.9273 0.33671,3.57891 1.42569,4.95484 1.08902,1.37589 2.84842,2.32481 5.27819,2.84678 z" /><path
   style="font-size:56px;font-style:normal;font-weight:normal;line-height:125%;letter-spacing:0px;word-spacing:0px;fill:none;fill-opacity:1;stroke:#ff0000;font-family:Sans;stroke-opacity:1;stroke-width:0.03543307;stroke-miterlimit:4;stroke-dasharray:none"
   d="M 220.84375 277.375 C 216.12419 277.24457 212.43362 278.39742 209.75 280.8125 C 207.06638 283.22756 205.67983 286.56671 205.5625 290.8125 C 205.46934 294.18359 206.20118 296.97371 207.78125 299.1875 C 209.36132 301.40123 211.61444 302.92861 214.5625 303.8125 L 215.34375 298.75 C 213.28706 297.94545 211.78729 296.89547 210.875 295.59375 C 209.96269 294.29199 209.54385 292.74148 209.59375 290.9375 C 209.66073 288.51394 210.57301 286.51244 212.3125 284.9375 C 214.05197 283.36255 216.52481 282.5316 219.71875 282.4375 L 219.5 289.8125 L 223.5625 289.8125 L 223.75 282.8125 C 226.27834 283.04649 228.28009 283.98092 229.75 285.5625 C 231.21987 287.14406 231.90615 289.05293 231.84375 291.3125 C 231.77473 293.80892 230.78214 295.79774 228.84375 297.3125 C 227.59464 298.29919 225.72905 298.88004 223.28125 299.03125 L 223.40625 294.34375 L 219.375 294.34375 L 219.09375 304.09375 C 219.67634 304.12805 220.11468 304.14825 220.40625 304.15625 C 225.19867 304.28866 228.94603 303.16821 231.65625 300.78125 C 234.36643 298.39425 235.79897 295.25631 235.90625 291.375 C 236.01701 287.3661 234.75237 284.05794 232.125 281.46875 C 229.49758 278.87956 225.72728 277.50995 220.84375 277.375 z M 238.9375 288.5625 L 238.8125 292.65625 L 246.3125 298.875 L 246.46875 292.4375 L 238.9375 288.5625 z "
   transform="translate(0,-2.0838898e-5)"
   id="path5312" /><path
   style="font-size:56px;font-style:normal;font-weight:normal;line-height:125%;letter-spacing:0px;word-spacing:0px;fill:none;fill-opacity:1;stroke:#ff0000;font-family:Sans;stroke-opacity:1;stroke-width:0.03543307;stroke-miterlimit:4;stroke-dasharray:none"
   d="M 213.46875 307.9375 C 211.04496 307.99562 209.07956 308.90584 207.5625 310.65625 C 206.38689 312.01268 205.68743 313.81084 205.46875 316.03125 L 209.75 316.03125 C 209.93991 315.55123 210.16325 315.11411 210.46875 314.75 C 211.31967 313.73582 212.40662 313.219 213.71875 313.1875 C 214.57526 313.16695 215.34995 313.37373 216.0625 313.8125 C 216.77504 314.25127 217.33415 314.88917 217.71875 315.71875 C 218.10331 316.5483 218.4724 317.98413 218.8125 320 C 219.40841 323.55964 220.07195 326.20027 220.84375 327.96875 L 219.0625 328.03125 C 216.89384 328.08323 215.24932 327.84556 214.125 327.34375 C 212.66869 326.68574 211.48958 325.64373 210.625 324.1875 C 209.76041 322.73123 209.32665 321.05152 209.28125 319.15625 C 209.27698 318.97834 209.27776 318.82638 209.28125 318.65625 L 205.40625 318.65625 C 205.50626 320.36449 205.86047 321.97067 206.46875 323.46875 C 207.14701 325.13915 208.28226 326.87098 209.875 328.65625 C 208.5117 328.8348 207.3208 329.18399 206.3125 329.71875 L 206.4375 334.875 C 207.53429 334.2287 208.69938 333.76986 209.90625 333.53125 C 211.11311 333.29259 213.98828 333.10967 218.5625 333 L 225.125 332.84375 C 227.31185 332.79129 228.82186 332.68412 229.65625 332.5 C 230.9978 332.17605 232.10234 331.62512 232.96875 330.875 C 233.8351 330.12482 234.5477 328.96925 235.09375 327.40625 C 235.63974 325.84322 235.8719 323.82219 235.8125 321.34375 C 235.7526 318.84706 235.38506 316.66014 234.65625 314.78125 C 233.92737 312.90235 232.91557 311.50319 231.625 310.53125 C 230.33438 309.5593 228.63226 308.85673 226.5625 308.46875 L 226.03125 313.3125 C 228.1032 313.79161 229.56882 314.57314 230.40625 315.65625 C 231.24366 316.73934 231.6945 318.43555 231.75 320.75 C 231.8094 323.22844 231.26898 325.09087 230.1875 326.375 C 229.38968 327.32406 228.00461 327.8269 226 327.875 C 225.81774 327.87888 225.39345 327.877 224.71875 327.875 C 224.01765 326.01365 223.38159 323.11769 222.8125 319.15625 C 222.52882 317.21196 222.24702 315.77223 221.96875 314.8125 C 221.57278 313.50911 221.01709 312.31208 220.28125 311.28125 C 219.54537 310.25042 218.56594 309.43125 217.375 308.8125 C 216.18402 308.19373 214.8902 307.9034 213.46875 307.9375 z "
   transform="translate(0,-2.0838898e-5)"
   id="path5314" /><path
   style="font-size:56px;font-style:normal;font-weight:normal;line-height:125%;letter-spacing:0px;word-spacing:0px;fill:none;fill-opacity:1;stroke:#ff0000;font-family:Sans;stroke-opacity:1;stroke-width:0.03543307;stroke-miterlimit:4;stroke-dasharray:none"
   inkscape:connector-curvature="0"
   id="path5316"
   d="m 206.77278,340.95838 28.93569,-2.44802 0.37343,4.41392 -4.11421,0.34806 c 3.35852,1.85629 5.2076,4.79159 5.54726,8.8059 0.14745,1.74376 -0.0302,3.37326 -0.53316,4.88852 -0.50298,1.51522 -1.23233,2.67915 -2.18803,3.49181 -0.95575,0.8126 -2.12065,1.42339 -3.49469,1.83238 -0.89286,0.25845 -2.47455,0.48373 -4.74506,0.67586 l -17.79191,1.50524 -0.41492,-4.90436 17.60118,-1.4891 c 1.99805,-0.16904 3.47592,-0.48619 4.43363,-0.95137 0.95765,-0.46522 1.69055,-1.20869 2.1987,-2.2304 0.5081,-1.02175 0.70684,-2.18653 0.59622,-3.49435 -0.17677,-2.08889 -0.99227,-3.83561 -2.44656,-5.24014 -1.45433,-1.40453 -4.03424,-1.95005 -7.73973,-1.63655 l -15.80292,1.33696 z" /><path
   style="font-size:56px;font-style:normal;font-weight:normal;line-height:125%;letter-spacing:0px;word-spacing:0px;fill:none;fill-opacity:1;stroke:#ff0000;font-family:Sans;stroke-opacity:1;stroke-width:0.03543307;stroke-miterlimit:4;stroke-dasharray:none"
   d="M 226.90625 367.84375 C 225.81039 367.85919 224.64363 367.96402 223.4375 368.15625 C 218.77498 368.89935 215.3479 370.69351 213.15625 373.5625 C 210.96462 376.43147 210.2065 379.96179 210.875 384.15625 C 211.40579 387.4866 212.6634 390.08472 214.625 391.96875 C 216.58659 393.85274 219.09568 394.9568 222.15625 395.28125 L 221.96875 390.15625 C 219.79889 389.74523 218.13694 388.98592 217 387.875 C 215.86307 386.76403 215.159 385.31343 214.875 383.53125 C 214.49341 381.13698 215.01866 379.02523 216.4375 377.15625 C 217.85633 375.28723 220.12834 373.9946 223.25 373.3125 L 226.65625 394.71875 C 227.23516 394.64487 227.68069 394.57705 227.96875 394.53125 C 232.70324 393.77666 236.18327 391.97125 238.40625 389.125 C 240.36922 386.61155 241.21572 383.72146 240.96875 380.4375 L 236.90625 380.4375 C 237.1061 382.64191 236.45384 384.59413 234.96875 386.28125 C 233.92326 387.48157 232.22157 388.36825 229.84375 388.96875 L 227.28125 372.96875 C 229.80932 372.73197 231.95087 373.24822 233.6875 374.53125 C 234.96266 375.47337 235.8756 376.67105 236.40625 378.125 L 240.625 378.125 C 239.85961 374.64463 238.08376 371.94871 235.28125 370.0625 C 232.98606 368.51776 230.19383 367.79742 226.90625 367.84375 z "
   transform="translate(0,-2.0838898e-5)"
   id="path5318" /><path
   sodipodi:type="star"
   style="fill:none;stroke:#ff0000;stroke-width:0.03543307;stroke-miterlimit:4;stroke-opacity:1;stroke-dasharray:none"
   id="path5340"
   sodipodi:sides="5"
   sodipodi:cx="183.37553"
   sodipodi:cy="128.29909"
   sodipodi:r1="31.249107"
   sodipodi:r2="6.3090463"
   sodipodi:arg1="1.2706252"
   sodipodi:arg2="1.6933219"
   inkscape:flatsided="false"
   inkscape:rounded="0"
   inkscape:randomized="0"
   d="m 192.61539,158.15092 -10.01094,-23.59008 -24.76442,11.75059 19.34195,-16.8107 -18.82811,-19.92123 21.96492,13.20049 13.12801,-24.06259 -5.76688,24.96906 26.94166,5.04973 -25.52905,2.23123 z"
   transform="translate(0,-2.0838898e-5)"
   inkscape:transform-center-x="-2.8552676"
   inkscape:transform-center-y="0.13506907" /><path
   transform="matrix(0.77076177,0.63712345,-0.63712345,0.77076177,95.336491,115.71987)"
   sodipodi:type="star"
   style="fill:none;stroke:#ff0000;stroke-width:0.03543307;stroke-miterlimit:4;stroke-opacity:1;stroke-dasharray:none"
   id="path5340-8"
   sodipodi:sides="5"
   sodipodi:cx="183.37553"
   sodipodi:cy="128.29909"
   sodipodi:r1="31.249107"
   sodipodi:r2="6.3090463"
   sodipodi:arg1="1.2706252"
   sodipodi:arg2="1.6933219"
   inkscape:flatsided="false"
   inkscape:rounded="0"
   inkscape:randomized="0"
   d="m 192.61539,158.15092 -10.01094,-23.59008 -24.76442,11.75059 19.34195,-16.8107 -18.82811,-19.92123 21.96492,13.20049 13.12801,-24.06259 -5.76688,24.96906 26.94166,5.04973 -25.52905,2.23123 z"
   inkscape:transform-center-x="2.2740723"
   inkscape:transform-center-y="-0.73733426" /><path
   sodipodi:type="star"
   style="fill:none;stroke:#ff0000;stroke-width:0.10652303;stroke-miterlimit:4;stroke-opacity:1;stroke-dasharray:none"
   id="path5360"
   sodipodi:sides="5"
   sodipodi:cx="38.380924"
   sodipodi:cy="436.76801"
   sodipodi:r1="55.022945"
   sodipodi:r2="26.200153"
   sodipodi:arg1="0.49831579"
   sodipodi:arg2="0.67771162"
   inkscape:flatsided="false"
   inkscape:rounded="0"
   inkscape:randomized="0"
   d="m 86.712462,463.06605 -27.921367,-9.87023 -30.485829,37.66475 0.758972,-29.60487 -45.24195,-17.35469 28.390436,-8.42659 2.524766,-48.39054 16.787284,24.39695 46.802341,-12.55231 -18.015325,23.50473 z"
   transform="matrix(0.35088169,0,0,0.31533332,248.55833,27.263221)"
   inkscape:transform-center-x="1.0924882"
   inkscape:transform-center-y="0.6950599" /></svg>