<?xml version="1.0" encoding="UTF-8" standalone="no"?>
<!-- Generator: Adobe Illustrator 19.0.0, SVG Export Plug-In . SVG Version: 6.00 Build 0)  -->

<svg
   xmlns:dc="http://purl.org/dc/elements/1.1/"
   xmlns:cc="http://creativecommons.org/ns#"
   xmlns:rdf="http://www.w3.org/1999/02/22-rdf-syntax-ns#"
   xmlns:svg="http://www.w3.org/2000/svg"
   xmlns="http://www.w3.org/2000/svg"
   xmlns:xlink="http://www.w3.org/1999/xlink"
   xmlns:sodipodi="http://sodipodi.sourceforge.net/DTD/sodipodi-0.dtd"
   xmlns:inkscape="http://www.inkscape.org/namespaces/inkscape"
   version="1.1"
   id="Abat-jour"
   x="0px"
   y="0px"
   viewBox="0 0 595.3 841.9"
   style="enable-background:new 0 0 595.3 841.9;"
   xml:space="preserve"
   inkscape:version="0.48.4 r9939"
   width="100%"
   height="100%"
   sodipodi:docname="abat.svg"><metadata
   id="metadata4839"><rdf:RDF><cc:Work
       rdf:about=""><dc:format>image/svg+xml</dc:format><dc:type
         rdf:resource="http://purl.org/dc/dcmitype/StillImage" /><dc:title></dc:title></cc:Work></rdf:RDF></metadata><defs
   id="defs4837">
	
	
	
	
	
	
	
</defs><sodipodi:namedview
   pagecolor="#ffffff"
   bordercolor="#666666"
   borderopacity="1"
   objecttolerance="10"
   gridtolerance="10"
   guidetolerance="10"
   inkscape:pageopacity="0"
   inkscape:pageshadow="2"
   inkscape:window-width="1680"
   inkscape:window-height="987"
   id="namedview4835"
   showgrid="false"
   inkscape:object-paths="true"
   inkscape:zoom="1.5857199"
   inkscape:cx="267.48292"
   inkscape:cy="544.30194"
   inkscape:window-x="-8"
   inkscape:window-y="-8"
   inkscape:window-maximized="1"
   inkscape:current-layer="Abat-jour" />
<style
   type="text/css"
   id="style4726">
	.st0{fill:none;stroke:#FF0000;stroke-width:0.1;stroke-miterlimit:10;}
</style>

<path
   style="fill:none;stroke:#ff0000;stroke-width:0.03543307;stroke-miterlimit:8.19999981;stroke-opacity:1;stroke-dasharray:none"
   inkscape:connector-curvature="0"
   d="m 84.6,39.1 c -1.3,3.8 0.7,8 4.6,9.3 L 57,37.4 C -10.9,236.1 -6.2,442.1 56.9,626.6 l 31.7,-10.8 c 2.5,-1.3 3.7,-4.3 2.8,-7.1 C 90.3,605.6 87,604 83.9,605 l 33.4,-11.4 c -3.1,1.1 -4.7,4.4 -3.7,7.5 1,2.8 3.8,4.4 6.6,3.9 l 52.9,-18.1 c 2.6,-1.3 3.9,-4.3 3,-7.2 -1.1,-3.1 -4.4,-4.7 -7.5,-3.7 L 202,564.6 c -3.1,1.1 -4.7,4.4 -3.7,7.5 1,2.9 3.9,4.5 6.8,3.8 L 257.6,558 c 2.8,-1.2 4.2,-4.4 3.2,-7.3 -1.1,-3.1 -4.4,-4.7 -7.5,-3.7 l 33.4,-11.4 c -3.1,1.1 -4.7,4.4 -3.7,7.5 1,3 4.2,4.6 7.3,3.7 l 23.2,-7.9 C 269.2,409.3 265.6,264.3 312.7,124.6 l -23.4,-8 c 3.8,1.3 8,-0.7 9.3,-4.6 1.3,-3.8 -0.7,-8 -4.6,-9.3 L 263.4,92.2 c -3.8,-1.3 -8,0.7 -9.3,4.6 -1.3,3.8 0.7,8 4.6,9.3 L 204.6,87.6 c 3.8,1.3 8,-0.7 9.3,-4.6 1.3,-3.8 -0.7,-8 -4.6,-9.3 L 178.7,63.2 c -3.8,-1.3 -8,0.7 -9.3,4.6 -1.3,3.8 0.7,8 4.6,9.3 L 119.9,58.6 c 3.8,1.3 8,-0.7 9.3,-4.6 1.3,-3.8 -0.7,-8 -4.6,-9.3 L 93.9,34.5 c -3.8,-1.3 -8,0.7 -9.3,4.6 z"
   class="st0"
   id="XMLID_197_" /><line
   style="fill:none;stroke:#ff0000;stroke-width:0.03543307;stroke-miterlimit:8.19999981;stroke-opacity:1;stroke-dasharray:none"
   y2="607.40002"
   x2="76.900002"
   y1="605"
   x1="83.900002"
   class="st0"
   id="XMLID_196_" /><line
   style="fill:none;stroke:#ff0000;stroke-width:0.03543307;stroke-miterlimit:8.19999981;stroke-opacity:1;stroke-dasharray:none"
   y2="591.20001"
   x2="124.3"
   y1="593.59998"
   x1="117.3"
   class="st0"
   id="XMLID_195_" /><line
   style="fill:none;stroke:#ff0000;stroke-width:0.03543307;stroke-miterlimit:8.19999981;stroke-opacity:1;stroke-dasharray:none"
   y2="578.5"
   x2="161.7"
   y1="576.09998"
   x1="168.7"
   class="st0"
   id="XMLID_194_" /><line
   style="fill:none;stroke:#ff0000;stroke-width:0.03543307;stroke-miterlimit:8.19999981;stroke-opacity:1;stroke-dasharray:none"
   y2="562.29999"
   x2="209.10001"
   y1="564.70001"
   x1="202.10001"
   class="st0"
   id="XMLID_193_" /><line
   style="fill:none;stroke:#ff0000;stroke-width:0.03543307;stroke-miterlimit:8.19999981;stroke-opacity:1;stroke-dasharray:none"
   y2="549.5"
   x2="246.5"
   y1="547.09998"
   x1="253.5"
   class="st0"
   id="XMLID_192_" /><line
   style="fill:none;stroke:#ff0000;stroke-width:0.03543307;stroke-miterlimit:8.19999981;stroke-opacity:1;stroke-dasharray:none"
   y2="533.29999"
   x2="293.79999"
   y1="535.70001"
   x1="286.89999"
   class="st0"
   id="XMLID_191_" />
<text
   xml:space="preserve"
   style="font-size:66.35831451000000000px;font-style:normal;font-weight:normal;line-height:125%;letter-spacing:0px;word-spacing:0px;fill:none;fill-opacity:1;stroke:#ff0000;font-family:Sans;stroke-opacity:1;stroke-width:0.0349204;stroke-miterlimit:8.19999981;stroke-dasharray:none"
   id="text4841"
   sodipodi:linespacing="125%"
   transform="matrix(1,0,0,1.0295779,2.5225136,-11.994823)"><textPath
     xlink:href="#path4938"
     id="textPath4940">Felix Fab</textPath></text>

<path
   style="fill:none;stroke:#ff0000;stroke-width:0.03543307;stroke-linecap:butt;stroke-linejoin:miter;stroke-opacity:1;stroke-miterlimit:8.19999981;stroke-dasharray:none"
   d="M 83.242947,126.13678 z"
   id="path4926"
   inkscape:connector-curvature="0"
   transform="translate(0,-2.0838898e-5)" /><path
   style="fill:none;stroke:none;stroke-width:0.03543307;stroke-linecap:butt;stroke-linejoin:miter;stroke-opacity:1;stroke-miterlimit:8.19999981;stroke-dasharray:none"
   d="m 235.29638,144.42498 c 0,0 -83.24294,349.1201 1.89189,382.14498"
   id="path4938"
   inkscape:connector-curvature="0" /><path
   sodipodi:type="star"
   style="fill:none;stroke:#ff0000;stroke-width:0.03543307;stroke-miterlimit:8.19999981;stroke-opacity:1;stroke-dasharray:none"
   id="path4944"
   sodipodi:sides="5"
   sodipodi:cx="66.215981"
   sodipodi:cy="205.59595"
   sodipodi:r1="31.054848"
   sodipodi:r2="15.527424"
   sodipodi:arg1="1.152572"
   sodipodi:arg2="1.7808905"
   inkscape:flatsided="false"
   inkscape:rounded="0"
   inkscape:randomized="0"
   d="m 78.828549,233.97423 -15.850844,-13.19229 -19.853573,5.57864 7.648426,-19.15168 -11.440693,-17.15798 20.577831,1.35589 12.782836,-16.18285 5.069373,19.98967 19.34092,7.15642 -17.444786,10.99841 z"
   transform="translate(175.94532,260.44951)"
   inkscape:transform-center-x="-2.001363"
   inkscape:transform-center-y="-0.9968605" /></svg>