<?xml version="1.0" encoding="UTF-8" standalone="no"?>
<!-- Generator: Adobe Illustrator 19.0.0, SVG Export Plug-In . SVG Version: 6.00 Build 0)  -->

<svg
   xmlns:dc="http://purl.org/dc/elements/1.1/"
   xmlns:cc="http://creativecommons.org/ns#"
   xmlns:rdf="http://www.w3.org/1999/02/22-rdf-syntax-ns#"
   xmlns:svg="http://www.w3.org/2000/svg"
   xmlns="http://www.w3.org/2000/svg"
   xmlns:sodipodi="http://sodipodi.sourceforge.net/DTD/sodipodi-0.dtd"
   xmlns:inkscape="http://www.inkscape.org/namespaces/inkscape"
   version="1.1"
   id="Abat-jour"
   x="0px"
   y="0px"
   viewBox="0 0 595.3 841.9"
   style="enable-background:new 0 0 595.3 841.9;"
   xml:space="preserve"
   inkscape:version="0.48.4 r9939"
   width="100%"
   height="100%"
   sodipodi:docname="abat.svg"><metadata
   id="metadata6163"><rdf:RDF><cc:Work
       rdf:about=""><dc:format>image/svg+xml</dc:format><dc:type
         rdf:resource="http://purl.org/dc/dcmitype/StillImage" /><dc:title></dc:title></cc:Work></rdf:RDF></metadata><defs
   id="defs6161" /><sodipodi:namedview
   pagecolor="#ffffff"
   bordercolor="#666666"
   borderopacity="1"
   objecttolerance="10"
   gridtolerance="10"
   guidetolerance="10"
   inkscape:pageopacity="0"
   inkscape:pageshadow="2"
   inkscape:window-width="1680"
   inkscape:window-height="987"
   id="namedview6159"
   showgrid="false"
   inkscape:zoom="2.2425466"
   inkscape:cx="61.198709"
   inkscape:cy="730.2662"
   inkscape:window-x="-8"
   inkscape:window-y="-8"
   inkscape:window-maximized="1"
   inkscape:current-layer="Particules" />
<style
   type="text/css"
   id="style6050">
	.st0{fill:none;stroke:#FF0000;stroke-width:0.1;stroke-miterlimit:10;}
</style>
<g
   id="Particules"
   style="stroke:#000000;stroke-opacity:1;stroke-width:1.30000003;stroke-miterlimit:4;stroke-dasharray:none">
	
	
	
	
	
	
	
	
</g>
<g
   id="Basique"
   style="stroke:#ff0000;stroke-opacity:1;stroke-width:0.03543307;stroke-miterlimit:4;stroke-dasharray:none;fill:none">
	<path
   id="XMLID_197_"
   class="st0"
   d="M84.6,39.1c-1.3,3.8,0.7,8,4.6,9.3L57,37.4c-67.9,198.7-63.2,404.7-0.1,589.2l31.7-10.8   c2.5-1.3,3.7-4.3,2.8-7.1c-1.1-3.1-4.4-4.7-7.5-3.7l33.4-11.4c-3.1,1.1-4.7,4.4-3.7,7.5c1,2.8,3.8,4.4,6.6,3.9l52.9-18.1   c2.6-1.3,3.9-4.3,3-7.2c-1.1-3.1-4.4-4.7-7.5-3.7l33.4-11.4c-3.1,1.1-4.7,4.4-3.7,7.5c1,2.9,3.9,4.5,6.8,3.8l52.5-17.9   c2.8-1.2,4.2-4.4,3.2-7.3c-1.1-3.1-4.4-4.7-7.5-3.7l33.4-11.4c-3.1,1.1-4.7,4.4-3.7,7.5c1,3,4.2,4.6,7.3,3.7l23.2-7.9   c-44.3-129.6-47.9-274.6-0.8-414.3l-23.4-8c3.8,1.3,8-0.7,9.3-4.6c1.3-3.8-0.7-8-4.6-9.3l-30.6-10.5c-3.8-1.3-8,0.7-9.3,4.6   c-1.3,3.8,0.7,8,4.6,9.3l-54.1-18.5c3.8,1.3,8-0.7,9.3-4.6c1.3-3.8-0.7-8-4.6-9.3l-30.6-10.5c-3.8-1.3-8,0.7-9.3,4.6   c-1.3,3.8,0.7,8,4.6,9.3l-54.1-18.5c3.8,1.3,8-0.7,9.3-4.6c1.3-3.8-0.7-8-4.6-9.3L93.9,34.5C90.1,33.2,85.9,35.2,84.6,39.1z"
   style="stroke:#ff0000;stroke-opacity:1;stroke-width:0.03543307;stroke-miterlimit:4;stroke-dasharray:none;fill:none" />
	<line
   id="XMLID_196_"
   class="st0"
   x1="83.9"
   y1="605"
   x2="76.9"
   y2="607.4"
   style="stroke:#ff0000;stroke-opacity:1;stroke-width:0.03543307;stroke-miterlimit:4;stroke-dasharray:none;fill:none" />
	<line
   id="XMLID_195_"
   class="st0"
   x1="117.3"
   y1="593.6"
   x2="124.3"
   y2="591.2"
   style="stroke:#ff0000;stroke-opacity:1;stroke-width:0.03543307;stroke-miterlimit:4;stroke-dasharray:none;fill:none" />
	<line
   id="XMLID_194_"
   class="st0"
   x1="168.7"
   y1="576.1"
   x2="161.7"
   y2="578.5"
   style="stroke:#ff0000;stroke-opacity:1;stroke-width:0.03543307;stroke-miterlimit:4;stroke-dasharray:none;fill:none" />
	<line
   id="XMLID_193_"
   class="st0"
   x1="202.1"
   y1="564.7"
   x2="209.1"
   y2="562.3"
   style="stroke:#ff0000;stroke-opacity:1;stroke-width:0.03543307;stroke-miterlimit:4;stroke-dasharray:none;fill:none" />
	<line
   id="XMLID_192_"
   class="st0"
   x1="253.5"
   y1="547.1"
   x2="246.5"
   y2="549.5"
   style="stroke:#ff0000;stroke-opacity:1;stroke-width:0.03543307;stroke-miterlimit:4;stroke-dasharray:none;fill:none" />
	<line
   id="XMLID_191_"
   class="st0"
   x1="286.9"
   y1="535.7"
   x2="293.8"
   y2="533.3"
   style="stroke:#ff0000;stroke-opacity:1;stroke-width:0.03543307;stroke-miterlimit:4;stroke-dasharray:none;fill:none" />
</g>
<path
   inkscape:connector-curvature="0"
   id="path6696"
   style="font-size:72px;font-style:normal;font-weight:normal;line-height:125%;letter-spacing:0px;word-spacing:0px;fill:none;fill-opacity:1;stroke:#ff0000;font-family:Sans;stroke-opacity:1;stroke-width:0.03543307;stroke-miterlimit:4;stroke-dasharray:none"
   d="m 102.66734,156.0213 51.02107,7.28873 -1.45178,10.16245 -37.85066,6.91584 c -3.52339,0.63305 -6.1568,1.08548 -7.90026,1.35731 1.77329,0.84518 4.37025,2.13952 7.79088,3.88301 l 33.75385,17.28711 -1.29765,9.08356 -51.021067,-7.28873 0.929735,-6.50815 42.703172,6.10046 -40.585165,-20.9265 0.870073,-6.09051 45.542102,-8.55157 -43.43404,-6.20486 z" /><path
   style="font-size:72px;font-style:normal;font-weight:normal;line-height:125%;letter-spacing:0px;word-spacing:0px;fill:none;fill-opacity:1;stroke:#ff0000;font-family:Sans;stroke-opacity:1;stroke-width:0.03543307;stroke-miterlimit:4;stroke-dasharray:none"
   d="M 92.125 229.84375 L 91.09375 237 L 105.75 244.8125 L 102.6875 266.15625 L 86.40625 269.90625 L 85.3125 277.59375 L 113.5 270.5 L 113.5 263.71875 L 108.5 264.84375 L 110.96875 247.5625 L 118.5625 251.6875 L 118.5625 244.59375 L 92.125 229.84375 z M 122.34375 246.6875 L 122.34375 253.75 L 125.125 255.28125 C 128.18099 256.92525 131.3213 258.32046 134.5 259.4375 C 131.62623 259.8319 127.89935 260.52028 123.375 261.53125 L 120.4375 262.1875 L 120.4375 268.75 L 139.3125 264 L 140.34375 256.71875 L 122.34375 246.6875 z "
   transform="translate(0,-2.0838898e-5)"
   id="path6698" /><path
   inkscape:connector-curvature="0"
   id="path6700"
   style="font-size:72px;font-style:normal;font-weight:normal;line-height:125%;letter-spacing:0px;word-spacing:0px;fill:none;fill-opacity:1;stroke:#ff0000;font-family:Sans;stroke-opacity:1;stroke-width:0.03543307;stroke-miterlimit:4;stroke-dasharray:none"
   d="m 79.841601,315.80148 45.000169,6.4286 2.4014,-16.80981 6.0209,0.86013 -5.77729,40.44099 -6.0209,-0.86013 2.41135,-16.87941 -45.000168,-6.4286 z" /><path
   inkscape:connector-curvature="0"
   id="path6702"
   style="font-size:72px;font-style:normal;font-weight:normal;line-height:125%;letter-spacing:0px;word-spacing:0px;fill:none;fill-opacity:1;stroke:#ff0000;font-family:Sans;stroke-opacity:1;stroke-width:0.03543307;stroke-miterlimit:4;stroke-dasharray:none"
   d="m 80.149379,378.74961 44.302191,-10.18124 -3.80321,-16.54908 5.92752,-1.36223 9.14974,39.81373 -5.92752,1.36222 -3.81895,-16.6176 -44.30219,10.18125 z" /><path
   inkscape:connector-curvature="0"
   id="path6704"
   style="font-size:72px;font-style:normal;font-weight:normal;line-height:125%;letter-spacing:0px;word-spacing:0px;fill:none;fill-opacity:1;stroke:#ff0000;font-family:Sans;stroke-opacity:1;stroke-width:0.03543307;stroke-miterlimit:4;stroke-dasharray:none"
   d="m 91.803084,429.45899 50.229706,-11.54348 1.52758,6.64704 -50.229705,11.54348 z" /><path
   style="font-size:72px;font-style:normal;font-weight:normal;line-height:125%;letter-spacing:0px;word-spacing:0px;fill:none;fill-opacity:1;stroke:#ff0000;font-family:Sans;stroke-opacity:1;stroke-width:0.03543307;stroke-miterlimit:4;stroke-dasharray:none"
   d="M 99.21875 461.75 L 100.84375 468.78125 L 117.3125 470.8125 L 122.15625 491.8125 L 108.28125 501.15625 L 110.03125 508.75 L 128.65625 495.625 L 128.65625 487.5 L 127.09375 488.53125 L 123.1875 471.5 L 130.21875 472.4375 L 130.21875 466.125 L 99.21875 461.75 z M 136.21875 466.96875 L 136.21875 473.21875 L 139.1875 473.625 C 142.63022 474.06022 146.03849 474.22558 149.40625 474.125 C 146.86648 475.5263 143.67078 477.4924 139.8125 480.0625 L 134.96875 483.28125 L 134.96875 491.15625 L 155.53125 476.65625 L 153.875 469.46875 L 136.21875 466.96875 z "
   transform="translate(0,-2.0838898e-5)"
   id="path6706" /><path
   sodipodi:type="arc"
   style="fill:none;stroke:#ff0000;stroke-width:0.03543307;stroke-miterlimit:4;stroke-opacity:1;stroke-dasharray:none"
   id="path6732"
   sodipodi:cx="211.26051"
   sodipodi:cy="242.80302"
   sodipodi:rx="11.981939"
   sodipodi:ry="12.927882"
   d="m 223.24245,242.80302 a 11.981939,12.927882 0 1 1 -2.76554,-8.26117 l -9.2164,8.26117 z"
   transform="translate(0,-2.0838898e-5)"
   sodipodi:start="0"
   sodipodi:end="5.5899622" /><path
   sodipodi:type="arc"
   style="fill:none;stroke:#ff0000;stroke-width:0.03543307;stroke-miterlimit:4;stroke-opacity:1;stroke-dasharray:none"
   id="path6736"
   sodipodi:cx="197.54434"
   sodipodi:cy="337.87027"
   sodipodi:rx="11.193654"
   sodipodi:ry="11.193654"
   d="m 208.738,337.87027 a 11.193654,11.193654 0 1 1 -2.58361,-7.15297 l -8.61005,7.15297 z"
   transform="translate(0,-2.0838898e-5)"
   sodipodi:start="0"
   sodipodi:end="5.5899622" /><path
   sodipodi:type="arc"
   style="fill:none;stroke:#ff0000;stroke-width:0.03543307;stroke-miterlimit:4;stroke-opacity:1;stroke-dasharray:none"
   id="path6738"
   sodipodi:cx="210.31458"
   sodipodi:cy="422.84744"
   sodipodi:rx="11.035996"
   sodipodi:ry="11.035996"
   d="m 221.35057,422.84744 a 11.035996,11.035996 0 1 1 -2.54721,-7.05222 l -8.48878,7.05222 z"
   transform="translate(0,-2.0838898e-5)"
   sodipodi:start="0"
   sodipodi:end="5.5899622" /><path
   sodipodi:type="arc"
   style="fill:none;stroke:#ff0000;stroke-width:0.03543307;stroke-miterlimit:4;stroke-opacity:1;stroke-dasharray:none"
   id="path6740"
   sodipodi:cx="209.8416"
   sodipodi:cy="146.78986"
   sodipodi:rx="8.6711407"
   sodipodi:ry="8.6711407"
   d="m 218.51274,146.78986 a 8.6711407,8.6711407 0 1 1 -2.00138,-5.54103 l -6.66976,5.54103 z"
   transform="translate(0,-2.0838898e-5)"
   sodipodi:start="0"
   sodipodi:end="5.5899622" /><path
   sodipodi:type="arc"
   style="fill:none;stroke:#ff0000;stroke-width:0.03543307;stroke-miterlimit:4;stroke-opacity:1;stroke-dasharray:none"
   id="path6742"
   sodipodi:cx="211.36684"
   sodipodi:cy="528.86304"
   sodipodi:rx="15.161335"
   sodipodi:ry="15.161335"
   d="m 226.52817,528.86304 a 15.161335,15.161335 0 1 1 -3.49938,-9.68839 l -11.66195,9.68839 z"
   transform="translate(0,-2.0838898e-5)"
   sodipodi:start="0"
   sodipodi:end="5.5899622" /></svg>