<?xml version="1.0" encoding="UTF-8" standalone="no"?>
<!-- Generator: Adobe Illustrator 19.0.0, SVG Export Plug-In . SVG Version: 6.00 Build 0)  -->

<svg
   xmlns:dc="http://purl.org/dc/elements/1.1/"
   xmlns:cc="http://creativecommons.org/ns#"
   xmlns:rdf="http://www.w3.org/1999/02/22-rdf-syntax-ns#"
   xmlns:svg="http://www.w3.org/2000/svg"
   xmlns="http://www.w3.org/2000/svg"
   xmlns:sodipodi="http://sodipodi.sourceforge.net/DTD/sodipodi-0.dtd"
   xmlns:inkscape="http://www.inkscape.org/namespaces/inkscape"
   version="1.1"
   id="Abat-jour"
   x="0px"
   y="0px"
   viewBox="0 0 595.3 841.9"
   style="enable-background:new 0 0 595.3 841.9;"
   xml:space="preserve"
   inkscape:version="0.48.4 r9939"
   width="100%"
   height="100%"
   sodipodi:docname="231-06.svg"><metadata
   id="metadata4650"><rdf:RDF><cc:Work
       rdf:about=""><dc:format>image/svg+xml</dc:format><dc:type
         rdf:resource="http://purl.org/dc/dcmitype/StillImage" /><dc:title></dc:title></cc:Work></rdf:RDF></metadata><defs
   id="defs4648">
	
	
	
	
	
	
	
	

		
		
		
		
		
		
		
		
		
		
		
		
		
		
		
		
		
		
		
		
		
		
		
		
		
		
		
		
		
		
		
		
		
		
		
		
		
		
		
		
		
		
		
		
		
		
		
		
		
		
		
		
		
		
		
		
		
		
		
		
		
		
		
		
		
		
		
		
		
		
		
		
		
		
		
		
		
		
		
		
		
		
		
		
		
		
		
		
		
		
	</defs><sodipodi:namedview
   pagecolor="#ffffff"
   bordercolor="#666666"
   borderopacity="1"
   objecttolerance="10"
   gridtolerance="10"
   guidetolerance="10"
   inkscape:pageopacity="0"
   inkscape:pageshadow="2"
   inkscape:window-width="1680"
   inkscape:window-height="987"
   id="namedview4646"
   showgrid="false"
   inkscape:zoom="1.1212733"
   inkscape:cx="308.85865"
   inkscape:cy="495.76102"
   inkscape:window-x="-8"
   inkscape:window-y="-8"
   inkscape:window-maximized="1"
   inkscape:current-layer="Abat-jour" />
<style
   type="text/css"
   id="style4537">
	.st0{fill:none;stroke:#FF0000;stroke-width:0.1;stroke-miterlimit:10;}
</style>
<line
   style="fill:none;stroke:#ff0000;stroke-width:0.03543307;stroke-miterlimit:4;stroke-opacity:1;stroke-dasharray:none"
   y2="234.5"
   x2="518.40002"
   y1="236.89999"
   x1="511.39999"
   class="st0"
   id="XMLID_97_" /><line
   style="fill:none;stroke:#ff0000;stroke-width:0.03543307;stroke-miterlimit:4;stroke-opacity:1;stroke-dasharray:none"
   y2="250.7"
   x2="471"
   y1="248.3"
   x1="478"
   class="st0"
   id="XMLID_96_" /><line
   style="fill:none;stroke:#ff0000;stroke-width:0.03543307;stroke-miterlimit:4;stroke-opacity:1;stroke-dasharray:none"
   y2="263.39999"
   x2="433.60001"
   y1="265.79999"
   x1="426.60001"
   class="st0"
   id="XMLID_95_" /><line
   style="fill:none;stroke:#ff0000;stroke-width:0.03543307;stroke-miterlimit:4;stroke-opacity:1;stroke-dasharray:none"
   y2="279.60001"
   x2="386.20001"
   y1="277.20001"
   x1="393.20001"
   class="st0"
   id="XMLID_94_" /><line
   style="fill:none;stroke:#ff0000;stroke-width:0.03543307;stroke-miterlimit:4;stroke-opacity:1;stroke-dasharray:none"
   y2="292.39999"
   x2="348.79999"
   y1="294.79999"
   x1="341.79999"
   class="st0"
   id="XMLID_93_" /><line
   style="fill:none;stroke:#ff0000;stroke-width:0.03543307;stroke-miterlimit:4;stroke-opacity:1;stroke-dasharray:none"
   y2="308.5"
   x2="301.39999"
   y1="306.20001"
   x1="308.39999"
   class="st0"
   id="XMLID_92_" />
<g
   id="Basique"
   style="stroke:#ff0000;stroke-opacity:1;stroke-width:0.03543307;stroke-miterlimit:4;stroke-dasharray:none;fill:none">
	<path
   id="XMLID_197_"
   class="st0"
   d="M84.6,39.1c-1.3,3.8,0.7,8,4.6,9.3L57,37.4c-67.9,198.7-63.2,404.7-0.1,589.2l31.7-10.8   c2.5-1.3,3.7-4.3,2.8-7.1c-1.1-3.1-4.4-4.7-7.5-3.7l33.4-11.4c-3.1,1.1-4.7,4.4-3.7,7.5c1,2.8,3.8,4.4,6.6,3.9l52.9-18.1   c2.6-1.3,3.9-4.3,3-7.2c-1.1-3.1-4.4-4.7-7.5-3.7l33.4-11.4c-3.1,1.1-4.7,4.4-3.7,7.5c1,2.9,3.9,4.5,6.8,3.8l52.5-17.9   c2.8-1.2,4.2-4.4,3.2-7.3c-1.1-3.1-4.4-4.7-7.5-3.7l33.4-11.4c-3.1,1.1-4.7,4.4-3.7,7.5c1,3,4.2,4.6,7.3,3.7l23.2-7.9   c-44.3-129.6-47.9-274.6-0.8-414.3l-23.4-8c3.8,1.3,8-0.7,9.3-4.6c1.3-3.8-0.7-8-4.6-9.3l-30.6-10.5c-3.8-1.3-8,0.7-9.3,4.6   c-1.3,3.8,0.7,8,4.6,9.3l-54.1-18.5c3.8,1.3,8-0.7,9.3-4.6c1.3-3.8-0.7-8-4.6-9.3l-30.6-10.5c-3.8-1.3-8,0.7-9.3,4.6   c-1.3,3.8,0.7,8,4.6,9.3l-54.1-18.5c3.8,1.3,8-0.7,9.3-4.6c1.3-3.8-0.7-8-4.6-9.3L93.9,34.5C90.1,33.2,85.9,35.2,84.6,39.1z"
   style="stroke:#ff0000;stroke-opacity:1;stroke-width:0.03543307;stroke-miterlimit:4;stroke-dasharray:none;fill:none" />
	<line
   id="XMLID_196_"
   class="st0"
   x1="83.9"
   y1="605"
   x2="76.9"
   y2="607.4"
   style="stroke:#ff0000;stroke-opacity:1;stroke-width:0.03543307;stroke-miterlimit:4;stroke-dasharray:none;fill:none" />
	<line
   id="XMLID_195_"
   class="st0"
   x1="117.3"
   y1="593.6"
   x2="124.3"
   y2="591.2"
   style="stroke:#ff0000;stroke-opacity:1;stroke-width:0.03543307;stroke-miterlimit:4;stroke-dasharray:none;fill:none" />
	<line
   id="XMLID_194_"
   class="st0"
   x1="168.7"
   y1="576.1"
   x2="161.7"
   y2="578.5"
   style="stroke:#ff0000;stroke-opacity:1;stroke-width:0.03543307;stroke-miterlimit:4;stroke-dasharray:none;fill:none" />
	<line
   id="XMLID_193_"
   class="st0"
   x1="202.1"
   y1="564.7"
   x2="209.1"
   y2="562.3"
   style="stroke:#ff0000;stroke-opacity:1;stroke-width:0.03543307;stroke-miterlimit:4;stroke-dasharray:none;fill:none" />
	<line
   id="XMLID_192_"
   class="st0"
   x1="253.5"
   y1="547.1"
   x2="246.5"
   y2="549.5"
   style="stroke:#ff0000;stroke-opacity:1;stroke-width:0.03543307;stroke-miterlimit:4;stroke-dasharray:none;fill:none" />
	<line
   id="XMLID_191_"
   class="st0"
   x1="286.9"
   y1="535.7"
   x2="293.8"
   y2="533.3"
   style="stroke:#ff0000;stroke-opacity:1;stroke-width:0.03543307;stroke-miterlimit:4;stroke-dasharray:none;fill:none" />
</g>
<path
   inkscape:connector-curvature="0"
   id="path5361"
   style="font-size:241.15890503000003000px;font-style:normal;font-variant:normal;font-weight:normal;font-stretch:normal;line-height:125%;letter-spacing:0px;word-spacing:0px;fill:none;fill-opacity:1;stroke:#ff0000;font-family:Bauhaus 93;-inkscape-font-specification:'Bauhaus 93,';stroke-width:0.03543307;stroke-miterlimit:4;stroke-dasharray:none;stroke-opacity:1"
   d="m 60.420001,503.81156 1.512943,-58.38607 c 0.896942,-34.60776 14.960891,-51.55886 42.191886,-50.85336 13.49796,0.3499 24.56647,6.56561 33.20557,18.64717 7.90063,-16.9929 21.42495,-25.24132 40.57301,-24.74528 14.67502,0.38041 26.23676,5.74509 34.68524,16.09408 4.03111,5.05187 6.79746,10.42422 8.29904,16.11708 1.50158,5.69307 2.12832,13.32658 1.88024,22.90055 l -0.23488,9.06397 -41.31757,-1.07065 0.21047,-8.12226 c 0.1241,-4.78695 -0.39666,-8.17716 -1.56223,-10.17067 -1.1655,-1.99333 -3.27855,-3.02969 -6.33915,-3.10909 -5.17936,-0.13412 -7.87277,3.80104 -8.08024,11.8055 l -0.23792,9.18168 -42.84785,-1.11031 c 0.22785,-8.78921 -2.67959,-13.26215 -8.72233,-13.41882 -5.57169,-0.14429 -8.46026,3.74654 -8.66577,11.67253 l -0.22877,8.82853 117.59614,3.04724 -1.23841,47.79183 z" /><path
   inkscape:connector-curvature="0"
   id="path5363"
   style="font-size:241.15890503000003000px;font-style:normal;font-variant:normal;font-weight:normal;font-stretch:normal;line-height:125%;letter-spacing:0px;word-spacing:0px;fill:none;fill-opacity:1;stroke:#ff0000;font-family:Bauhaus 93;-inkscape-font-specification:'Bauhaus 93,';stroke-width:0.03543307;stroke-miterlimit:4;stroke-dasharray:none;stroke-opacity:1"
   d="m 176.00736,257.08581 -1.72952,66.74376 c -3.40084,0.9328 -6.51386,1.36257 -9.33905,1.2893 -3.92372,-0.10161 -7.75074,-0.90754 -11.48105,-2.41778 l 0.57955,-22.36563 c -8.7514,1.34389 -13.23391,6.13577 -13.44752,14.37565 -0.14225,5.49339 2.07649,10.027 6.65625,13.60088 4.57991,3.57398 10.51895,5.45551 17.81714,5.64458 7.61222,0.1973 13.81579,-1.31068 18.61071,-4.52395 4.79503,-3.21316 7.26267,-7.52717 7.40295,-12.94207 0.11391,-4.39458 -1.97361,-8.68921 -6.26254,-12.88392 l 30.78445,-24.29217 c 8.87869,11.93093 13.13297,25.03763 12.76288,39.32016 -0.45145,17.4217 -6.67715,31.90595 -18.67713,43.45278 -11.99995,11.54688 -26.63227,17.09661 -43.897,16.64924 -17.18615,-0.44534 -31.54912,-6.80533 -43.08896,-19.07997 -11.53963,-12.27461 -17.08379,-27.12273 -16.63246,-44.54444 0.44139,-17.02918 6.5996,-31.18143 18.47462,-42.45678 11.87524,-11.27513 26.28819,-16.69313 43.23891,-16.25401 1.72652,0.0449 4.46911,0.27299 8.22777,0.68437 z" /><path
   inkscape:connector-curvature="0"
   id="path5365"
   style="font-size:241.15890503000003000px;font-style:normal;font-variant:normal;font-weight:normal;font-stretch:normal;line-height:125%;letter-spacing:0px;word-spacing:0px;fill:none;fill-opacity:1;stroke:#ff0000;font-family:Bauhaus 93;-inkscape-font-specification:'Bauhaus 93,';stroke-width:0.03543307;stroke-miterlimit:4;stroke-dasharray:none;stroke-opacity:1"
   d="m 230.75358,135.41085 -1.14081,44.02498 -66.2729,-1.71731 c -6.74886,-0.17481 -10.1955,2.52364 -10.33996,8.09536 -0.14227,5.49338 3.16101,8.32747 9.90987,8.50229 l 66.2729,1.71731 -1.1408,44.02499 -65.44891,-1.69596 c -15.30272,-0.39652 -28.06122,-5.79222 -38.27552,-16.18711 -10.21409,-10.39483 -15.13105,-22.92974 -14.7509,-37.6048 0.43529,-16.79375 6.86591,-30.09476 19.29189,-39.90305 9.70106,-7.6799 23.02693,-11.30027 39.97765,-10.86115 z" /></svg>