<?xml version="1.0" encoding="UTF-8" standalone="no"?>
<!-- Generator: Adobe Illustrator 19.0.0, SVG Export Plug-In . SVG Version: 6.00 Build 0)  -->

<svg
   xmlns:dc="http://purl.org/dc/elements/1.1/"
   xmlns:cc="http://creativecommons.org/ns#"
   xmlns:rdf="http://www.w3.org/1999/02/22-rdf-syntax-ns#"
   xmlns:svg="http://www.w3.org/2000/svg"
   xmlns="http://www.w3.org/2000/svg"
   xmlns:sodipodi="http://sodipodi.sourceforge.net/DTD/sodipodi-0.dtd"
   xmlns:inkscape="http://www.inkscape.org/namespaces/inkscape"
   version="1.1"
   id="Abat-jour"
   x="0px"
   y="0px"
   viewBox="0 0 595.3 841.9"
   style="enable-background:new 0 0 595.3 841.9;"
   xml:space="preserve"
   inkscape:version="0.48.4 r9939"
   width="100%"
   height="100%"
   sodipodi:docname="abat.svg"><metadata
   id="metadata4129"><rdf:RDF><cc:Work
       rdf:about=""><dc:format>image/svg+xml</dc:format><dc:type
         rdf:resource="http://purl.org/dc/dcmitype/StillImage" /><dc:title></dc:title></cc:Work></rdf:RDF></metadata><defs
   id="defs4127">
	
	
	
	
	
	
	
	






</defs><sodipodi:namedview
   pagecolor="#ffffff"
   bordercolor="#666666"
   borderopacity="1"
   objecttolerance="10"
   gridtolerance="10"
   guidetolerance="10"
   inkscape:pageopacity="0"
   inkscape:pageshadow="2"
   inkscape:window-width="1680"
   inkscape:window-height="987"
   id="namedview4125"
   showgrid="false"
   inkscape:zoom="1.1212733"
   inkscape:cx="354.29282"
   inkscape:cy="318.37478"
   inkscape:window-x="-8"
   inkscape:window-y="-8"
   inkscape:window-maximized="1"
   inkscape:current-layer="Abat-jour" />
<style
   type="text/css"
   id="style4016">
	.st0{fill:none;stroke:#FF0000;stroke-width:0.1;stroke-miterlimit:10;}
</style>
<path
   inkscape:connector-curvature="0"
   style="fill:none;stroke:#ff0000;stroke-width:0.03543307;stroke-miterlimit:4;stroke-opacity:1;stroke-dasharray:none"
   d="m 510.7,802.8 c 1.3,-3.8 -0.7,-8 -4.6,-9.3 l 32.2,11 c 67.9,-198.7 63.2,-404.7 0.1,-589.2 l -31.7,10.8 c -2.5,1.3 -3.7,4.3 -2.8,7.1 1.1,3.1 4.4,4.7 7.5,3.7 L 478,248.3 c 3.1,-1.1 4.7,-4.4 3.7,-7.5 -1,-2.8 -3.8,-4.4 -6.6,-3.9 l -53,18.1 c -2.6,1.3 -3.9,4.3 -3,7.2 1.1,3.1 4.4,4.7 7.5,3.7 l -33.4,11.4 c 3.1,-1.1 4.7,-4.4 3.7,-7.5 -1,-2.9 -3.9,-4.5 -6.8,-3.8 l -52.5,17.9 c -2.8,1.2 -4.2,4.4 -3.2,7.3 1.1,3.1 4.4,4.7 7.5,3.7 l -33.4,11.4 c 3.1,-1.1 4.7,-4.4 3.7,-7.5 -1,-3 -4.2,-4.6 -7.3,-3.7 l -23.2,7.9 c 44.3,129.6 47.9,274.6 0.8,414.3 l 23.4,8 c -3.8,-1.3 -8,0.7 -9.3,4.6 -1.3,3.8 0.7,8 4.6,9.3 l 30.6,10.5 c 3.8,1.3 8,-0.7 9.3,-4.6 1.3,-3.8 -0.7,-8 -4.6,-9.3 l 54.1,18.5 c -3.8,-1.3 -8,0.7 -9.3,4.6 -1.3,3.8 0.7,8 4.6,9.3 l 30.6,10.5 c 3.8,1.3 8,-0.7 9.3,-4.6 1.3,-3.8 -0.7,-8 -4.6,-9.3 l 54.1,18.5 c -3.8,-1.3 -8,0.7 -9.3,4.6 -1.3,3.9 0.7,8 4.6,9.3 l 30.6,10.5 c 4,1 8.2,-1 9.5,-4.9 z"
   class="st0"
   id="XMLID_98_" /><line
   style="fill:none;stroke:#ff0000;stroke-width:0.03543307;stroke-miterlimit:4;stroke-opacity:1;stroke-dasharray:none"
   y2="234.5"
   x2="518.40002"
   y1="236.89999"
   x1="511.39999"
   class="st0"
   id="XMLID_97_" /><line
   style="fill:none;stroke:#ff0000;stroke-width:0.03543307;stroke-miterlimit:4;stroke-opacity:1;stroke-dasharray:none"
   y2="250.7"
   x2="471"
   y1="248.3"
   x1="478"
   class="st0"
   id="XMLID_96_" /><line
   style="fill:none;stroke:#ff0000;stroke-width:0.03543307;stroke-miterlimit:4;stroke-opacity:1;stroke-dasharray:none"
   y2="263.39999"
   x2="433.60001"
   y1="265.79999"
   x1="426.60001"
   class="st0"
   id="XMLID_95_" /><line
   style="fill:none;stroke:#ff0000;stroke-width:0.03543307;stroke-miterlimit:4;stroke-opacity:1;stroke-dasharray:none"
   y2="279.60001"
   x2="386.20001"
   y1="277.20001"
   x1="393.20001"
   class="st0"
   id="XMLID_94_" /><line
   style="fill:none;stroke:#ff0000;stroke-width:0.03543307;stroke-miterlimit:4;stroke-opacity:1;stroke-dasharray:none"
   y2="292.39999"
   x2="348.79999"
   y1="294.79999"
   x1="341.79999"
   class="st0"
   id="XMLID_93_" /><line
   style="fill:none;stroke:#ff0000;stroke-width:0.03543307;stroke-miterlimit:4;stroke-opacity:1;stroke-dasharray:none"
   y2="308.5"
   x2="301.39999"
   y1="306.20001"
   x1="308.39999"
   class="st0"
   id="XMLID_92_" /><g
   transform="matrix(0.15239057,-0.98832035,0.98832035,0.15239057,0,0)"
   style="font-size:40px;font-style:normal;font-weight:normal;line-height:125%;letter-spacing:0px;word-spacing:0px;fill:none;fill-opacity:1;stroke:#ff0000;font-family:Sans;stroke-opacity:1;stroke-width:0.03543307;stroke-miterlimit:4;stroke-dasharray:none"
   id="text4729"><path
     d="m -354.78198,433.98682 0,-4.04297 3.51562,0 0,4.04297 z m 0,24.58984 0,-20.74219 3.51562,0 0,20.74219 z"
     style="fill:none;stroke:#ff0000;stroke-opacity:1;stroke-width:0.03543307;stroke-miterlimit:4;stroke-dasharray:none"
     id="path5674" /><path
     d="m -340.13354,458.57666 -7.89063,-20.74219 3.71094,0 4.45312,12.42188 c 0.48176,1.34115 0.92447,2.73438 1.32813,4.17969 0.31249,-1.09375 0.74868,-2.40885 1.30859,-3.94532 l 4.60938,-12.65625 3.61328,0 -7.85156,20.74219 z"
     style="fill:none;stroke:#ff0000;stroke-opacity:1;stroke-width:0.03543307;stroke-miterlimit:4;stroke-dasharray:none"
     id="path5676" /><path
     d="m -312.36011,456.01807 c -1.3021,1.10677 -2.55535,1.88802 -3.75976,2.34375 -1.20444,0.45573 -2.49676,0.68359 -3.87696,0.68359 -2.27865,0 -4.02995,-0.55664 -5.2539,-1.66992 -1.22396,-1.11328 -1.83594,-2.53581 -1.83594,-4.26758 0,-1.01562 0.23112,-1.94335 0.69336,-2.7832 0.46224,-0.83984 1.0677,-1.51367 1.81641,-2.02149 0.74869,-0.5078 1.59179,-0.89191 2.52929,-1.15234 0.6901,-0.18228 1.73177,-0.35806 3.125,-0.52734 2.83853,-0.33853 4.92837,-0.74218 6.26953,-1.21094 0.013,-0.48176 0.0195,-0.78775 0.0195,-0.91797 -2e-5,-1.43228 -0.33205,-2.44139 -0.9961,-3.02734 -0.89845,-0.79426 -2.23308,-1.19139 -4.0039,-1.19141 -1.65366,2e-5 -2.87436,0.28973 -3.66211,0.86914 -0.78777,0.57944 -1.37045,1.60483 -1.74805,3.07617 l -3.4375,-0.46875 c 0.3125,-1.47134 0.82682,-2.65949 1.54297,-3.56445 0.71614,-0.90493 1.75129,-1.60154 3.10547,-2.08985 1.35415,-0.48826 2.92316,-0.7324 4.70703,-0.73242 1.77082,2e-5 3.20962,0.20836 4.3164,0.625 1.10676,0.41669 1.92056,0.94078 2.44141,1.57227 0.52081,0.63153 0.8854,1.42905 1.09375,2.39258 0.11717,0.59897 0.17576,1.6797 0.17578,3.24218 l 0,4.6875 c -2e-5,3.26824 0.0748,5.33529 0.22461,6.20118 0.14972,0.86588 0.44594,1.69596 0.88867,2.49023 l -3.67187,0 c -0.3646,-0.72917 -0.59898,-1.58203 -0.70313,-2.55859 z m -0.29297,-7.85157 c -1.27605,0.52085 -3.19011,0.96356 -5.74218,1.32813 -1.44532,0.20834 -2.46746,0.44272 -3.06641,0.70312 -0.59896,0.26043 -1.0612,0.64129 -1.38672,1.14258 -0.32552,0.50131 -0.48829,1.05795 -0.48828,1.66992 -10e-6,0.93751 0.35481,1.71876 1.06445,2.34375 0.70963,0.62501 1.74804,0.93751 3.11524,0.9375 1.35415,1e-5 2.55858,-0.29622 3.61328,-0.88867 1.05467,-0.59244 1.82941,-1.40299 2.32422,-2.43164 0.37759,-0.79426 0.56639,-1.96614 0.5664,-3.51562 z"
     style="fill:none;stroke:#ff0000;stroke-opacity:1;stroke-width:0.03543307;stroke-miterlimit:4;stroke-dasharray:none"
     id="path5678" /><path
     d="m -303.62964,458.57666 0,-20.74219 3.16406,0 0,2.94922 c 1.52343,-2.27862 3.72395,-3.41795 6.60157,-3.41797 1.24998,2e-5 2.39907,0.22463 3.44726,0.67383 1.04816,0.44924 1.83267,1.03843 2.35352,1.76758 0.52081,0.72918 0.8854,1.59507 1.09375,2.59766 0.13019,0.65105 0.19529,1.79037 0.19531,3.41796 l 0,12.75391 -3.51562,0 0,-12.61719 c -2e-5,-1.43227 -0.13674,-2.50324 -0.41016,-3.21289 -0.27345,-0.70962 -0.75848,-1.27602 -1.45508,-1.69922 -0.69663,-0.42316 -1.51368,-0.63474 -2.45117,-0.63476 -1.49741,2e-5 -2.78972,0.47528 -3.87695,1.42578 -1.08725,0.95054 -1.63087,2.75392 -1.63086,5.41016 l 0,11.32812 z"
     style="fill:none;stroke:#ff0000;stroke-opacity:1;stroke-width:0.03543307;stroke-miterlimit:4;stroke-dasharray:none"
     id="path5680" /><path
     d="m -281.36401,458.57666 0,-20.74219 3.16406,0 0,2.94922 c 1.52343,-2.27862 3.72395,-3.41795 6.60156,-3.41797 1.24999,2e-5 2.39908,0.22463 3.44727,0.67383 1.04816,0.44924 1.83266,1.03843 2.35351,1.76758 0.52082,0.72918 0.8854,1.59507 1.09375,2.59766 0.13019,0.65105 0.1953,1.79037 0.19532,3.41796 l 0,12.75391 -3.51563,0 0,-12.61719 c -2e-5,-1.43227 -0.13673,-2.50324 -0.41016,-3.21289 -0.27345,-0.70962 -0.75847,-1.27602 -1.45507,-1.69922 -0.69663,-0.42316 -1.51369,-0.63474 -2.45118,-0.63476 -1.4974,2e-5 -2.78972,0.47528 -3.87695,1.42578 -1.08725,0.95054 -1.63086,2.75392 -1.63086,5.41016 l 0,11.32812 z"
     style="fill:none;stroke:#ff0000;stroke-opacity:1;stroke-width:0.03543307;stroke-miterlimit:4;stroke-dasharray:none"
     id="path5682" /></g><g
   transform="matrix(0.07059473,-0.99750508,0.99750508,0.07059473,0,0)"
   style="font-size:40px;font-style:normal;font-weight:normal;line-height:125%;letter-spacing:0px;word-spacing:0px;fill:none;fill-opacity:1;stroke:#ff0000;font-family:Sans;stroke-opacity:1;stroke-width:0.03543307;stroke-miterlimit:4;stroke-dasharray:none"
   id="text4733"><path
     d="m -361.61923,548.42767 c -1.3021,1.10678 -2.55535,1.88802 -3.75977,2.34375 -1.20444,0.45573 -2.49675,0.6836 -3.87695,0.6836 -2.27865,0 -4.02995,-0.55664 -5.25391,-1.66992 -1.22396,-1.11328 -1.83594,-2.53581 -1.83593,-4.26758 -10e-6,-1.01562 0.23111,-1.94335 0.69335,-2.78321 0.46224,-0.83983 1.06771,-1.51366 1.81641,-2.02148 0.74869,-0.5078 1.59179,-0.89192 2.5293,-1.15234 0.69009,-0.18228 1.73176,-0.35807 3.125,-0.52735 2.83853,-0.33853 4.92837,-0.74217 6.26953,-1.21094 0.013,-0.48175 0.0195,-0.78774 0.0195,-0.91796 -2e-5,-1.43228 -0.33205,-2.44139 -0.99609,-3.02735 -0.89845,-0.79425 -2.23309,-1.19139 -4.00391,-1.1914 -1.65365,1e-5 -2.87436,0.28973 -3.66211,0.86914 -0.78777,0.57944 -1.37045,1.60483 -1.74805,3.07617 l -3.4375,-0.46875 c 0.3125,-1.47134 0.82682,-2.65949 1.54297,-3.56445 0.71614,-0.90493 1.7513,-1.60155 3.10547,-2.08985 1.35416,-0.48826 2.92317,-0.7324 4.70703,-0.73242 1.77082,2e-5 3.20962,0.20835 4.31641,0.625 1.10675,0.41669 1.92055,0.94077 2.44141,1.57227 0.52081,0.63152 0.88539,1.42905 1.09375,2.39257 0.11716,0.59898 0.17576,1.67971 0.17578,3.24219 l 0,4.6875 c -2e-5,3.26824 0.0748,5.33529 0.22461,6.20117 0.14972,0.86589 0.44594,1.69597 0.88867,2.49024 l -3.67188,0 c -0.3646,-0.72917 -0.59897,-1.58203 -0.70312,-2.5586 z m -0.29297,-7.85156 c -1.27606,0.52084 -3.19012,0.96355 -5.74219,1.32813 -1.44532,0.20834 -2.46745,0.44271 -3.0664,0.70312 -0.59897,0.26043 -1.06121,0.64128 -1.38672,1.14258 -0.32553,0.50131 -0.48829,1.05795 -0.48828,1.66992 -10e-6,0.93751 0.35481,1.71875 1.06445,2.34375 0.70963,0.625 1.74804,0.9375 3.11523,0.9375 1.35416,0 2.55858,-0.29622 3.61328,-0.88867 1.05468,-0.59245 1.82942,-1.40299 2.32422,-2.43164 0.37759,-0.79427 0.56639,-1.96614 0.56641,-3.51563 z"
     style="fill:none;stroke:#ff0000;stroke-opacity:1;stroke-width:0.03543307;stroke-miterlimit:4;stroke-dasharray:none"
     id="path5665" /><path
     d="m -352.96689,550.98627 0,-28.63282 3.51563,0 0,28.63282 z"
     style="fill:none;stroke:#ff0000;stroke-opacity:1;stroke-width:0.03543307;stroke-miterlimit:4;stroke-dasharray:none"
     id="path5667" /><path
     d="m -329.78329,544.30658 3.63281,0.44922 c -0.57294,2.1224 -1.63414,3.76953 -3.1836,4.9414 -1.54949,1.17188 -3.52866,1.75782 -5.9375,1.75782 -3.03386,0 -5.43945,-0.93425 -7.21679,-2.80274 -1.77735,-1.86848 -2.66602,-4.48892 -2.66602,-7.86133 0,-3.48957 0.89844,-6.1979 2.69531,-8.125 1.79687,-1.92706 4.1276,-2.8906 6.99219,-2.89062 2.77343,2e-5 5.03905,0.94403 6.79688,2.83203 1.75779,1.88804 2.63669,4.54429 2.63672,7.96875 -3e-5,0.20834 -0.007,0.52084 -0.0195,0.9375 l -15.46875,0 c 0.13021,2.27865 0.77474,4.02344 1.9336,5.23438 1.15884,1.21094 2.60415,1.8164 4.33594,1.8164 1.28905,0 2.3893,-0.33854 3.30078,-1.01562 0.91144,-0.67708 1.63409,-1.75781 2.16797,-3.24219 z m -11.54297,-5.68359 11.58203,0 c -0.15627,-1.74478 -0.59898,-3.05337 -1.32813,-3.92579 -1.1198,-1.35414 -2.57162,-2.03123 -4.35547,-2.03125 -1.61459,2e-5 -2.97201,0.54039 -4.07226,1.6211 -1.10027,1.08074 -1.70899,2.52605 -1.82617,4.33594 z"
     style="fill:none;stroke:#ff0000;stroke-opacity:1;stroke-width:0.03543307;stroke-miterlimit:4;stroke-dasharray:none"
     id="path5669" /><path
     d="m -324.06064,550.98627 7.57813,-10.78125 -7.01172,-9.96094 4.39453,0 3.18359,4.86328 c 0.59895,0.92449 1.08072,1.69923 1.44532,2.32422 0.5729,-0.85936 1.10024,-1.62108 1.58203,-2.28516 l 3.49609,-4.90234 4.19922,0 -7.16797,9.76562 7.71484,10.97657 -4.3164,0 -4.25781,-6.44532 -1.13282,-1.73828 -5.44922,8.1836 z"
     style="fill:none;stroke:#ff0000;stroke-opacity:1;stroke-width:0.03543307;stroke-miterlimit:4;stroke-dasharray:none"
     id="path5671" /></g><g
   transform="matrix(0.10423818,-0.99455236,0.99455236,0.10423818,0,0)"
   style="font-size:40px;font-style:normal;font-weight:normal;line-height:125%;letter-spacing:0px;word-spacing:0px;fill:none;fill-opacity:1;stroke:#ff0000;font-family:Sans;stroke-opacity:1;stroke-width:0.03543307;stroke-miterlimit:4;stroke-dasharray:none"
   id="text4737"><path
     d="m -503.26566,463.59894 -7.89062,-20.74219 3.71094,0 4.45312,12.42188 c 0.48176,1.34115 0.92447,2.73438 1.32813,4.17968 0.31249,-1.09374 0.74868,-2.40884 1.30859,-3.94531 l 4.60938,-12.65625 3.61328,0 -7.85157,20.74219 z"
     style="fill:none;stroke:#ff0000;stroke-opacity:1;stroke-width:0.03543307;stroke-miterlimit:4;stroke-dasharray:none"
     id="path5685" /><path
     d="m -475.49222,461.04034 c -1.3021,1.10678 -2.55535,1.88803 -3.75976,2.34375 -1.20444,0.45573 -2.49676,0.6836 -3.87696,0.6836 -2.27865,0 -4.02995,-0.55664 -5.2539,-1.66992 -1.22396,-1.11328 -1.83594,-2.53581 -1.83594,-4.26758 0,-1.01562 0.23112,-1.94335 0.69336,-2.78321 0.46224,-0.83983 1.0677,-1.51366 1.81641,-2.02148 0.74869,-0.5078 1.59179,-0.89192 2.52929,-1.15234 0.6901,-0.18228 1.73176,-0.35806 3.125,-0.52735 2.83853,-0.33853 4.92837,-0.74217 6.26953,-1.21093 0.013,-0.48176 0.0195,-0.78775 0.0195,-0.91797 -10e-6,-1.43228 -0.33204,-2.44139 -0.99609,-3.02735 -0.89845,-0.79425 -2.23308,-1.19138 -4.00391,-1.1914 -1.65365,2e-5 -2.87435,0.28973 -3.6621,0.86914 -0.78777,0.57944 -1.37045,1.60483 -1.74805,3.07617 l -3.4375,-0.46875 c 0.3125,-1.47134 0.82682,-2.65949 1.54297,-3.56445 0.71614,-0.90493 1.75129,-1.60155 3.10547,-2.08985 1.35415,-0.48826 2.92316,-0.7324 4.70703,-0.73242 1.77082,2e-5 3.20962,0.20835 4.3164,0.625 1.10676,0.41669 1.92056,0.94078 2.44141,1.57227 0.52081,0.63152 0.8854,1.42905 1.09375,2.39257 0.11717,0.59898 0.17576,1.67971 0.17578,3.24219 l 0,4.6875 c -2e-5,3.26824 0.0749,5.33529 0.22461,6.20117 0.14972,0.86589 0.44594,1.69597 0.88867,2.49024 l -3.67187,0 c -0.3646,-0.72917 -0.59898,-1.58203 -0.70313,-2.5586 z m -0.29297,-7.85156 c -1.27605,0.52084 -3.19011,0.96355 -5.74218,1.32813 -1.44533,0.20834 -2.46746,0.44271 -3.06641,0.70312 -0.59897,0.26043 -1.0612,0.64129 -1.38672,1.14258 -0.32553,0.50131 -0.48829,1.05795 -0.48828,1.66992 -1e-5,0.93751 0.35481,1.71876 1.06445,2.34375 0.70963,0.625 1.74804,0.9375 3.11524,0.9375 1.35415,0 2.55858,-0.29622 3.61328,-0.88867 1.05467,-0.59244 1.82941,-1.40299 2.32422,-2.43164 0.37759,-0.79427 0.56639,-1.96614 0.5664,-3.51563 z"
     style="fill:none;stroke:#ff0000;stroke-opacity:1;stroke-width:0.03543307;stroke-miterlimit:4;stroke-dasharray:none"
     id="path5687" /><path
     d="m -453.30472,463.59894 0,-2.61719 c -1.31512,2.05729 -3.24871,3.08594 -5.80078,3.08594 -1.65365,0 -3.17383,-0.45573 -4.56055,-1.36719 -1.38672,-0.91146 -2.46094,-2.18424 -3.22265,-3.81836 -0.76172,-1.63411 -1.14258,-3.51236 -1.14258,-5.63476 0,-2.0703 0.34505,-3.94856 1.03516,-5.63477 0.6901,-1.68618 1.72525,-2.9785 3.10546,-3.87695 1.38021,-0.89842 2.92317,-1.34764 4.62891,-1.34766 1.24999,2e-5 2.36327,0.26369 3.33984,0.79102 0.97655,0.52736 1.77082,1.21421 2.38282,2.06054 l 0,-10.27343 3.49609,0 0,28.63281 z M -464.418,453.24738 c 0,2.65625 0.55989,4.64193 1.67969,5.95703 1.11978,1.3151 2.4414,1.97266 3.96484,1.97265 1.53645,1e-5 2.84179,-0.62825 3.91602,-1.88476 1.0742,-1.25651 1.61131,-3.17382 1.61133,-5.75196 -2e-5,-2.83852 -0.54689,-4.92186 -1.64063,-6.25 -1.09376,-1.3281 -2.44142,-1.99216 -4.04297,-1.99218 -1.56251,2e-5 -2.86784,0.63804 -3.91601,1.91406 -1.04819,1.27606 -1.57227,3.28777 -1.57227,6.03516 z"
     style="fill:none;stroke:#ff0000;stroke-opacity:1;stroke-width:0.03543307;stroke-miterlimit:4;stroke-dasharray:none"
     id="path5689" /><path
     d="m -444.47659,439.00909 0,-4.04296 3.51562,0 0,4.04296 z m 0,24.58985 0,-20.74219 3.51562,0 0,20.74219 z"
     style="fill:none;stroke:#ff0000;stroke-opacity:1;stroke-width:0.03543307;stroke-miterlimit:4;stroke-dasharray:none"
     id="path5691" /><path
     d="m -435.58987,463.59894 0,-20.74219 3.14453,0 0,2.91016 c 0.65103,-1.01561 1.51692,-1.83267 2.59765,-2.45118 1.08072,-0.61846 2.31119,-0.92771 3.69141,-0.92773 1.53644,2e-5 2.79621,0.31903 3.7793,0.95703 0.98305,0.63804 1.67641,1.52997 2.08007,2.67578 1.64061,-2.42185 3.77602,-3.63279 6.40625,-3.63281 2.05727,2e-5 3.6393,0.56968 4.7461,1.70898 1.10674,1.13935 1.66012,2.8939 1.66015,5.26368 l 0,14.23828 -3.49609,0 0,-13.06641 c -3e-5,-1.40623 -0.11396,-2.4186 -0.3418,-3.03711 -0.22789,-0.61847 -0.6413,-1.11652 -1.24023,-1.49414 -0.59898,-0.37758 -1.30211,-0.56639 -2.10938,-0.5664 -1.45835,10e-6 -2.66929,0.48504 -3.63281,1.45507 -0.96356,0.97007 -1.44533,2.5228 -1.44531,4.65821 l 0,12.05078 -3.51563,0 0,-13.47656 c -10e-6,-1.56249 -0.28647,-2.73436 -0.85937,-3.51563 -0.57293,-0.78123 -1.51043,-1.17186 -2.8125,-1.17187 -0.98959,10e-6 -1.90431,0.26043 -2.74414,0.78125 -0.83985,0.52085 -1.44858,1.28256 -1.82617,2.28515 -0.37761,1.00262 -0.56642,2.44793 -0.56641,4.33594 l 0,10.76172 z"
     style="fill:none;stroke:#ff0000;stroke-opacity:1;stroke-width:0.03543307;stroke-miterlimit:4;stroke-dasharray:none"
     id="path5693" /></g><g
   transform="matrix(-0.03142965,-0.99950597,0.99950597,-0.03142965,0,0)"
   style="font-size:40px;font-style:normal;font-weight:normal;line-height:125%;letter-spacing:0px;word-spacing:0px;fill:none;fill-opacity:1;stroke:#ff0000;font-family:Sans;stroke-opacity:1;stroke-width:0.03543307;stroke-miterlimit:4;stroke-dasharray:none"
   id="text4741"><path
     d="m -685.32715,352.21704 0,-20.74219 3.16406,0 0,3.14453 c 0.80729,-1.47133 1.55273,-2.44138 2.23633,-2.91015 0.68359,-0.46873 1.43554,-0.70311 2.25586,-0.70313 1.18489,2e-5 2.38931,0.37763 3.61328,1.13282 l -1.21093,3.26171 c -0.85939,-0.50779 -1.71877,-0.7617 -2.57813,-0.76171 -0.76824,1e-5 -1.45834,0.23113 -2.07031,0.69336 -0.61199,0.46225 -1.04819,1.10353 -1.3086,1.92382 -0.39063,1.25002 -0.58594,2.6172 -0.58593,4.10157 l 0,10.85937 z"
     style="fill:none;stroke:#ff0000;stroke-opacity:1;stroke-width:0.03543307;stroke-miterlimit:4;stroke-dasharray:none"
     id="path5696" /><path
     d="m -671.90918,327.6272 0,-4.04297 3.51563,0 0,4.04297 z m 0,24.58984 0,-20.74219 3.51563,0 0,20.74219 z"
     style="fill:none;stroke:#ff0000;stroke-opacity:1;stroke-width:0.03543307;stroke-miterlimit:4;stroke-dasharray:none"
     id="path5698" /><path
     d="m -655.34668,349.07251 0.50781,3.10547 c -0.98959,0.20833 -1.87501,0.3125 -2.65625,0.3125 -1.27605,0 -2.26563,-0.20182 -2.96875,-0.60547 -0.70313,-0.40365 -1.19792,-0.93424 -1.48437,-1.5918 -0.28646,-0.65755 -0.42969,-2.04101 -0.42969,-4.15039 l 0,-11.93359 -2.57812,0 0,-2.73438 2.57812,0 0,-5.13672 3.49609,-2.10937 0,7.24609 3.53516,0 0,2.73438 -3.53516,0 0,12.1289 c 0,1.00261 0.0619,1.64714 0.18555,1.9336 0.12369,0.28646 0.32551,0.51432 0.60547,0.68359 0.27994,0.16928 0.68033,0.25391 1.20117,0.25391 0.39062,0 0.90494,-0.0456 1.54297,-0.13672 z"
     style="fill:none;stroke:#ff0000;stroke-opacity:1;stroke-width:0.03543307;stroke-miterlimit:4;stroke-dasharray:none"
     id="path5700" /><path
     d="m -638.39355,349.65845 c -1.3021,1.10677 -2.55536,1.88802 -3.75977,2.34375 -1.20444,0.45573 -2.49676,0.68359 -3.87695,0.68359 -2.27866,0 -4.02996,-0.55664 -5.25391,-1.66992 -1.22396,-1.11328 -1.83594,-2.5358 -1.83594,-4.26758 0,-1.01562 0.23112,-1.94335 0.69336,-2.7832 0.46224,-0.83984 1.06771,-1.51366 1.81641,-2.02149 0.74869,-0.5078 1.59179,-0.89191 2.5293,-1.15234 0.69009,-0.18228 1.73176,-0.35806 3.125,-0.52734 2.83852,-0.33853 4.92837,-0.74218 6.26953,-1.21094 0.013,-0.48176 0.0195,-0.78775 0.0195,-0.91797 -2e-5,-1.43228 -0.33205,-2.44139 -0.9961,-3.02734 -0.89845,-0.79426 -2.23308,-1.19139 -4.0039,-1.19141 -1.65366,2e-5 -2.87436,0.28973 -3.66211,0.86914 -0.78777,0.57944 -1.37045,1.60483 -1.74805,3.07617 l -3.4375,-0.46875 c 0.3125,-1.47134 0.82682,-2.65949 1.54297,-3.56445 0.71614,-0.90493 1.7513,-1.60154 3.10547,-2.08984 1.35416,-0.48826 2.92317,-0.73241 4.70703,-0.73243 1.77082,2e-5 3.20962,0.20836 4.31641,0.625 1.10675,0.41669 1.92055,0.94078 2.4414,1.57227 0.52082,0.63153 0.8854,1.42905 1.09375,2.39258 0.11717,0.59897 0.17576,1.6797 0.17578,3.24218 l 0,4.6875 c -2e-5,3.26824 0.0748,5.33529 0.22461,6.20118 0.14972,0.86588 0.44595,1.69596 0.88868,2.49023 l -3.67188,0 c -0.3646,-0.72916 -0.59897,-1.58203 -0.70312,-2.55859 z m -0.29297,-7.85157 c -1.27606,0.52085 -3.19012,0.96356 -5.74219,1.32813 -1.44532,0.20834 -2.46746,0.44272 -3.06641,0.70312 -0.59896,0.26043 -1.0612,0.64129 -1.38672,1.14258 -0.32552,0.50131 -0.48828,1.05795 -0.48828,1.66992 0,0.93751 0.35481,1.71876 1.06446,2.34375 0.70962,0.62501 1.74803,0.93751 3.11523,0.9375 1.35416,1e-5 2.55858,-0.29622 3.61328,-0.88867 1.05468,-0.59244 1.82941,-1.40299 2.32422,-2.43164 0.37759,-0.79426 0.56639,-1.96614 0.56641,-3.51562 z"
     style="fill:none;stroke:#ff0000;stroke-opacity:1;stroke-width:0.03543307;stroke-miterlimit:4;stroke-dasharray:none"
     id="path5702" /></g><g
   transform="matrix(-0.02607688,-0.99965994,0.99965994,-0.02607688,0,0)"
   style="font-size:40px;font-style:normal;font-weight:normal;line-height:125%;letter-spacing:0px;word-spacing:0px;fill:none;fill-opacity:1;stroke:#ff0000;font-family:Sans;stroke-opacity:1;stroke-width:0.03543307;stroke-miterlimit:4;stroke-dasharray:none"
   id="text4745"><path
     d="m -639.96271,506.10947 0,-28.63282 3.51563,0 0,28.63282 z"
     style="fill:none;stroke:#ff0000;stroke-opacity:1;stroke-width:0.03543307;stroke-miterlimit:4;stroke-dasharray:none"
     id="path5716" /><path
     d="m -616.77911,499.42978 3.63281,0.44922 c -0.57294,2.1224 -1.63413,3.76953 -3.1836,4.9414 -1.54949,1.17188 -3.52865,1.75782 -5.9375,1.75782 -3.03386,0 -5.43945,-0.93425 -7.21679,-2.80274 -1.77735,-1.86848 -2.66602,-4.48892 -2.66602,-7.86133 0,-3.48957 0.89844,-6.1979 2.69531,-8.125 1.79687,-1.92706 4.1276,-2.8906 6.99219,-2.89062 2.77343,2e-5 5.03905,0.94403 6.79688,2.83203 1.75779,1.88804 2.6367,4.54428 2.63672,7.96875 -2e-5,0.20834 -0.007,0.52084 -0.0195,0.9375 l -15.46875,0 c 0.13021,2.27865 0.77474,4.02344 1.9336,5.23438 1.15884,1.21094 2.60416,1.8164 4.33594,1.8164 1.28905,0 2.38931,-0.33854 3.30078,-1.01562 0.91144,-0.67708 1.6341,-1.75781 2.16797,-3.24219 z m -11.54297,-5.68359 11.58203,0 c -0.15627,-1.74478 -0.59898,-3.05337 -1.32813,-3.92579 -1.1198,-1.35414 -2.57162,-2.03123 -4.35547,-2.03125 -1.61459,2e-5 -2.97201,0.54039 -4.07226,1.6211 -1.10027,1.08074 -1.70899,2.52605 -1.82617,4.33594 z m 3.80859,-10.95704 2.59766,-5.46875 4.60937,0 -4.29687,5.46875 z"
     style="fill:none;stroke:#ff0000;stroke-opacity:1;stroke-width:0.03543307;stroke-miterlimit:4;stroke-dasharray:none"
     id="path5718" /><path
     d="m -610.0213,495.73837 c 0,-3.84113 1.0677,-6.68618 3.20312,-8.53515 1.78385,-1.53644 3.95833,-2.30467 6.52344,-2.30469 2.85155,2e-5 5.18228,0.93426 6.99219,2.80273 1.80987,1.86851 2.71482,4.44989 2.71484,7.74414 -2e-5,2.66928 -0.40041,4.76889 -1.20117,6.29883 -0.8008,1.52995 -1.96616,2.7181 -3.49609,3.56446 -1.52997,0.84635 -3.19989,1.26953 -5.00977,1.26953 -2.90365,0 -5.25066,-0.93099 -7.04101,-2.79297 -1.79037,-1.86198 -2.68555,-4.54427 -2.68555,-8.04688 z m 3.61328,0 c 0,2.65626 0.57942,4.64519 1.73828,5.9668 1.15885,1.32162 2.61718,1.98242 4.375,1.98242 1.74478,0 3.1966,-0.66406 4.35547,-1.99219 1.15884,-1.32812 1.73826,-3.35285 1.73828,-6.07421 -2e-5,-2.5651 -0.5827,-4.50845 -1.74805,-5.83008 -1.16537,-1.3216 -2.61394,-1.98241 -4.3457,-1.98242 -1.75782,10e-6 -3.21615,0.65757 -4.375,1.97265 -1.15886,1.31512 -1.73828,3.3008 -1.73828,5.95703 z"
     style="fill:none;stroke:#ff0000;stroke-opacity:1;stroke-width:0.03543307;stroke-miterlimit:4;stroke-dasharray:none"
     id="path5720" /><path
     d="m -586.44708,506.10947 0,-20.74219 3.16406,0 0,2.94922 c 1.52343,-2.27863 3.72395,-3.41795 6.60156,-3.41797 1.24999,2e-5 2.39908,0.22463 3.44727,0.67383 1.04816,0.44924 1.83266,1.03843 2.35351,1.76758 0.52082,0.72918 0.8854,1.59506 1.09375,2.59765 0.13019,0.65106 0.1953,1.79038 0.19532,3.41797 l 0,12.75391 -3.51563,0 0,-12.61719 c -10e-6,-1.43228 -0.13673,-2.50324 -0.41016,-3.21289 -0.27345,-0.70962 -0.75847,-1.27603 -1.45507,-1.69922 -0.69663,-0.42316 -1.51369,-0.63475 -2.45118,-0.63477 -1.4974,2e-5 -2.78972,0.47528 -3.87695,1.42579 -1.08724,0.95053 -1.63086,2.75392 -1.63086,5.41015 l 0,11.32813 z"
     style="fill:none;stroke:#ff0000;stroke-opacity:1;stroke-width:0.03543307;stroke-miterlimit:4;stroke-dasharray:none"
     id="path5722" /><path
     d="m -550.6463,503.55087 c -1.3021,1.10678 -2.55535,1.88802 -3.75977,2.34375 -1.20444,0.45573 -2.49675,0.6836 -3.87695,0.6836 -2.27865,0 -4.02995,-0.55664 -5.25391,-1.66993 -1.22396,-1.11327 -1.83594,-2.5358 -1.83593,-4.26757 -1e-5,-1.01562 0.23111,-1.94336 0.69336,-2.78321 0.46223,-0.83983 1.0677,-1.51366 1.8164,-2.02148 0.7487,-0.5078 1.59179,-0.89192 2.5293,-1.15234 0.6901,-0.18228 1.73176,-0.35807 3.125,-0.52735 2.83853,-0.33853 4.92837,-0.74217 6.26953,-1.21094 0.013,-0.48175 0.0195,-0.78774 0.0195,-0.91796 -10e-6,-1.43228 -0.33205,-2.44139 -0.99609,-3.02735 -0.89845,-0.79425 -2.23309,-1.19139 -4.00391,-1.1914 -1.65365,10e-6 -2.87436,0.28973 -3.66211,0.86914 -0.78777,0.57944 -1.37045,1.60483 -1.74805,3.07617 l -3.4375,-0.46875 c 0.3125,-1.47134 0.82683,-2.65949 1.54297,-3.56446 0.71615,-0.90492 1.7513,-1.60154 3.10547,-2.08984 1.35416,-0.48826 2.92317,-0.7324 4.70703,-0.73242 1.77082,2e-5 3.20962,0.20835 4.31641,0.625 1.10675,0.41669 1.92056,0.94077 2.44141,1.57226 0.52081,0.63153 0.88539,1.42906 1.09375,2.39258 0.11716,0.59898 0.17576,1.67971 0.17578,3.24219 l 0,4.6875 c -2e-5,3.26823 0.0749,5.33529 0.22461,6.20117 0.14972,0.86589 0.44594,1.69597 0.88867,2.49024 l -3.67188,0 c -0.3646,-0.72917 -0.59897,-1.58203 -0.70312,-2.5586 z m -0.29297,-7.85156 c -1.27606,0.52084 -3.19012,0.96355 -5.74219,1.32813 -1.44532,0.20834 -2.46745,0.44271 -3.0664,0.70312 -0.59897,0.26043 -1.06121,0.64128 -1.38672,1.14258 -0.32553,0.50131 -0.48829,1.05795 -0.48828,1.66992 -1e-5,0.9375 0.35481,1.71875 1.06445,2.34375 0.70963,0.625 1.74804,0.9375 3.11523,0.9375 1.35416,0 2.55859,-0.29622 3.61328,-0.88867 1.05468,-0.59245 1.82942,-1.40299 2.32422,-2.43164 0.37759,-0.79427 0.56639,-1.96614 0.56641,-3.51563 z"
     style="fill:none;stroke:#ff0000;stroke-opacity:1;stroke-width:0.03543307;stroke-miterlimit:4;stroke-dasharray:none"
     id="path5724" /><path
     d="m -541.9549,506.10947 0,-20.74219 3.16407,0 0,3.14453 c 0.80728,-1.47133 1.55272,-2.44139 2.23633,-2.91016 0.68358,-0.46872 1.43553,-0.7031 2.25585,-0.70312 1.18489,2e-5 2.38932,0.37762 3.61329,1.13281 l -1.21094,3.26172 c -0.85939,-0.50779 -1.71876,-0.7617 -2.57813,-0.76172 -0.76823,2e-5 -1.45834,0.23114 -2.07031,0.69336 -0.61199,0.46226 -1.04818,1.10353 -1.30859,1.92383 -0.39063,1.25001 -0.58595,2.6172 -0.58594,4.10156 l 0,10.85938 z"
     style="fill:none;stroke:#ff0000;stroke-opacity:1;stroke-width:0.03543307;stroke-miterlimit:4;stroke-dasharray:none"
     id="path5726" /><path
     d="m -515.09943,506.10947 0,-2.61719 c -1.31512,2.05729 -3.24871,3.08594 -5.80078,3.08594 -1.65365,0 -3.17383,-0.45573 -4.56054,-1.36719 -1.38673,-0.91146 -2.46095,-2.18424 -3.22266,-3.81836 -0.76172,-1.63411 -1.14258,-3.51236 -1.14258,-5.63477 0,-2.0703 0.34505,-3.94855 1.03516,-5.63476 0.6901,-1.68618 1.72525,-2.9785 3.10547,-3.87695 1.3802,-0.89842 2.92316,-1.34764 4.6289,-1.34766 1.24999,2e-5 2.36327,0.26369 3.33985,0.79101 0.97654,0.52737 1.77081,1.21422 2.38281,2.06055 l 0,-10.27344 3.49609,0 0,28.63282 z m -11.11328,-10.35157 c 0,2.65626 0.55989,4.64194 1.67969,5.95704 1.11978,1.3151 2.4414,1.97265 3.96484,1.97265 1.53645,0 2.84179,-0.62825 3.91602,-1.88476 1.0742,-1.25651 1.61131,-3.17382 1.61133,-5.75196 -2e-5,-2.83853 -0.54689,-4.92186 -1.64063,-6.25 -1.09376,-1.3281 -2.44142,-1.99217 -4.04297,-1.99218 -1.56251,10e-6 -2.86784,0.63803 -3.91601,1.91406 -1.04818,1.27605 -1.57227,3.28777 -1.57227,6.03515 z"
     style="fill:none;stroke:#ff0000;stroke-opacity:1;stroke-width:0.03543307;stroke-miterlimit:4;stroke-dasharray:none"
     id="path5728" /></g><g
   transform="matrix(-0.06687631,-0.99776127,0.99776127,-0.06687631,0,0)"
   style="font-size:72px;font-style:normal;font-weight:normal;line-height:125%;letter-spacing:0px;word-spacing:0px;fill:none;fill-opacity:1;stroke:#ff0000;font-family:Sans;stroke-opacity:1;stroke-width:0.03543307;stroke-miterlimit:4;stroke-dasharray:none"
   id="text4749"><path
     d="m -776.81366,417.18784 0,-51.53907 6.32813,0 0,51.53907 z"
     style="fill:none;stroke:#ff0000;stroke-opacity:1;stroke-width:0.03543307;stroke-miterlimit:4;stroke-dasharray:none"
     id="path5705" /><path
     d="m -736.2785,412.58237 c -2.34378,1.99219 -4.59964,3.39844 -6.76758,4.21875 -2.16799,0.82031 -4.49416,1.23046 -6.97852,1.23047 -4.10157,-10e-6 -7.25391,-1.00196 -9.45703,-3.00586 -2.20313,-2.00391 -3.30469,-4.56445 -3.30469,-7.68164 0,-1.82812 0.41602,-3.49804 1.24805,-5.00977 0.83203,-1.5117 1.92187,-2.72459 3.26953,-3.63867 1.34765,-0.91404 2.86523,-1.60545 4.55274,-2.07422 1.24217,-0.3281 3.11717,-0.64451 5.625,-0.94922 5.10935,-0.60935 8.87106,-1.33591 11.28515,-2.17969 0.0234,-0.86716 0.0351,-1.41794 0.0352,-1.65234 -3e-5,-2.5781 -0.59769,-4.3945 -1.79297,-5.44922 -1.61721,-1.42965 -4.01955,-2.1445 -7.20703,-2.14453 -2.97658,3e-5 -5.17384,0.52152 -6.5918,1.56445 -1.41798,1.043 -2.46681,2.8887 -3.14648,5.53711 l -6.1875,-0.84375 c 0.56249,-2.64841 1.48827,-4.78708 2.77734,-6.41601 1.28906,-1.62888 3.15234,-2.88278 5.58985,-3.76172 2.43748,-0.87887 5.2617,-1.31832 8.47265,-1.31836 3.18748,4e-5 5.77732,0.37504 7.76953,1.125 1.99216,0.75003 3.457,1.69339 4.39453,2.83008 0.93747,1.13675 1.59372,2.57229 1.96875,4.30664 0.21091,1.07815 0.31638,3.02346 0.31641,5.83593 l 0,8.4375 c -3e-5,5.88283 0.13473,9.60353 0.4043,11.16211 0.26949,1.5586 0.8027,3.05274 1.59961,4.48243 l -6.60938,0 c -0.65628,-1.3125 -1.07815,-2.84766 -1.26562,-4.60547 z m -0.52735,-14.13282 c -2.2969,0.93752 -5.74221,1.7344 -10.33593,2.39063 -2.60158,0.37502 -4.44142,0.79689 -5.51954,1.26562 -1.07813,0.46877 -1.91016,1.15432 -2.49609,2.05665 -0.58595,0.90235 -0.87892,1.9043 -0.87891,3.00585 -10e-6,1.68751 0.63867,3.09376 1.91602,4.21875 1.27733,1.12501 3.14647,1.68751 5.60742,1.6875 2.43748,1e-5 4.60545,-0.53319 6.50391,-1.5996 1.89841,-1.0664 3.29294,-2.52539 4.18359,-4.37696 0.67966,-1.42967 1.0195,-3.53905 1.01953,-6.32812 z"
     style="fill:none;stroke:#ff0000;stroke-opacity:1;stroke-width:0.03543307;stroke-miterlimit:4;stroke-dasharray:none"
     id="path5707" /><path
     d="m -723.09491,406.0433 6.25781,-0.98437 c 0.35156,2.50782 1.33007,4.42969 2.93555,5.76562 1.60546,1.33595 3.84959,2.00392 6.73242,2.00391 2.90623,10e-6 5.06248,-0.59179 6.46875,-1.77539 1.40623,-1.18359 2.10935,-2.57226 2.10938,-4.16602 -3e-5,-1.42967 -0.62112,-2.55467 -1.86328,-3.375 -0.86722,-0.56248 -3.02346,-1.27732 -6.46875,-2.14453 -4.64064,-1.17185 -7.85744,-2.18553 -9.6504,-3.04101 -1.79297,-0.85545 -3.15234,-2.03904 -4.07812,-3.55078 -0.92579,-1.5117 -1.38868,-3.18162 -1.38867,-5.00977 -10e-6,-1.66403 0.38085,-3.20505 1.14258,-4.62305 0.76171,-1.41793 1.79882,-2.59566 3.11132,-3.5332 0.98437,-0.72653 2.32617,-1.34176 4.02539,-1.8457 1.69921,-0.50387 3.52147,-0.75582 5.4668,-0.75586 2.92967,4e-5 5.50193,0.42191 7.7168,1.26562 2.21482,0.84379 3.84958,1.98637 4.9043,3.42774 1.05465,1.44144 1.78121,3.36917 2.17968,5.7832 l -6.1875,0.84375 c -0.28127,-1.92185 -1.09572,-3.42184 -2.44336,-4.5 -1.34767,-1.07809 -3.25197,-1.61715 -5.71289,-1.61719 -2.90626,4e-5 -4.98048,0.4805 -6.22265,1.44141 -1.2422,0.96097 -1.86329,2.08597 -1.86328,3.375 -10e-6,0.82034 0.2578,1.55862 0.77343,2.21484 0.51562,0.67972 1.32421,1.24222 2.42578,1.6875 0.6328,0.2344 2.49608,0.77346 5.58985,1.61719 4.47654,1.19533 7.59958,2.17385 9.36914,2.93555 1.7695,0.76174 3.15817,1.86916 4.16601,3.32226 1.00778,1.45314 1.51169,3.25783 1.51172,5.41407 -3e-5,2.10938 -0.61526,4.09571 -1.8457,5.95898 -1.2305,1.86328 -3.00589,3.30469 -5.32617,4.32422 -2.32034,1.01953 -4.94534,1.52929 -7.875,1.5293 -4.85158,-10e-6 -8.54884,-1.00782 -11.0918,-3.02344 -2.54297,-2.01562 -4.16602,-5.0039 -4.86914,-8.96485 z"
     style="fill:none;stroke:#ff0000;stroke-opacity:1;stroke-width:0.03543307;stroke-miterlimit:4;stroke-dasharray:none"
     id="path5709" /><path
     d="m -659.00507,405.1644 6.53907,0.80859 c -1.03129,3.82032 -2.94144,6.78516 -5.73047,8.89453 -2.78909,2.10938 -6.35159,3.16406 -10.6875,3.16407 -5.46095,-10e-6 -9.79103,-1.68164 -12.99024,-5.04493 -3.19922,-3.36327 -4.79883,-8.08006 -4.79882,-14.15039 -10e-6,-6.28122 1.61718,-11.15622 4.85156,-14.625 3.23436,-3.46871 7.42967,-5.20308 12.58594,-5.20312 4.99216,4e-5 9.07028,1.69925 12.23437,5.09765 3.16403,3.39847 4.74606,8.17972 4.74609,14.34375 -3e-5,0.37502 -0.0118,0.93752 -0.0351,1.6875 l -27.84375,0 c 0.23436,4.10158 1.39452,7.2422 3.48047,9.42188 2.08592,2.17969 4.68748,3.26954 7.80468,3.26953 2.32029,10e-6 4.30076,-0.60937 5.94141,-1.82812 1.6406,-1.21875 2.94138,-3.16406 3.90234,-5.83594 z m -20.77734,-10.23047 20.84766,0 c -0.28128,-3.1406 -1.07816,-5.49607 -2.39063,-7.06641 -2.01565,-2.43747 -4.62893,-3.65621 -7.83984,-3.65625 -2.90627,4e-5 -5.34963,0.97269 -7.33008,2.91797 -1.98048,1.94534 -3.07618,4.5469 -3.28711,7.80469 z"
     style="fill:none;stroke:#ff0000;stroke-opacity:1;stroke-width:0.03543307;stroke-miterlimit:4;stroke-dasharray:none"
     id="path5711" /><path
     d="m -644.55585,417.18784 0,-37.33594 5.69532,0 0,5.66015 c 1.45311,-2.6484 2.7949,-4.39449 4.02539,-5.23828 1.23045,-0.84371 2.58396,-1.26558 4.06054,-1.26562 2.13279,4e-5 4.30076,0.67972 6.50391,2.03906 l -2.17969,5.87109 c -1.54689,-0.91403 -3.09377,-1.37106 -4.64062,-1.37109 -1.38283,3e-5 -2.62502,0.41605 -3.72657,1.24805 -1.10157,0.83206 -1.88673,1.98635 -2.35546,3.46289 -0.70314,2.25002 -1.0547,4.71096 -1.05469,7.38281 l 0,19.54688 z"
     style="fill:none;stroke:#ff0000;stroke-opacity:1;stroke-width:0.03543307;stroke-miterlimit:4;stroke-dasharray:none"
     id="path5713" /></g><path
   inkscape:transform-center-y="-1.9282286"
   inkscape:transform-center-x="-1.3990458"
   transform="translate(0,-2.0838898e-5)"
   d="m 490.62888,474.87426 -17.94264,-18.61457 -22.17558,13.29224 12.15892,-22.81668 -19.49431,-16.98271 25.45727,4.51309 10.12744,-23.78814 3.57454,25.60592 25.75341,2.28084 -23.24809,11.31224 z"
   inkscape:randomized="0"
   inkscape:rounded="0"
   inkscape:flatsided="false"
   sodipodi:arg2="1.7026921"
   sodipodi:arg1="1.0743736"
   sodipodi:r2="11.757722"
   sodipodi:r1="34.42561"
   sodipodi:cy="444.6041"
   sodipodi:cx="474.23254"
   sodipodi:sides="5"
   id="path4753"
   style="fill:none;stroke:#ff0000;stroke-width:0.03543307;stroke-miterlimit:4;stroke-opacity:1;stroke-dasharray:none"
   sodipodi:type="star" /><path
   inkscape:transform-center-y="1.1692432"
   inkscape:transform-center-x="-1.8989515"
   transform="translate(0,-2.0838898e-5)"
   d="m 466.66499,302.08211 -23.57852,3.59173 -1.80773,23.78191 -10.7021,-21.3146 -23.17656,5.62976 16.96425,-16.76488 -12.51616,-20.30253 21.18659,10.95334 15.44114,-18.17741 -3.87023,23.53441 z"
   inkscape:randomized="0"
   inkscape:rounded="0"
   inkscape:flatsided="false"
   sodipodi:arg2="0.74774746"
   sodipodi:arg1="0.11942893"
   sodipodi:r2="10.846502"
   sodipodi:r1="31.757633"
   sodipodi:cy="298.29834"
   sodipodi:cx="435.13358"
   sodipodi:sides="5"
   id="path4755"
   style="fill:none;stroke:#ff0000;stroke-width:0.03543307;stroke-miterlimit:4;stroke-opacity:1;stroke-dasharray:none"
   sodipodi:type="star" /><path
   inkscape:transform-center-y="-1.8081988"
   inkscape:transform-center-x="0.17499305"
   transform="translate(0,-2.0838898e-5)"
   d="m 517.11528,310.9109 -35.12179,-28.2527 10.81288,28.91837 16.01668,-42.13337 -24.16164,19.21992 45.02064,2.21284 -25.74559,-17.0398 11.80761,43.50098 8.24999,-29.7511 -37.72314,24.67225 z"
   inkscape:randomized="0"
   inkscape:rounded="0"
   inkscape:flatsided="false"
   sodipodi:arg2="-2.656788"
   sodipodi:arg1="0.9151007"
   sodipodi:r2="25.440878"
   sodipodi:r1="20.68615"
   sodipodi:cy="294.51456"
   sodipodi:cx="504.50272"
   sodipodi:sides="5"
   id="path4759"
   style="fill:none;stroke:#ff0000;stroke-width:0.03543307;stroke-miterlimit:4;stroke-opacity:1;stroke-dasharray:none"
   sodipodi:type="star" /><path
   inkscape:transform-center-y="1.0607322"
   inkscape:transform-center-x="1.0836567e-005"
   transform="translate(0,-2.0838898e-5)"
   d="m 547.38547,455.95541 -14.44653,-0.75488 -7.02276,12.64723 -3.74628,-13.97273 -14.1984,-2.77084 12.1312,-7.88073 -1.75232,-14.35971 11.24377,9.10217 13.1154,-6.10395 -5.18217,13.50618 z"
   inkscape:randomized="0"
   inkscape:rounded="0"
   inkscape:flatsided="false"
   sodipodi:arg2="1.0649457"
   sodipodi:arg1="0.43662713"
   sodipodi:r2="9.2298279"
   sodipodi:r1="20.877516"
   sodipodi:cy="447.12662"
   sodipodi:cx="528.46661"
   sodipodi:sides="5"
   id="path4761"
   style="fill:none;stroke:#ff0000;stroke-width:0.03543307;stroke-miterlimit:4;stroke-opacity:1;stroke-dasharray:none"
   sodipodi:type="star" /><path
   inkscape:transform-center-y="1.2967571"
   inkscape:transform-center-x="-1.1692425"
   transform="translate(6.9369124,13.243176)"
   d="m 334.23305,357.5774 12.45599,3.69902 -39.06104,-17.53058 0.33114,12.98941 4.60204,-42.5665 -12.25134,4.32887 41.90527,-8.77696 -7.90288,-10.31402 21.29683,37.14204 7.36709,-10.70329 z"
   inkscape:randomized="0"
   inkscape:rounded="0"
   inkscape:flatsided="false"
   sodipodi:arg2="1.0591971"
   sodipodi:arg1="1.4219064"
   sodipodi:r2="33.171322"
   sodipodi:r1="25.507339"
   sodipodi:cy="332.35226"
   sodipodi:cx="330.44928"
   sodipodi:sides="5"
   id="path4763"
   style="fill:none;stroke:#ff0000;stroke-width:0.03543307;stroke-miterlimit:4;stroke-opacity:1;stroke-dasharray:none"
   sodipodi:type="star" /><path
   inkscape:transform-center-y="-0.14851961"
   inkscape:transform-center-x="0.88677866"
   transform="translate(0,-2.0838898e-5)"
   d="m 380.89955,588.38736 8.22068,8.35059 -15.20237,-18.92123 -5.40156,10.39881 13.29737,-20.3053 -11.55903,-1.92378 23.4206,6.37187 -1.74231,-11.58777 1.17735,24.24333 10.48222,-5.23785 z"
   inkscape:randomized="0"
   inkscape:rounded="0"
   inkscape:flatsided="false"
   sodipodi:arg2="1.3346797"
   sodipodi:arg1="1.929567"
   sodipodi:r2="18.966911"
   sodipodi:r1="10.776183"
   sodipodi:cy="578.2973"
   sodipodi:cx="384.68332"
   sodipodi:sides="5"
   id="path4765"
   style="fill:none;stroke:#ff0000;stroke-width:0.03543307;stroke-miterlimit:4;stroke-opacity:1;stroke-dasharray:none"
   sodipodi:type="star" /><path
   inkscape:transform-center-y="0.68519685"
   inkscape:transform-center-x="1.5590092"
   transform="translate(0,-2.0838898e-5)"
   d="m 484.32261,719.55807 -0.80833,-13.74831 -9.341,-10.12003 12.82563,-5.01723 6.73819,-12.01108 8.73501,10.64749 13.50544,2.69677 -7.42711,11.59774 1.60863,13.67779 -13.32521,-3.4797 z"
   inkscape:randomized="0"
   inkscape:rounded="0"
   inkscape:flatsided="false"
   sodipodi:arg2="2.7395344"
   sodipodi:arg1="2.1112159"
   sodipodi:r2="13.213301"
   sodipodi:r1="22.062983"
   sodipodi:cy="700.63922"
   sodipodi:cx="495.67392"
   sodipodi:sides="5"
   id="path4767"
   style="fill:none;stroke:#ff0000;stroke-width:0.03543307;stroke-miterlimit:4;stroke-opacity:1;stroke-dasharray:none"
   sodipodi:type="star" /><path
   inkscape:transform-center-y="0.70390941"
   inkscape:transform-center-x="-0.7794929"
   transform="translate(0,-2.0838898e-5)"
   d="m 326.66549,703.16175 -6.62816,-6.91397 -9.50917,-1.14506 4.52737,-8.44029 -1.84949,-9.3976 9.42623,1.69759 8.36613,-4.66298 1.29835,9.48946 7.02004,6.51572 -8.62379,4.16721 z"
   inkscape:randomized="0"
   inkscape:rounded="0"
   inkscape:flatsided="false"
   sodipodi:arg2="2.0339662"
   sodipodi:arg1="1.4056476"
   sodipodi:r2="9.1892796"
   sodipodi:r1="15.343851"
   sodipodi:cy="688.02667"
   sodipodi:cx="324.14297"
   sodipodi:sides="5"
   id="path4769"
   style="fill:none;stroke:#ff0000;stroke-width:0.03543307;stroke-miterlimit:4;stroke-opacity:1;stroke-dasharray:none"
   sodipodi:type="star" />

</svg>