<?xml version="1.0" encoding="UTF-8" standalone="no"?>
<!-- Generator: Adobe Illustrator 19.0.0, SVG Export Plug-In . SVG Version: 6.00 Build 0)  -->

<svg
   xmlns:dc="http://purl.org/dc/elements/1.1/"
   xmlns:cc="http://creativecommons.org/ns#"
   xmlns:rdf="http://www.w3.org/1999/02/22-rdf-syntax-ns#"
   xmlns:svg="http://www.w3.org/2000/svg"
   xmlns="http://www.w3.org/2000/svg"
   xmlns:xlink="http://www.w3.org/1999/xlink"
   xmlns:sodipodi="http://sodipodi.sourceforge.net/DTD/sodipodi-0.dtd"
   xmlns:inkscape="http://www.inkscape.org/namespaces/inkscape"
   version="1.1"
   id="Abat-jour"
   x="0px"
   y="0px"
   viewBox="0 0 595.3 841.9"
   style="enable-background:new 0 0 595.3 841.9;"
   xml:space="preserve"
   inkscape:version="0.48.4 r9939"
   width="100%"
   height="100%"
   sodipodi:docname="abat.svg"><metadata
   id="metadata4722"><rdf:RDF><cc:Work
       rdf:about=""><dc:format>image/svg+xml</dc:format><dc:type
         rdf:resource="http://purl.org/dc/dcmitype/StillImage" /><dc:title></dc:title></cc:Work></rdf:RDF></metadata><defs
   id="defs4720"><linearGradient
   inkscape:collect="always"
   id="linearGradient6708"><stop
     style="stop-color:#000000;stop-opacity:1;"
     offset="0"
     id="stop6710" /><stop
     style="stop-color:#000000;stop-opacity:0;"
     offset="1"
     id="stop6712" /></linearGradient><linearGradient
   inkscape:collect="always"
   xlink:href="#linearGradient6708"
   id="linearGradient6716"
   x1="281.6375"
   y1="511.62767"
   x2="587.55263"
   y2="511.62767"
   gradientUnits="userSpaceOnUse" />
	
	
	
	
	
	
	
	
</defs><sodipodi:namedview
   pagecolor="#ffffff"
   bordercolor="#666666"
   borderopacity="1"
   objecttolerance="10"
   gridtolerance="10"
   guidetolerance="10"
   inkscape:pageopacity="0"
   inkscape:pageshadow="2"
   inkscape:window-width="1680"
   inkscape:window-height="987"
   id="namedview4718"
   showgrid="false"
   inkscape:zoom="2.2425466"
   inkscape:cx="592.67104"
   inkscape:cy="320.29064"
   inkscape:window-x="-8"
   inkscape:window-y="-8"
   inkscape:window-maximized="1"
   inkscape:current-layer="Abat-jour" />
<style
   type="text/css"
   id="style4609">
	.st0{fill:none;stroke:#FF0000;stroke-width:0.1;stroke-miterlimit:10;}
</style>
<path
   inkscape:connector-curvature="0"
   style="fill:none;fill-opacity:1;stroke:#ff0000;stroke-width:0.03543307;stroke-miterlimit:4;stroke-opacity:1;stroke-dasharray:none"
   d="m 510.7,802.8 c 1.3,-3.8 -0.7,-8 -4.6,-9.3 l 32.2,11 c 67.9,-198.7 63.2,-404.7 0.1,-589.2 l -31.7,10.8 c -2.5,1.3 -3.7,4.3 -2.8,7.1 1.1,3.1 4.4,4.7 7.5,3.7 L 478,248.3 c 3.1,-1.1 4.7,-4.4 3.7,-7.5 -1,-2.8 -3.8,-4.4 -6.6,-3.9 l -53,18.1 c -2.6,1.3 -3.9,4.3 -3,7.2 1.1,3.1 4.4,4.7 7.5,3.7 l -33.4,11.4 c 3.1,-1.1 4.7,-4.4 3.7,-7.5 -1,-2.9 -3.9,-4.5 -6.8,-3.8 l -52.5,17.9 c -2.8,1.2 -4.2,4.4 -3.2,7.3 1.1,3.1 4.4,4.7 7.5,3.7 l -33.4,11.4 c 3.1,-1.1 4.7,-4.4 3.7,-7.5 -1,-3 -4.2,-4.6 -7.3,-3.7 l -23.2,7.9 c 44.3,129.6 47.9,274.6 0.8,414.3 l 23.4,8 c -3.8,-1.3 -8,0.7 -9.3,4.6 -1.3,3.8 0.7,8 4.6,9.3 l 30.6,10.5 c 3.8,1.3 8,-0.7 9.3,-4.6 1.3,-3.8 -0.7,-8 -4.6,-9.3 l 54.1,18.5 c -3.8,-1.3 -8,0.7 -9.3,4.6 -1.3,3.8 0.7,8 4.6,9.3 l 30.6,10.5 c 3.8,1.3 8,-0.7 9.3,-4.6 1.3,-3.8 -0.7,-8 -4.6,-9.3 l 54.1,18.5 c -3.8,-1.3 -8,0.7 -9.3,4.6 -1.3,3.9 0.7,8 4.6,9.3 l 30.6,10.5 c 4,1 8.2,-1 9.5,-4.9 z"
   class="st0"
   id="XMLID_98_" /><line
   style="fill:none;fill-opacity:1;stroke:#ff0000;stroke-width:0.03543307;stroke-miterlimit:4;stroke-opacity:1;stroke-dasharray:none"
   y2="234.5"
   x2="518.40002"
   y1="236.89999"
   x1="511.39999"
   class="st0"
   id="XMLID_97_" /><line
   style="fill:none;fill-opacity:1;stroke:#ff0000;stroke-width:0.03543307;stroke-miterlimit:4;stroke-opacity:1;stroke-dasharray:none"
   y2="250.7"
   x2="471"
   y1="248.3"
   x1="478"
   class="st0"
   id="XMLID_96_" /><line
   style="fill:none;fill-opacity:1;stroke:#ff0000;stroke-width:0.03543307;stroke-miterlimit:4;stroke-opacity:1;stroke-dasharray:none"
   y2="263.39999"
   x2="433.60001"
   y1="265.79999"
   x1="426.60001"
   class="st0"
   id="XMLID_95_" /><line
   style="fill:none;fill-opacity:1;stroke:#ff0000;stroke-width:0.03543307;stroke-miterlimit:4;stroke-opacity:1;stroke-dasharray:none"
   y2="279.60001"
   x2="386.20001"
   y1="277.20001"
   x1="393.20001"
   class="st0"
   id="XMLID_94_" /><line
   style="fill:none;fill-opacity:1;stroke:#ff0000;stroke-width:0.03543307;stroke-miterlimit:4;stroke-opacity:1;stroke-dasharray:none"
   y2="292.39999"
   x2="348.79999"
   y1="294.79999"
   x1="341.79999"
   class="st0"
   id="XMLID_93_" />

<g
   id="g11968"
   transform="matrix(0,-1,1,0,88.247427,644.98584)"
   style="fill:none;stroke:#ff0000;stroke-opacity:1;stroke-width:0.03543307;stroke-miterlimit:4;stroke-dasharray:none"><line
     id="XMLID_92_"
     class="st0"
     x1="308.39999"
     y1="306.20001"
     x2="301.39999"
     y2="308.5"
     style="fill:none;fill-opacity:1;stroke:#ff0000;stroke-width:0.03543307;stroke-miterlimit:4;stroke-opacity:1;stroke-dasharray:none" /><path
     sodipodi:nodetypes="cc"
     inkscape:connector-curvature="0"
     id="path6740"
     d="m 36.323138,333.96124 c 3.393694,-2.03622 95.784252,33.66193 91.334622,110.73901"
     style="fill:none;stroke:#ff0000;stroke-width:0.03543307;stroke-linecap:butt;stroke-linejoin:miter;stroke-opacity:1;stroke-miterlimit:4;stroke-dasharray:none" /><path
     sodipodi:nodetypes="cc"
     inkscape:connector-curvature="0"
     id="path6740-3"
     d="m 236.84041,328.07745 c 4.91817,-8.74341 -108.04953,34.81701 -108.45384,117.01769"
     style="fill:none;stroke:#ff0000;stroke-width:0.03543307;stroke-linecap:butt;stroke-linejoin:miter;stroke-opacity:1;stroke-miterlimit:4;stroke-dasharray:none" /><path
     transform="translate(0,-2.0838898e-5)"
     inkscape:connector-curvature="0"
     id="path6780"
     d="m 117.92751,300.82084 11.98194,23.33325 16.39634,-23.96388"
     style="fill:none;stroke:#ff0000;stroke-width:0.03543307;stroke-linecap:butt;stroke-linejoin:miter;stroke-opacity:1;stroke-miterlimit:4;stroke-dasharray:none" /><path
     transform="translate(0,-2.0838898e-5)"
     inkscape:connector-curvature="0"
     id="path6782"
     d="m 95.855515,318.47844 20.180105,34.05393 13.87383,-27.74765 14.50445,28.37828 24.59451,-29.00891"
     style="fill:none;stroke:#ff0000;stroke-width:0.03543307;stroke-linecap:butt;stroke-linejoin:miter;stroke-opacity:1;stroke-miterlimit:4;stroke-dasharray:none" /><path
     sodipodi:nodetypes="ccccc"
     inkscape:connector-curvature="0"
     id="path6784"
     d="m 44.143989,283.79385 11.35131,-51.71153 77.567291,4.41441 0.63063,48.55839 z"
     style="fill:none;stroke:#ff0000;stroke-width:0.03543307;stroke-linecap:butt;stroke-linejoin:miter;stroke-opacity:1;stroke-miterlimit:4;stroke-dasharray:none" /><path
     sodipodi:nodetypes="ccccc"
     inkscape:connector-curvature="0"
     id="path6784-2"
     d="m 238.9892,283.11343 -10.95636,-50.01182 -78.59816,3.45173 2.02493,48.6029 z"
     style="fill:none;stroke:#ff0000;stroke-width:0.03543307;stroke-linecap:butt;stroke-linejoin:miter;stroke-opacity:1;stroke-miterlimit:4;stroke-dasharray:none" /><path
     transform="translate(0,-2.0838898e-5)"
     d="m 44.774614,357.8927 c 0,3.30872 -2.823419,5.99097 -6.306284,5.99097 -3.482864,0 -6.306284,-2.68225 -6.306284,-5.99097 0,-3.30872 2.82342,-5.99097 6.306284,-5.99097 3.482865,0 6.306284,2.68225 6.306284,5.99097 z"
     sodipodi:ry="5.9909697"
     sodipodi:rx="6.306284"
     sodipodi:cy="357.8927"
     sodipodi:cx="38.46833"
     id="path6806"
     style="fill:none;stroke:#ff0000;stroke-width:0.03543307;stroke-miterlimit:4;stroke-opacity:1;stroke-dasharray:none"
     sodipodi:type="arc" /><path
     transform="translate(0,-2.0838898e-5)"
     d="m 237.11627,354.10895 c 0,4.00529 -2.96459,7.25222 -6.6216,7.25222 -3.657,0 -6.62159,-3.24693 -6.62159,-7.25222 0,-4.0053 2.96459,-7.25223 6.62159,-7.25223 3.65701,0 6.6216,3.24693 6.6216,7.25223 z"
     sodipodi:ry="7.2522264"
     sodipodi:rx="6.6215982"
     sodipodi:cy="354.10895"
     sodipodi:cx="230.49467"
     id="path6808"
     style="fill:none;stroke:#ff0000;stroke-width:0.03543307;stroke-miterlimit:4;stroke-opacity:1;stroke-dasharray:none"
     sodipodi:type="arc" /><path
     sodipodi:open="true"
     sodipodi:end="7.9689066"
     sodipodi:start="4.2895454"
     transform="matrix(1.1245364,0,0,1.1728411,-5.8032457,-64.556242)"
     d="m 49.915167,375.05681 c 7.622673,-2.78696 16.582722,-0.0255 20.01283,6.16794 3.430108,6.19343 0.03136,13.47347 -7.59131,16.26043 -2.489121,0.91006 -5.234816,1.25626 -7.946332,1.00195"
     sodipodi:ry="12.297254"
     sodipodi:rx="15.135081"
     sodipodi:cy="386.271"
     sodipodi:cx="56.125927"
     id="path6810"
     style="fill:none;stroke:#ff0000;stroke-width:0.03085336;stroke-miterlimit:4;stroke-opacity:1;stroke-dasharray:none"
     sodipodi:type="arc" /><path
     sodipodi:open="true"
     sodipodi:end="4.7330585"
     sodipodi:start="0.94023696"
     transform="translate(0,-2.0838898e-5)"
     d="m 218.93924,397.04026 c -6.04817,4.72301 -14.53024,3.30669 -18.94523,-3.16344 -4.41499,-6.47014 -3.09104,-15.54398 2.95713,-20.26699 2.39847,-1.87297 5.3054,-2.8518 8.27428,-2.78614"
     sodipodi:ry="14.504453"
     sodipodi:rx="13.558511"
     sodipodi:cy="385.32504"
     sodipodi:cx="210.94519"
     id="path6814"
     style="fill:none;stroke:#ff0000;stroke-width:0.03543307;stroke-miterlimit:4;stroke-opacity:1;stroke-dasharray:none"
     sodipodi:type="arc" /><path
     sodipodi:nodetypes="csc"
     transform="translate(0,-2.0838898e-5)"
     inkscape:connector-curvature="0"
     id="path6816"
     d="m 1.8918849,420.00961 c 0,0 52.5027591,44.14397 124.2337951,44.14398 73.78352,10e-6 128.01756,-42.2521 128.01756,-42.2521"
     style="fill:none;stroke:#ff0000;stroke-width:0.03543307;stroke-linecap:butt;stroke-linejoin:miter;stroke-opacity:1;stroke-miterlimit:4;stroke-dasharray:none" /><path
     sodipodi:nodetypes="cccscccscccccscccsccccscccc"
     inkscape:connector-curvature="0"
     id="path6818"
     transform="translate(0,-2.0838898e-5)"
     d="m 235.375,449.53125 c 9.29331,-4.80889 15.52788,-8.98023 17.5,-11.21875 M 42,459.46875 c 25.734349,9.46302 59.25352,18.44792 87.90625,17.9375 C 160.06979,476.86892 189.44104,468.80811 212,460 m 23.375,-10.46875 C 228.93562,452.86336 221.00861,456.48261 212,460 c -0.21146,3.0992 -0.14794,7.01715 0.25,12.03125 0.43849,5.52489 0.21639,6.69361 2.28125,10.34375 0.83385,2.87859 3.40867,3.79138 3.15625,3.875 l 7.09375,-0.375 8.65625,0 c 1.27388,-0.67819 2.0264,-1.84798 2.25,-3.53125 0.70602,-4.87431 1.32522,-6.37237 1.65625,-9.65625 0.68603,-6.80554 1.46547,-17.7667 -1.96875,-23.15625 z M 42,459.46875 C 32.26196,455.88788 23.661228,452.23038 16.84375,449 c -0.488285,2.9717 -0.400924,8.33994 -0.09375,17.59375 0.172747,5.20414 -0.09443,13.26951 3.40625,15.9375 l 2.40625,-0.125 14.1875,0 2.71875,-0.1875 c 3.500677,-2.66801 3.260435,-10.42064 3.09375,-15.625 -0.09073,-2.83286 -0.263786,-5.16622 -0.5625,-7.125 z M 16.84375,448.88852 0.84796081,438.04566 z"
     style="fill:none;stroke:#ff0000;stroke-width:0.03543307;stroke-linecap:butt;stroke-linejoin:miter;stroke-opacity:1;stroke-miterlimit:4;stroke-dasharray:none" /><path
     sodipodi:nodetypes="scccccscccccs"
     inkscape:connector-curvature="0"
     id="path6830"
     transform="translate(0,-2.0838898e-5)"
     d="m 17.65625,258.5625 c -1.81517,0 -5.737196,1.52583 -6.973528,3.86008 l 0.03603,-0.0788 0,10.40625 0,9.15625 8.5e-4,0.0788 c 1.272467,3.07649 4.812245,4.95242 6.93665,4.95242 2.124405,0 5.743011,-1.87593 7.015478,-4.95242 l -0.07798,-0.0788 0,-9.15625 0,-10.40625 -0.0428,-0.0788 c -1.236333,-2.33431 -5.07953,-3.70248 -6.8947,-3.70248 z"
     style="fill:none;stroke:#ff0000;stroke-width:0.03543307;stroke-miterlimit:4;stroke-opacity:1;stroke-dasharray:none" /><path
     sodipodi:nodetypes="scccccscccccss"
     inkscape:connector-curvature="0"
     id="path6830-7"
     transform="translate(0,-2.0838898e-5)"
     d="m 266.75,255.71875 c -2.05328,0 -5.78129,1.96158 -7.05142,4.86148 l 0.11392,-0.11148 0,9.4375 0,9.46875 -0.002,0.22296 c 1.27013,2.8999 4.88666,4.49579 6.93994,4.49579 2.05328,0 5.78129,-1.70737 7.05142,-4.60727 l -0.11392,0.22296 0,-9.80319 0,-9.4375 -0.10904,-0.22296 c -1.27013,-2.8999 -4.77518,-4.52704 -6.82846,-4.52704 z"
     style="fill:none;stroke:#ff0000;stroke-width:0.03543307;stroke-miterlimit:4;stroke-opacity:1;stroke-dasharray:none" /><path
     sodipodi:nodetypes="cc"
     inkscape:connector-curvature="0"
     id="path6850"
     d="m 24.279193,282.45377 c 6.827776,0.16671 10.125908,-6.24231 8.513483,20.88957"
     style="fill:none;stroke:#ff0000;stroke-width:0.03543307;stroke-linecap:butt;stroke-linejoin:miter;stroke-opacity:1;stroke-miterlimit:4;stroke-dasharray:none" /><path
     sodipodi:nodetypes="cc"
     inkscape:connector-curvature="0"
     id="path6852"
     d="m 260.44953,280.64071 c -6.79424,-1.66363 -9.81034,7.72521 -8.19817,21.44136"
     style="fill:none;stroke:#ff0000;stroke-width:0.03543307;stroke-linecap:butt;stroke-linejoin:miter;stroke-opacity:1;stroke-miterlimit:4;stroke-dasharray:none" /></g></svg>