<?xml version="1.0" encoding="UTF-8" standalone="no"?>
<!-- Generator: Adobe Illustrator 19.0.0, SVG Export Plug-In . SVG Version: 6.00 Build 0)  -->

<svg
   xmlns:dc="http://purl.org/dc/elements/1.1/"
   xmlns:cc="http://creativecommons.org/ns#"
   xmlns:rdf="http://www.w3.org/1999/02/22-rdf-syntax-ns#"
   xmlns:svg="http://www.w3.org/2000/svg"
   xmlns="http://www.w3.org/2000/svg"
   xmlns:xlink="http://www.w3.org/1999/xlink"
   xmlns:sodipodi="http://sodipodi.sourceforge.net/DTD/sodipodi-0.dtd"
   xmlns:inkscape="http://www.inkscape.org/namespaces/inkscape"
   version="1.1"
   id="Abat-jour"
   x="0px"
   y="0px"
   viewBox="0 0 595.3 841.9"
   style="enable-background:new 0 0 595.3 841.9;"
   xml:space="preserve"
   inkscape:version="0.48.4 r9939"
   width="100%"
   height="100%"
   sodipodi:docname="abat.svg"><metadata
   id="metadata3215"><rdf:RDF><cc:Work
       rdf:about=""><dc:format>image/svg+xml</dc:format><dc:type
         rdf:resource="http://purl.org/dc/dcmitype/StillImage" /><dc:title></dc:title></cc:Work></rdf:RDF></metadata><defs
   id="defs3213"><linearGradient
     inkscape:collect="always"
     id="linearGradient4019"><stop
       style="stop-color:#000000;stop-opacity:1;"
       offset="0"
       id="stop4021" /><stop
       style="stop-color:#000000;stop-opacity:0;"
       offset="1"
       id="stop4023" /></linearGradient><linearGradient
     inkscape:collect="always"
     id="linearGradient3985"><stop
       style="stop-color:#000000;stop-opacity:1;"
       offset="0"
       id="stop3987" /><stop
       style="stop-color:#000000;stop-opacity:0;"
       offset="1"
       id="stop3989" /></linearGradient><radialGradient
     inkscape:collect="always"
     xlink:href="#linearGradient3985"
     id="radialGradient3995"
     cx="160.65492"
     cy="330.35223"
     fx="160.65492"
     fy="330.35223"
     r="152.90758"
     gradientTransform="matrix(1,0,0,1.9378391,0,-309.81725)"
     gradientUnits="userSpaceOnUse" /><radialGradient
     inkscape:collect="always"
     xlink:href="#linearGradient3985"
     id="radialGradient3997"
     cx="434.59506"
     cy="511.62766"
     fx="434.59506"
     fy="511.62766"
     r="152.95757"
     gradientTransform="matrix(1,0,0,1.9377281,0,-479.76763)"
     gradientUnits="userSpaceOnUse" /><linearGradient
     inkscape:collect="always"
     xlink:href="#linearGradient4019"
     id="linearGradient4025"
     x1="7.7473665"
     y1="330.35224"
     x2="313.5625"
     y2="330.35224"
     gradientUnits="userSpaceOnUse" /><linearGradient
     inkscape:collect="always"
     xlink:href="#linearGradient4019"
     id="linearGradient4027"
     x1="281.6375"
     y1="511.62767"
     x2="587.55263"
     y2="511.62767"
     gradientUnits="userSpaceOnUse" /></defs><sodipodi:namedview
   pagecolor="#ffffff"
   bordercolor="#666666"
   borderopacity="1"
   objecttolerance="10"
   gridtolerance="10"
   guidetolerance="10"
   inkscape:pageopacity="0"
   inkscape:pageshadow="2"
   inkscape:window-width="1680"
   inkscape:window-height="987"
   id="namedview3211"
   showgrid="false"
   inkscape:zoom="1.5857199"
   inkscape:cx="90.356892"
   inkscape:cy="486.86756"
   inkscape:window-x="-8"
   inkscape:window-y="-8"
   inkscape:window-maximized="1"
   inkscape:current-layer="Abat-jour" />
<style
   type="text/css"
   id="style3102">
	.st0{fill:none;stroke:#FF0000;stroke-width:0.1;stroke-miterlimit:10;}
</style>

<g
   id="Basique"
   style="fill:none;fill-opacity:1;stroke:#ff0000;stroke-opacity:1;stroke-width:0.03543307;stroke-miterlimit:4;stroke-dasharray:none">
	<path
   id="XMLID_197_"
   class="st0"
   d="M84.6,39.1c-1.3,3.8,0.7,8,4.6,9.3L57,37.4c-67.9,198.7-63.2,404.7-0.1,589.2l31.7-10.8   c2.5-1.3,3.7-4.3,2.8-7.1c-1.1-3.1-4.4-4.7-7.5-3.7l33.4-11.4c-3.1,1.1-4.7,4.4-3.7,7.5c1,2.8,3.8,4.4,6.6,3.9l52.9-18.1   c2.6-1.3,3.9-4.3,3-7.2c-1.1-3.1-4.4-4.7-7.5-3.7l33.4-11.4c-3.1,1.1-4.7,4.4-3.7,7.5c1,2.9,3.9,4.5,6.8,3.8l52.5-17.9   c2.8-1.2,4.2-4.4,3.2-7.3c-1.1-3.1-4.4-4.7-7.5-3.7l33.4-11.4c-3.1,1.1-4.7,4.4-3.7,7.5c1,3,4.2,4.6,7.3,3.7l23.2-7.9   c-44.3-129.6-47.9-274.6-0.8-414.3l-23.4-8c3.8,1.3,8-0.7,9.3-4.6c1.3-3.8-0.7-8-4.6-9.3l-30.6-10.5c-3.8-1.3-8,0.7-9.3,4.6   c-1.3,3.8,0.7,8,4.6,9.3l-54.1-18.5c3.8,1.3,8-0.7,9.3-4.6c1.3-3.8-0.7-8-4.6-9.3l-30.6-10.5c-3.8-1.3-8,0.7-9.3,4.6   c-1.3,3.8,0.7,8,4.6,9.3l-54.1-18.5c3.8,1.3,8-0.7,9.3-4.6c1.3-3.8-0.7-8-4.6-9.3L93.9,34.5C90.1,33.2,85.9,35.2,84.6,39.1z"
   style="fill:none;fill-opacity:1;stroke:#ff0000;stroke-opacity:1;stroke-width:0.03543307;stroke-miterlimit:4;stroke-dasharray:none" />
	<line
   id="XMLID_196_"
   class="st0"
   x1="83.9"
   y1="605"
   x2="76.9"
   y2="607.4"
   style="fill:none;fill-opacity:1;stroke:#ff0000;stroke-opacity:1;stroke-width:0.03543307;stroke-miterlimit:4;stroke-dasharray:none" />
	<line
   id="XMLID_195_"
   class="st0"
   x1="117.3"
   y1="593.6"
   x2="124.3"
   y2="591.2"
   style="fill:none;fill-opacity:1;stroke:#ff0000;stroke-opacity:1;stroke-width:0.03543307;stroke-miterlimit:4;stroke-dasharray:none" />
	<line
   id="XMLID_194_"
   class="st0"
   x1="168.7"
   y1="576.1"
   x2="161.7"
   y2="578.5"
   style="fill:none;fill-opacity:1;stroke:#ff0000;stroke-opacity:1;stroke-width:0.03543307;stroke-miterlimit:4;stroke-dasharray:none" />
	<line
   id="XMLID_193_"
   class="st0"
   x1="202.1"
   y1="564.7"
   x2="209.1"
   y2="562.3"
   style="fill:none;fill-opacity:1;stroke:#ff0000;stroke-opacity:1;stroke-width:0.03543307;stroke-miterlimit:4;stroke-dasharray:none" />
	<line
   id="XMLID_192_"
   class="st0"
   x1="253.5"
   y1="547.1"
   x2="246.5"
   y2="549.5"
   style="fill:none;fill-opacity:1;stroke:#ff0000;stroke-opacity:1;stroke-width:0.03543307;stroke-miterlimit:4;stroke-dasharray:none" />
	<line
   id="XMLID_191_"
   class="st0"
   x1="286.9"
   y1="535.7"
   x2="293.8"
   y2="533.3"
   style="fill:none;fill-opacity:1;stroke:#ff0000;stroke-opacity:1;stroke-width:0.03543307;stroke-miterlimit:4;stroke-dasharray:none" />
</g>
<path
   style="font-size:56px;font-style:normal;font-weight:normal;line-height:125%;letter-spacing:0px;word-spacing:0px;fill:none;fill-opacity:1;stroke:#ff0000;font-family:Sans;stroke-opacity:1;stroke-width:0.03543307;stroke-miterlimit:4;stroke-dasharray:none"
   d="M 231.09375 227.78125 C 228.9998 227.84158 226.9361 228.08937 224.875 228.5625 C 220.75277 229.50877 217.27309 231.3341 214.46875 234.03125 C 211.66442 236.72839 209.88747 240.01715 209.125 243.90625 C 208.42147 247.49468 208.76947 251.00693 210.15625 254.4375 C 211.54305 257.86801 214.01508 260.75995 217.5625 263.09375 C 221.1099 265.42746 225.33521 266.99793 230.25 267.8125 C 235.09862 268.61603 239.57996 268.53508 243.71875 267.5625 C 247.85749 266.58983 251.29298 264.73931 254.03125 262.03125 C 256.76942 259.32311 258.53346 256.0639 259.28125 252.25 C 260.42307 246.42577 259.07912 241.31164 255.25 236.875 C 252.13552 233.26643 247.59044 230.6805 241.6875 229.125 L 241.6875 235.0625 C 246.03657 236.35733 249.16631 238.19562 251.03125 240.59375 C 253.60279 243.90055 254.50876 247.5047 253.75 251.375 C 253.21586 254.09921 251.92398 256.42341 249.875 258.34375 C 247.82596 260.26403 245.22757 261.53843 242.0625 262.1875 C 238.89738 262.8367 235.32003 262.84128 231.375 262.1875 C 225.13786 261.15379 220.59161 259.03343 217.71875 255.8125 C 214.84591 252.5915 213.81834 248.92699 214.625 244.8125 C 215.41695 240.7731 217.73911 237.68272 221.625 235.5625 C 225.51088 233.44225 230.3783 232.87581 236.21875 233.84375 C 237.10967 233.9914 237.96078 234.16481 238.78125 234.34375 L 238.78125 228.46875 C 238.33101 228.38147 237.90178 228.29569 237.4375 228.21875 C 235.3107 227.86628 233.1877 227.72092 231.09375 227.78125 z "
   transform="translate(0,-2.0838898e-5)"
   id="path4056" /><path
   inkscape:connector-curvature="0"
   id="path4058"
   style="font-size:56px;font-style:normal;font-weight:normal;line-height:125%;letter-spacing:0px;word-spacing:0px;fill:none;fill-opacity:1;stroke:#ff0000;font-family:Sans;stroke-opacity:1;stroke-width:0.03543307;stroke-miterlimit:4;stroke-dasharray:none"
   d="m 216.32024,291.34917 -1.30906,4.96872 c -4.01295,-0.96287 -7.04912,-2.69635 -9.10851,-5.20046 -2.05939,-2.50416 -2.91169,-5.40983 -2.5569,-8.71701 0.44456,-4.14351 2.38729,-7.3142 5.82835,-9.51208 3.44105,-2.19787 8.12106,-2.99764 14.04007,-2.3993 3.82727,0.38691 7.11807,1.26712 9.87235,2.64069 2.75423,1.37355 4.7302,3.24003 5.92792,5.59943 1.19765,2.35938 1.65683,4.84105 1.37752,7.445 -0.35283,3.28818 -1.61484,5.87924 -3.78614,7.77321 -2.17135,1.8939 -5.07989,2.95441 -8.72561,3.18149 l -0.36595,-5.08041 c 2.43189,-0.23451 4.3134,-0.89448 5.64449,-1.97993 1.33106,-1.0855 2.08835,-2.48355 2.2719,-4.19415 0.27726,-2.58495 -0.58219,-4.79486 -2.57839,-6.62976 -1.99626,-1.83491 -5.34193,-2.98967 -10.03705,-3.46429 -4.7619,-0.48132 -8.30565,-0.0519 -10.63128,1.28852 -2.32562,1.34036 -3.62301,3.26501 -3.89217,5.77392 -0.21611,2.01473 0.32659,3.76993 1.62819,5.26566 1.30159,1.49567 3.43501,2.57592 6.40027,3.24075 z" /><path
   style="font-size:56px;font-style:normal;font-weight:normal;line-height:125%;letter-spacing:0px;word-spacing:0px;fill:none;fill-opacity:1;stroke:#ff0000;font-family:Sans;stroke-opacity:1;stroke-width:0.03543307;stroke-miterlimit:4;stroke-dasharray:none"
   d="M 217.96875 298.46875 C 213.18112 298.55996 209.32991 299.6743 206.46875 301.84375 C 203.19883 304.3231 201.51569 307.79548 201.40625 312.25 C 201.31936 315.78681 202.26404 318.737 204.21875 321.09375 C 206.17347 323.45045 208.97298 325.13584 212.59375 326.125 L 213.46875 320.8125 C 210.94123 319.92517 209.12881 318.79168 208 317.40625 C 206.87118 316.02077 206.3285 314.39266 206.375 312.5 C 206.43746 309.95729 207.53682 307.86708 209.65625 306.25 C 211.77568 304.6329 214.77328 303.81355 218.6875 303.78125 L 218.53125 310.59375 L 223.5 310.59375 L 223.65625 304.25 C 226.75727 304.54821 229.21669 305.55918 231.03125 307.25 C 232.84577 308.94078 233.71445 310.9731 233.65625 313.34375 C 233.59188 315.9629 232.36375 318.04397 230 319.59375 C 228.47689 320.60352 226.21794 321.17343 223.21875 321.28125 L 223.4375 312.59375 L 218.46875 312.59375 L 218.125 326.5 C 218.83939 326.5481 219.39255 326.57915 219.75 326.59375 C 225.62542 326.83242 230.19725 325.69929 233.5 323.25 C 236.80268 320.80064 238.52493 317.54086 238.625 313.46875 C 238.72829 309.26276 237.14773 305.77261 233.90625 303 C 230.6647 300.22738 226.04962 298.74324 220.0625 298.5 C 219.33924 298.47062 218.6527 298.45572 217.96875 298.46875 z M 242.3125 310.625 L 242.21875 314.90625 L 251.4375 321.59375 L 251.59375 314.8125 L 242.3125 310.625 z "
   transform="translate(0,-2.0838898e-5)"
   id="path4060" /><path
   style="font-size:56px;font-style:normal;font-weight:normal;line-height:125%;letter-spacing:0px;word-spacing:0px;fill:none;fill-opacity:1;stroke:#ff0000;font-family:Sans;stroke-opacity:1;stroke-width:0.03543307;stroke-miterlimit:4;stroke-dasharray:none"
   d="M 211.28125 330.15625 C 208.31527 330.24954 205.96181 331.23586 204.1875 333.09375 C 202.82694 334.51845 202.07856 336.38702 201.90625 338.6875 L 207.125 338.6875 C 207.33372 338.18956 207.61688 337.75604 207.96875 337.375 C 208.96241 336.29892 210.26936 335.738 211.875 335.6875 C 212.92313 335.65453 213.88744 335.86134 214.78125 336.3125 C 215.67502 336.76366 216.3642 337.41545 216.875 338.28125 C 217.3858 339.14704 217.92432 340.63814 218.4375 342.75 C 219.33795 346.47917 220.28242 349.24737 221.3125 351.09375 L 219.125 351.1875 C 216.4712 351.27095 214.43241 351.04311 213.03125 350.53125 C 211.21597 349.85982 209.75375 348.76733 208.625 347.25 C 207.49623 345.73264 206.83398 343.98916 206.6875 342 C 206.64781 341.4611 206.64499 340.94053 206.6875 340.46875 L 201.875 340.46875 C 201.88199 340.61609 201.89518 340.7559 201.90625 340.90625 C 202.05556 342.93366 202.55794 344.81781 203.46875 346.5625 C 204.37955 348.30714 205.86985 350.11567 207.90625 351.96875 C 206.24496 352.17434 204.80314 352.55014 203.59375 353.125 L 204 358.53125 C 205.31244 357.83812 206.68945 357.36032 208.15625 357.09375 C 209.62304 356.82711 213.15253 356.58229 218.75 356.40625 L 226.78125 356.15625 C 229.45729 356.07205 231.29931 355.92314 232.3125 355.71875 C 233.94017 355.36079 235.28723 354.79906 236.3125 354 C 237.33771 353.20088 238.12482 351.96068 238.71875 350.3125 C 239.31228 348.66425 239.53526 346.56997 239.34375 343.96875 C 239.15075 341.34839 238.54521 339.05661 237.5625 337.09375 C 236.57972 335.13088 235.28357 333.62821 233.65625 332.625 C 232.02886 331.62177 229.92874 330.94227 227.375 330.5625 L 226.96875 335.625 C 229.52954 336.1004 231.32863 336.90529 232.40625 338.03125 C 233.48382 339.15719 234.10234 340.9459 234.28125 343.375 C 234.47276 345.97621 233.95061 347.94995 232.6875 349.3125 C 231.75577 350.3195 230.07803 350.8603 227.625 350.9375 C 227.40197 350.9445 226.85775 350.96175 226.03125 350.96875 C 225.08333 349.02393 224.1681 345.96387 223.28125 341.8125 C 222.84061 339.77505 222.41809 338.25388 222.03125 337.25 C 221.48381 335.88689 220.73194 334.66618 219.78125 333.59375 C 218.83052 332.52132 217.61338 331.665 216.125 331.03125 C 214.63661 330.39745 213.02068 330.10155 211.28125 330.15625 z "
   transform="translate(0,-2.0838898e-5)"
   id="path4062" /><path
   inkscape:connector-curvature="0"
   id="path4064"
   style="font-size:56px;font-style:normal;font-weight:normal;line-height:125%;letter-spacing:0px;word-spacing:0px;fill:none;fill-opacity:1;stroke:#ff0000;font-family:Sans;stroke-opacity:1;stroke-width:0.03543307;stroke-miterlimit:4;stroke-dasharray:none"
   d="m 204.84329,364.91855 35.14806,-4.02291 0.85837,4.61025 -4.99751,0.57199 c 4.27446,1.77781 6.80204,4.76314 7.58274,8.95601 0.33905,1.82131 0.27019,3.53918 -0.20663,5.15358 -0.4769,1.61436 -1.26247,2.87171 -2.35673,3.77205 -1.09432,0.90028 -2.46268,1.59944 -4.10506,2.09747 -1.06791,0.31596 -2.98084,0.63179 -5.73883,0.94749 l -21.61175,2.4736 -0.95374,-5.1225 21.38007,-2.44708 c 2.42703,-0.27781 4.20471,-0.68473 5.33304,-1.22076 1.12829,-0.53606 1.95649,-1.35263 2.48463,-2.4497 0.52806,-1.09711 0.66495,-2.32865 0.41064,-3.69463 -0.40626,-2.18182 -1.56218,-3.97264 -3.46778,-5.37245 -1.90566,-1.39983 -5.10901,-1.84216 -9.61005,-1.32697 l -19.19574,2.19706 z" /><path
   style="font-size:56px;font-style:normal;font-weight:normal;line-height:125%;letter-spacing:0px;word-spacing:0px;fill:none;fill-opacity:1;stroke:#ff0000;font-family:Sans;stroke-opacity:1;stroke-width:0.03543307;stroke-miterlimit:4;stroke-dasharray:none"
   d="M 233.78125 391.375 C 231.86441 391.39485 229.82262 391.63632 227.65625 392.09375 C 222.07322 393.27259 218.1337 395.4655 215.84375 398.65625 C 213.55378 401.84698 213.09749 405.60591 214.46875 409.9375 C 215.55752 413.37672 217.4221 415.97861 220.0625 417.78125 C 222.70288 419.58387 225.91489 420.51765 229.6875 420.59375 L 228.78125 415.25 C 226.08254 415.00664 223.97037 414.37714 222.4375 413.3125 C 220.90459 412.24782 219.86389 410.77794 219.28125 408.9375 C 218.49851 406.46494 218.83157 404.20283 220.3125 402.125 C 221.79341 400.04715 224.38026 398.51366 228.09375 397.53125 L 235.09375 419.625 C 235.78942 419.49792 236.31133 419.3853 236.65625 419.3125 C 242.32546 418.11543 246.3251 415.91966 248.65625 412.75 C 250.86932 409.74077 251.45526 406.37756 250.4375 402.65625 L 245.3125 402.65625 C 245.37132 402.81241 245.44883 402.96337 245.5 403.125 C 246.30624 405.67189 245.86066 407.99035 244.125 410.0625 C 243.01028 411.40851 241.03661 412.51074 238.21875 413.34375 L 232.96875 396.78125 C 236.01799 396.3159 238.68227 396.68188 240.96875 397.875 C 242.34524 398.59329 243.43769 399.53489 244.25 400.65625 L 249.75 400.65625 C 248.32505 397.28621 245.868 394.75958 242.34375 393.09375 C 239.84219 391.91134 236.97598 391.34192 233.78125 391.375 z "
   transform="translate(0,-2.0838898e-5)"
   id="path4066" /><flowRoot
   xml:space="preserve"
   id="flowRoot4038"
   style="fill:none;stroke:#ff0000;stroke-opacity:1;stroke-width:0.03543307;stroke-linejoin:miter;stroke-linecap:butt;fill-opacity:1;font-family:Sans;font-style:normal;font-weight:normal;font-size:40px;line-height:125%;letter-spacing:0px;word-spacing:0px;stroke-miterlimit:4;stroke-dasharray:none"><flowRegion
     id="flowRegion4040"><rect
       id="rect4042"
       width="108.80487"
       height="311.2533"
       x="49.051376"
       y="136.45201"
       style="fill:none;stroke:#ff0000;stroke-opacity:1;stroke-width:0.03543307;stroke-miterlimit:4;stroke-dasharray:none" /></flowRegion><flowPara
     id="flowPara4044" /></flowRoot><flowRoot
   xml:space="preserve"
   id="flowRoot4046"
   style="fill:none;stroke:#ff0000;stroke-opacity:1;stroke-width:0.03543307;stroke-linejoin:miter;stroke-linecap:butt;fill-opacity:1;font-family:Sans;font-style:normal;font-weight:normal;font-size:40px;line-height:125%;letter-spacing:0px;word-spacing:0px;stroke-miterlimit:4;stroke-dasharray:none"><flowRegion
     id="flowRegion4048"><rect
       id="rect4050"
       width="114.15593"
       height="371.89862"
       x="48.159534"
       y="112.37225"
       style="fill:none;stroke:#ff0000;stroke-opacity:1;stroke-width:0.03543307;stroke-miterlimit:4;stroke-dasharray:none" /></flowRegion><flowPara
     id="flowPara4052" /></flowRoot><path
   inkscape:connector-curvature="0"
   id="path4096"
   style="font-size:40px;font-style:normal;font-weight:normal;line-height:125%;letter-spacing:0px;word-spacing:0px;fill:none;fill-opacity:1;stroke:#ff0000;font-family:Sans;stroke-opacity:1;stroke-width:0.03543307;stroke-miterlimit:4;stroke-dasharray:none"
   d="m 126.80824,161.2078 57.24159,7.68528 -6.40249,31.27133 -6.75498,-0.90691 5.14659,-25.13723 -17.72691,-2.38003 -4.45393,21.75397 -6.75498,-0.90691 4.45392,-21.75398 -26.0047,-3.49141 z" /><path
   style="font-size:40px;font-style:normal;font-weight:normal;line-height:125%;letter-spacing:0px;word-spacing:0px;fill:none;fill-opacity:1;stroke:#ff0000;font-family:Sans;stroke-opacity:1;stroke-width:0.03543307;stroke-miterlimit:4;stroke-dasharray:none"
   d="M 139.84375 199.03125 C 137.40437 199.11757 135.19776 199.80582 133.25 201.09375 C 131.17288 202.46723 129.72628 204.48416 128.875 207.125 L 135.5625 207.125 C 135.82322 206.86157 136.09908 206.61609 136.40625 206.40625 C 137.87095 205.40565 139.55844 205.02319 141.4375 205.25 C 142.66409 205.39805 143.71747 205.78787 144.625 206.4375 C 145.5325 207.08711 146.15696 207.93359 146.5 208.96875 C 146.84301 210.00389 147.0142 211.72874 147 214.125 C 146.9683 218.35539 147.2748 221.58413 147.9375 223.78125 L 145.375 223.46875 C 142.26935 223.09388 139.97913 222.4925 138.5 221.6875 C 136.58609 220.63555 135.18488 219.16763 134.3125 217.3125 C 133.44015 215.45732 133.1892 213.44788 133.59375 211.25 C 133.70264 210.65841 133.84729 210.09874 134.03125 209.59375 L 128.28125 209.59375 C 127.94416 211.69715 128.04036 213.73979 128.5625 215.6875 C 129.11611 217.75261 130.29568 219.96261 132.125 222.34375 C 130.13652 222.27649 128.35165 222.45962 126.78125 222.875 L 125.6875 228.8125 C 127.41173 228.28613 129.15727 228.0335 130.9375 228 C 132.71773 227.9664 136.88695 228.33431 143.4375 229.125 L 152.84375 230.25 C 155.97546 230.62797 158.13945 230.7952 159.375 230.75 C 161.36844 230.64491 163.07864 230.25503 164.5 229.5625 C 165.92131 228.86988 167.20919 227.66429 168.375 225.96875 C 169.54073 224.27316 170.40844 221.99916 170.9375 219.125 C 171.47037 216.22967 171.4491 213.62852 170.875 211.3125 C 170.30085 208.99645 169.2248 207.13128 167.625 205.75 C 166.0251 204.36872 163.79315 203.2694 160.9375 202.40625 L 158.96875 207.84375 C 161.80494 208.81256 163.6677 210.01873 164.59375 211.4375 C 165.51974 212.85626 165.74399 214.90976 165.25 217.59375 C 164.72094 220.46791 163.51658 222.5464 161.65625 223.8125 C 160.28345 224.74863 158.18322 225.03397 155.3125 224.6875 C 155.05149 224.65598 154.43047 224.57516 153.46875 224.4375 C 152.92986 222.1473 152.73676 218.65779 152.90625 213.96875 C 152.98317 211.66649 152.94049 209.91417 152.78125 208.75 C 152.53935 207.16536 152.04411 205.71303 151.25 204.375 C 150.45583 203.03696 149.26394 201.89091 147.71875 200.9375 C 146.17352 199.98407 144.37937 199.40195 142.34375 199.15625 C 141.476 199.05151 140.65688 199.00248 139.84375 199.03125 z "
   transform="translate(0,-2.0838898e-5)"
   id="path4098" /><path
   style="font-size:40px;font-style:normal;font-weight:normal;line-height:125%;letter-spacing:0px;word-spacing:0px;fill:none;fill-opacity:1;stroke:#ff0000;font-family:Sans;stroke-opacity:1;stroke-width:0.03543307;stroke-miterlimit:4;stroke-dasharray:none"
   d="M 124.59375 235.90625 L 123.875 241.21875 L 129.09375 241.6875 C 125.68152 243.14926 123.42489 245.23431 122.3125 247.9375 L 128.4375 247.9375 C 129.47437 246.15996 131.31652 244.76562 134 243.75 C 136.38168 242.84814 140.05412 242.60785 145.0625 243.0625 C 150.14952 243.52426 153.90878 244.80487 156.34375 246.875 C 158.77867 248.94511 159.84682 251.24434 159.5 253.75 C 159.15606 256.23438 157.55718 258.23381 154.71875 259.75 C 151.88025 261.26612 147.73537 261.77632 142.28125 261.28125 C 136.95822 260.79803 133.05996 259.50758 130.625 257.4375 C 128.19005 255.36734 127.15315 253.09937 127.5 250.59375 C 127.53118 250.36849 127.6065 250.15417 127.65625 249.9375 L 121.75 249.9375 C 121.71099 250.13858 121.65361 250.32456 121.625 250.53125 C 121.06948 254.5445 122.55226 258.1537 126.0625 261.375 C 129.57274 264.59624 134.90392 266.53766 142.0625 267.1875 C 145.07798 267.4612 147.94517 267.37725 150.6875 266.9375 C 153.42993 266.49836 155.83404 265.77952 157.875 264.75 C 159.9159 263.72042 161.58201 262.2952 162.875 260.53125 C 164.16792 258.76726 164.96191 256.86218 165.25 254.78125 C 165.77022 251.02279 164.32085 247.76105 160.90625 245 L 181.46875 246.875 L 182.25 241.125 L 124.59375 235.90625 z "
   transform="translate(0,-2.0838898e-5)"
   id="path4100" /><path
   inkscape:connector-curvature="0"
   id="path4102"
   style="font-size:40px;font-style:normal;font-weight:normal;line-height:125%;letter-spacing:0px;word-spacing:0px;fill:none;fill-opacity:1;stroke:#ff0000;font-family:Sans;stroke-opacity:1;stroke-width:0.03543307;stroke-miterlimit:4;stroke-dasharray:none"
   d="m 119.71177,272.72974 57.85066,3.61877 -0.59137,6.19938 -51.02382,-3.19173 -2.20084,23.07194 -6.82685,-0.42705 z" /><path
   style="font-size:40px;font-style:normal;font-weight:normal;line-height:125%;letter-spacing:0px;word-spacing:0px;fill:none;fill-opacity:1;stroke:#ff0000;font-family:Sans;stroke-opacity:1;stroke-width:0.03543307;stroke-miterlimit:4;stroke-dasharray:none"
   d="M 126.34375 307.125 C 123.40124 307.24291 120.90873 308.15624 118.84375 309.84375 C 116.48375 311.77232 115.19742 314.6079 115 318.34375 C 114.99493 318.43981 115.00338 318.5294 115 318.625 L 120.65625 318.625 C 120.94417 317.01039 121.62558 315.77103 122.6875 314.875 C 124.01433 313.75538 125.60192 313.21545 127.5 313.28125 C 128.73899 313.32419 129.85701 313.61863 130.84375 314.1875 C 131.83047 314.75635 132.5559 315.56224 133.03125 316.5625 C 133.50661 317.56276 133.8909 319.24078 134.1875 321.625 C 134.7044 325.83472 135.4623 328.99637 136.40625 331.125 L 133.78125 331.03125 C 130.64415 330.92251 128.29409 330.54978 126.71875 329.875 C 124.67902 328.99159 123.10807 327.6457 122 325.875 C 121.12632 324.47893 120.64318 322.95665 120.53125 321.28125 L 115.15625 321.28125 C 115.32202 322.46867 115.61018 323.64085 116.0625 324.75 C 116.88081 326.75662 118.3408 328.85006 120.46875 331.0625 C 118.48259 331.16478 116.7266 331.48465 115.21875 332.03125 L 114.90625 338.0625 C 116.55267 337.39231 118.26519 336.96594 120.03125 336.78125 C 121.79728 336.59646 125.97689 336.61444 132.59375 336.84375 L 142.09375 337.1875 C 145.25715 337.29712 147.46466 337.27503 148.6875 337.125 C 150.65631 336.85102 152.30127 336.30957 153.625 335.5 C 154.94863 334.69037 156.06048 333.37904 157 331.59375 C 157.93943 329.80841 158.50279 327.46577 158.65625 324.5625 C 158.81081 321.63786 158.4337 319.03566 157.5625 316.78125 C 156.69121 314.52683 155.39508 312.8001 153.625 311.5625 C 151.85486 310.32488 149.48304 309.39682 146.53125 308.78125 L 145.28125 314.375 C 148.2274 315.0973 150.23887 316.13654 151.34375 317.46875 C 152.44835 318.80094 152.95573 320.82008 152.8125 323.53125 C 152.65904 326.43451 151.71712 328.58273 150.03125 330 C 148.78738 331.0476 146.71228 331.53797 143.8125 331.4375 C 143.54885 331.4284 142.94299 331.39885 141.96875 331.34375 C 141.13589 329.11204 140.50196 325.64627 140.0625 320.96875 C 139.84053 318.67266 139.55926 316.9567 139.25 315.8125 C 138.80395 314.25718 138.11947 312.85686 137.15625 311.59375 C 136.19296 310.33063 134.87904 309.28551 133.21875 308.46875 C 131.55844 307.65198 129.68122 307.1962 127.625 307.125 C 127.18673 307.10981 126.76411 307.10816 126.34375 307.125 z "
   transform="translate(0,-2.0838898e-5)"
   id="path4104" /><path
   style="font-size:40px;font-style:normal;font-weight:normal;line-height:125%;letter-spacing:0px;word-spacing:0px;fill:none;fill-opacity:1;stroke:#ff0000;font-family:Sans;stroke-opacity:1;stroke-width:0.03543307;stroke-miterlimit:4;stroke-dasharray:none"
   d="M 114.71875 345.1875 L 114.65625 350.53125 L 119.9375 350.5625 C 117.06315 352.12222 115.15908 354.10332 114.25 356.5 L 120.21875 356.5 C 121.07581 354.80314 122.68828 353.34256 125.0625 352.1875 C 127.31601 351.09068 130.96041 350.56175 136 350.59375 C 141.11873 350.62628 145.03204 351.58278 147.71875 353.4375 C 150.40529 355.29221 151.7119 357.47873 151.6875 360 C 151.66323 362.49985 150.34795 364.62884 147.71875 366.375 C 145.0895 368.12112 141.01936 368.9724 135.53125 368.9375 C 130.17503 368.90343 126.15542 367.94844 123.46875 366.09375 C 120.78202 364.23903 119.4755 362.05247 119.5 359.53125 C 119.5026 359.26239 119.53237 359.00903 119.5625 358.75 L 113.71875 358.75 C 113.66821 359.15627 113.62913 359.54272 113.625 359.96875 C 113.58587 364.007 115.50282 367.49675 119.40625 370.40625 C 123.30969 373.31568 128.89057 374.79795 136.09375 374.84375 C 139.12804 374.86297 141.95344 374.54175 144.625 373.875 C 147.29651 373.20818 149.60172 372.25767 151.5 371.0625 C 153.3982 369.86725 154.87713 368.36291 155.9375 366.5 C 156.9978 364.63703 157.5422 362.65639 157.5625 360.5625 C 157.59911 356.78061 155.71819 353.64725 151.96875 351.1875 L 172.6875 351.3125 L 172.75 345.5625 L 114.71875 345.1875 z "
   transform="translate(0,-2.0838898e-5)"
   id="path4106" /><path
   inkscape:connector-curvature="0"
   id="path4108"
   style="font-size:40px;font-style:normal;font-weight:normal;line-height:125%;letter-spacing:0px;word-spacing:0px;fill:none;fill-opacity:1;stroke:#ff0000;font-family:Sans;stroke-opacity:1;stroke-width:0.03543307;stroke-miterlimit:4;stroke-dasharray:none"
   d="m 133.5251,397.81852 0.99772,5.83197 c -2.88151,0.3959 -5.21955,1.13872 -7.01421,2.22834 -1.79465,1.08961 -3.1986,2.72485 -4.21187,4.90573 -1.01329,2.18085 -1.43677,4.60504 -1.27043,7.27256 0.14768,2.36872 0.71291,4.44225 1.69564,6.22062 0.98272,1.77831 2.25935,3.07932 3.82985,3.903 1.57048,0.82362 3.25169,1.19881 5.04368,1.12557 1.81831,-0.0744 3.37945,-0.56605 4.68338,-1.47516 1.30391,-0.90912 2.35585,-2.36416 3.15579,-4.36512 0.52758,-1.28387 1.29603,-4.10727 2.30537,-8.47018 1.00929,-4.36295 2.02663,-7.43185 3.05205,-9.20672 1.30964,-2.29996 3.00409,-4.04337 5.08332,-5.23018 2.07916,-1.18683 4.44957,-1.83466 7.11121,-1.94348 2.92508,-0.1196 5.70107,0.44081 8.32797,1.68125 2.62678,1.24044 4.67952,3.1248 6.1582,5.65307 1.47858,2.52825 2.31634,5.37154 2.51334,8.52988 0.21682,3.47839 -0.28366,6.5743 -1.50144,9.28772 -1.2179,2.71337 -3.12623,4.83992 -5.72498,6.37962 -2.59886,1.53966 -5.59468,2.43235 -8.98744,2.67808 l -0.92464,-5.93123 c 3.643,-0.46984 6.34247,-1.66605 8.09845,-3.58842 1.75589,-1.92245 2.52142,-4.68688 2.29659,-8.29331 -0.23424,-3.75585 -1.25474,-6.45796 -3.06154,-8.10632 -1.80692,-1.64838 -3.90936,-2.42355 -6.3074,-2.32548 -2.0819,0.0851 -3.75689,0.76334 -5.02498,2.03469 -1.26949,1.24997 -2.45183,4.42725 -3.54694,9.53182 -1.09522,5.10453 -2.11131,8.61731 -3.04829,10.53837 -1.38451,2.79505 -3.22862,4.89223 -5.53232,6.29152 -2.30377,1.39921 -5.01042,2.16241 -8.12,2.2896 -3.08327,0.12603 -6.03321,-0.47007 -8.84982,-1.7883 -2.81665,-1.31829 -5.06609,-3.28553 -6.74834,-5.9017 -1.68226,-2.61624 -2.62785,-5.59954 -2.83675,-8.9499 -0.26479,-4.24666 0.27756,-7.83636 1.62704,-10.76906 1.34947,-2.93274 3.50836,-5.27813 6.47664,-7.03615 2.96826,-1.75804 6.38664,-2.75895 10.25515,-3.0027 z" /><path
   inkscape:connector-curvature="0"
   id="path4110"
   style="font-size:40px;font-style:normal;font-weight:normal;line-height:125%;letter-spacing:0px;word-spacing:0px;fill:none;fill-opacity:1;stroke:#ff0000;font-family:Sans;stroke-opacity:1;stroke-width:0.03543307;stroke-miterlimit:4;stroke-dasharray:none"
   d="m 167.82643,440.49071 8.16598,-0.53716 0.57682,5.7502 -8.16598,0.53716 z m -49.66652,3.26712 41.89502,-2.7559 0.57682,5.7502 -41.89502,2.7559 z" /><path
   style="font-size:40px;font-style:normal;font-weight:normal;line-height:125%;letter-spacing:0px;word-spacing:0px;fill:none;fill-opacity:1;stroke:#ff0000;font-family:Sans;stroke-opacity:1;stroke-width:0.03543307;stroke-miterlimit:4;stroke-dasharray:none"
   d="M 143 454.15625 C 142.08814 454.18197 141.15471 454.22679 140.1875 454.3125 C 133.13175 454.93771 127.91867 456.87208 124.5625 460.125 C 121.20632 463.37791 119.85995 467.38838 120.5 472.125 C 120.53555 472.38811 120.5764 472.64797 120.625 472.90625 L 126.59375 472.90625 C 126.46698 472.48129 126.37405 472.04926 126.3125 471.59375 C 125.92503 468.72628 126.93691 466.22004 129.34375 464.09375 C 131.75059 461.96743 135.61792 460.69289 140.96875 460.21875 C 146.31956 459.74459 150.4391 460.31309 153.34375 461.96875 C 156.24835 463.62438 157.89373 465.88252 158.28125 468.75 C 158.66295 471.57496 157.65537 474.08182 155.25 476.21875 C 152.84455 478.35565 149.07342 479.63585 143.90625 480.09375 C 138.42424 480.5795 134.2121 479.99704 131.28125 478.34375 C 129.50583 477.3422 128.21606 476.12677 127.375 474.6875 L 121.0625 474.6875 C 121.68655 476.63019 122.72441 478.41854 124.15625 480.0625 C 126.19842 482.40714 128.83524 484.09179 132.09375 485.125 C 135.3522 486.15817 139.68542 486.44519 145.0625 485.96875 C 151.69854 485.38068 156.69748 483.44216 160.0625 480.15625 C 163.42745 476.87027 164.78478 472.90163 164.15625 468.25 C 163.59079 464.06564 161.55077 460.63567 158.0625 458 C 154.3916 455.24079 149.38303 453.9762 143 454.15625 z "
   transform="translate(0,-2.0838898e-5)"
   id="path4112" /><path
   inkscape:connector-curvature="0"
   id="path4114"
   style="font-size:40px;font-style:normal;font-weight:normal;line-height:125%;letter-spacing:0px;word-spacing:0px;fill:none;fill-opacity:1;stroke:#ff0000;font-family:Sans;stroke-opacity:1;stroke-width:0.03543307;stroke-miterlimit:4;stroke-dasharray:none"
   d="m 124.69137,494.60279 41.55717,-5.10732 0.96209,5.13345 -5.9088,0.72617 c 5.02848,1.91058 7.98022,5.20023 8.85523,9.86892 0.37995,2.02802 0.27942,3.94763 -0.30182,5.75884 -0.58136,1.81117 -1.52326,3.22905 -2.82575,4.25362 -1.30257,1.02453 -2.92651,1.82925 -4.87187,2.41414 -1.2648,0.37153 -3.52765,0.7577 -6.78855,1.15844 l -25.55256,3.14037 -1.06898,-5.70384 25.27865,-3.10671 c 2.86957,-0.35276 4.9737,-0.83815 6.31234,-1.45653 1.33858,-0.61839 2.32591,-1.54477 2.96196,-2.77916 0.636,-1.23442 0.81147,-2.61211 0.52646,-4.13313 -0.45531,-2.42942 -1.80048,-4.40908 -4.0354,-5.93898 -2.23502,-1.52993 -6.01341,-1.96787 -11.33519,-1.31382 l -22.69601,2.78931 z" /><path
   style="font-size:40px;font-style:normal;font-weight:normal;line-height:125%;letter-spacing:0px;word-spacing:0px;fill:none;fill-opacity:1;stroke:#ff0000;font-family:Sans;stroke-opacity:1;stroke-width:0.03543307;stroke-miterlimit:4;stroke-dasharray:none"
   d="m 49.624814,278.34891 -3.319675,-0.62989 3.528144,-18.59402 c 0.836372,0.13219 1.61042,0.41822 2.322148,0.8581 1.17665,0.71363 2.280106,1.70825 3.310369,2.98388 1.030253,1.27561 2.164408,3.05137 3.402471,5.32728 1.9272,3.53317 3.52123,5.97602 4.782095,7.32854 1.26084,1.35249 2.543687,2.15254 3.848546,2.40015 1.368787,0.2597 2.616162,-0.0105 3.742128,-0.81075 1.125925,-0.80024 1.838179,-1.9871 2.136765,-3.56057 0.31553,-1.66305 0.06906,-3.08814 -0.739402,-4.27528 -0.80851,-1.18716 -2.094227,-1.95462 -3.857156,-2.30238 l 1.038177,-3.48076 c 2.601922,0.74551 4.446394,2.04309 5.533423,3.89275 1.086978,1.84963 1.376822,4.11127 0.869534,6.78494 -0.512195,2.69921 -1.665925,4.69358 -3.461197,5.98308 -1.795315,1.28947 -3.799519,1.72425 -6.012616,1.30434 -1.125762,-0.21363 -2.188628,-0.65386 -3.188598,-1.32069 -0.999997,-0.66688 -1.999898,-1.64848 -2.999707,-2.94482 -0.999829,-1.29636 -2.313276,-3.38445 -3.940347,-6.26429 -1.346567,-2.40253 -2.274237,-3.95687 -2.783015,-4.66305 -0.508786,-0.70619 -1.040185,-1.31064 -1.594198,-1.81335 z"
   id="path4184"
   inkscape:connector-curvature="0" /><path
   style="font-size:40px;font-style:normal;font-weight:normal;line-height:125%;letter-spacing:0px;word-spacing:0px;fill:none;fill-opacity:1;stroke:#ff0000;font-family:Sans;stroke-opacity:1;stroke-width:0.03543307;stroke-miterlimit:4;stroke-dasharray:none"
   d="m 53.406044,282.25652 0.126033,3.5445 c -2.021928,0.20874 -3.517245,0.75336 -4.485971,1.63372 -0.968733,0.88036 -1.520569,2.01388 -1.655513,3.40056 -0.160169,1.64586 0.274794,3.09127 1.30489,4.33624 1.030091,1.24493 2.387512,1.94937 4.072266,2.11335 1.606983,0.15635 2.983179,-0.23955 4.128593,-1.18774 1.145391,-0.94822 1.796914,-2.2323 1.954572,-3.85223 0.06431,-0.66095 0.01479,-1.49651 -0.148537,-2.50665 l 3.033593,0.68768 c -0.04864,0.23075 -0.07988,0.4174 -0.09374,0.55997 -0.145049,1.49034 0.113208,2.86949 0.774773,4.13746 0.661534,1.26794 1.802284,1.98074 3.422254,2.1384 1.28298,0.12484 2.387915,-0.2059 3.314811,-0.9922 0.926848,-0.78633 1.457126,-1.86635 1.590833,-3.24005 0.132399,-1.36077 -0.184917,-2.53635 -0.951945,-3.52675 -0.767077,-0.99043 -1.993326,-1.69846 -3.678749,-2.12412 l 0.962575,-3.43856 c 2.304049,0.65594 4.027046,1.80479 5.168996,3.44655 1.141898,1.64175 1.60314,3.59012 1.383725,5.8451 -0.151367,1.55514 -0.624435,2.9547 -1.419205,4.19868 -0.794824,1.24396 -1.802659,2.1565 -3.023513,2.73761 -1.2209,0.58107 -2.479318,0.80856 -3.775258,0.68247 -1.231181,-0.11983 -2.320028,-0.5594 -3.266541,-1.31868 -0.946545,-0.75933 -1.654824,-1.81598 -2.124835,-3.16993 -0.552753,1.64689 -1.486865,2.87731 -2.80234,3.69124 -1.315497,0.81389 -2.893372,1.1313 -4.733628,0.95224 -2.48825,-0.24217 -4.509144,-1.35459 -6.062688,-3.33728 -1.553544,-1.98273 -2.195372,-4.36077 -1.925484,-7.1341 0.243405,-2.50122 1.190682,-4.50548 2.841836,-6.01279 1.651151,-1.50732 3.673881,-2.26222 6.068196,-2.26469 z"
   id="path4186"
   inkscape:connector-curvature="0" /><path
   style="font-size:40px;font-style:normal;font-weight:normal;line-height:125%;letter-spacing:0px;word-spacing:0px;fill:none;fill-opacity:1;stroke:#ff0000;font-family:Sans;stroke-opacity:1;stroke-width:0.03543307;stroke-miterlimit:4;stroke-dasharray:none"
   d="m 43.870835,305.65863 3.999334,0.19132 -0.191316,3.99933 -3.999334,-0.19132 z"
   id="path4188"
   inkscape:connector-curvature="0" /><path
   style="font-size:40px;font-style:normal;font-weight:normal;line-height:125%;letter-spacing:0px;word-spacing:0px;fill:none;fill-opacity:1;stroke:#ff0000;font-family:Sans;stroke-opacity:1;stroke-width:0.03543307;stroke-miterlimit:4;stroke-dasharray:none"
   d="M 57.53125 314.84375 C 52.153723 314.81325 48.268479 315.75053 45.875 317.625 C 43.886928 319.18926 42.85941 321.33337 42.84375 324.09375 C 42.831859 326.19005 43.412757 327.93241 44.53125 329.3125 C 45.649739 330.69254 47.221392 331.73569 49.28125 332.4375 C 51.341098 333.13929 54.046919 333.51215 57.40625 333.53125 C 60.244731 333.54735 62.511894 333.32643 64.1875 332.90625 C 65.863065 332.48605 67.267847 331.90482 68.4375 331.15625 C 69.607103 330.40764 70.53117 329.46781 71.15625 328.3125 C 71.781274 327.15716 72.08505 325.81767 72.09375 324.28125 C 72.093927 324.25005 72.093825 324.21854 72.09375 324.1875 L 69.1875 324.1875 C 69.187499 324.19807 69.18756 324.20816 69.1875 324.21875 C 69.178168 325.85934 68.399418 327.22103 66.84375 328.3125 C 65.288032 329.40393 62.150947 329.93295 57.4375 329.90625 C 52.750066 329.87965 49.618727 329.32784 48.0625 328.21875 C 46.506262 327.10963 45.7408 325.73953 45.75 324.125 C 45.759154 322.51042 46.531542 321.15391 48.09375 320.0625 C 49.65595 318.97107 52.799546 318.44205 57.5 318.46875 C 62.200427 318.49542 65.418332 319.12293 67.15625 320.34375 C 67.963768 320.91974 68.518331 321.60402 68.84375 322.40625 L 71.9375 322.40625 C 71.703041 321.13126 71.199036 320.00763 70.4375 319.0625 C 69.325493 317.68248 67.747294 316.64581 65.6875 315.9375 C 63.627663 315.22919 60.916594 314.86295 57.53125 314.84375 z "
   transform="translate(0,-2.0838898e-5)"
   id="path4190" /><path
   style="font-size:40px;font-style:normal;font-weight:normal;line-height:125%;letter-spacing:0px;word-spacing:0px;fill:none;fill-opacity:1;stroke:#ff0000;font-family:Sans;stroke-opacity:1;stroke-width:0.03543307;stroke-miterlimit:4;stroke-dasharray:none"
   d="m 50.923276,336.7178 0.625554,3.49113 c -1.972141,0.49236 -3.375522,1.24275 -4.210146,2.25115 -0.834633,1.00839 -1.220783,2.20851 -1.158451,3.60036 0.07397,1.65197 0.708791,3.02143 1.90445,4.10836 1.19565,1.08691 2.638983,1.59251 4.330004,1.5168 1.612955,-0.0722 2.919409,-0.65863 3.919366,-1.75914 0.999932,-1.10053 1.463497,-2.46377 1.390699,-4.08974 -0.02972,-0.66341 -0.19679,-1.48358 -0.501203,-2.46051 l 3.100323,0.25218 c -0.01555,0.2353 -0.02011,0.42449 -0.01368,0.56758 0.06697,1.49589 0.517494,2.82473 1.351571,3.9865 0.834039,1.16175 2.064054,1.70623 3.69005,1.63343 1.287748,-0.0577 2.334872,-0.54121 3.141376,-1.45058 0.806453,-0.90939 1.17882,-2.0535 1.1171,-3.43231 -0.06119,-1.36583 -0.541415,-2.48479 -1.440681,-3.35689 -0.899313,-0.8721 -2.213296,-1.39978 -3.941953,-1.58304 l 0.467098,-3.54006 c 2.373609,0.32381 4.241639,1.2177 5.604094,2.68166 1.3624,1.46394 2.094292,3.3276 2.195678,5.59096 0.06987,1.56092 -0.200712,3.01329 -0.811752,4.35708 -0.611097,1.34377 -1.479894,2.38954 -2.606396,3.13733 -1.126556,0.74773 -2.340209,1.15074 -3.640965,1.20901 -1.235762,0.0553 -2.375789,-0.22599 -3.420086,-0.84394 -1.044333,-0.61798 -1.894796,-1.56395 -2.551387,-2.83791 -0.314526,1.70846 -1.065426,3.05851 -2.252706,4.05014 -1.18731,0.99159 -2.70451,1.52875 -4.551607,1.61148 -2.497503,0.11182 -4.655296,-0.70392 -6.473383,-2.44722 -1.818093,-1.74335 -2.789466,-4.00684 -2.914123,-6.7905 -0.112424,-2.51051 0.542178,-4.6285 1.963804,-6.35398 1.421625,-1.72548 3.317408,-2.75859 5.687354,-3.09933 z"
   id="path4192"
   inkscape:connector-curvature="0" /><path
   style="font-size:40px;font-style:normal;font-weight:normal;line-height:125%;letter-spacing:0px;word-spacing:0px;fill:none;fill-opacity:1;stroke:#ff0000;font-family:Sans;stroke-opacity:1;stroke-width:0.03543307;stroke-miterlimit:4;stroke-dasharray:none"
   d="m 44.68279,361.2386 3.991326,-0.31715 0.317149,3.99133 -3.991325,0.31714 z"
   id="path4194"
   inkscape:connector-curvature="0" /><path
   style="font-size:40px;font-style:normal;font-weight:normal;line-height:125%;letter-spacing:0px;word-spacing:0px;fill:none;fill-opacity:1;stroke:#ff0000;font-family:Sans;stroke-opacity:1;stroke-width:0.03543307;stroke-miterlimit:4;stroke-dasharray:none"
   d="m 50.784619,388.32176 -3.35798,0.37548 -2.103117,-18.80857 c 0.838181,-0.12017 1.662171,-0.0745 2.471863,0.13632 1.334612,0.33554 2.682009,0.96117 4.042198,1.87689 1.360175,0.91572 2.966911,2.27881 4.820211,4.08929 2.882081,2.8091 5.124722,4.6743 6.727934,5.59562 1.603173,0.92129 3.064718,1.30814 4.384639,1.16057 1.38457,-0.15488 2.497082,-0.78039 3.33752,-1.87664 0.840387,-1.09629 1.171607,-2.44025 0.993661,-4.03188 -0.188128,-1.68223 -0.843276,-2.97158 -1.965445,-3.86805 -1.12222,-0.89648 -2.576912,-1.25135 -4.364082,-1.0646 l -0.03273,-3.63215 c 2.706087,-0.0537 4.850856,0.64332 6.434311,2.09091 1.583401,1.44759 2.526321,3.52364 2.828759,6.22814 0.305273,2.73037 -0.210089,4.97603 -1.546089,6.73697 -1.336057,1.76092 -3.123396,2.76655 -5.362023,3.01688 -1.138766,0.12727 -2.284129,0.0196 -3.436114,-0.32329 -1.152023,-0.34287 -2.396625,-0.98655 -3.733803,-1.93102 -1.337211,-0.94451 -3.207256,-2.55331 -5.610139,-4.8264 -1.994277,-1.89953 -3.33849,-3.11184 -4.03264,-3.63689 -0.694165,-0.52509 -1.379981,-0.94627 -2.057453,-1.26357 z"
   id="path4196"
   inkscape:connector-curvature="0" /><path
   style="font-size:40px;font-style:normal;font-weight:normal;line-height:125%;letter-spacing:0px;word-spacing:0px;fill:none;fill-opacity:1;stroke:#ff0000;font-family:Sans;stroke-opacity:1;stroke-width:0.03543307;stroke-miterlimit:4;stroke-dasharray:none"
   d="M 66.4375 389.90625 C 65.064509 389.9396 63.548297 390.05695 61.875 390.3125 C 56.55895 391.12389 52.88316 392.64907 50.8125 394.875 C 49.474893 396.31946 48.794399 398.02698 48.75 400 L 51.71875 400 C 51.873737 398.9144 52.425024 397.88316 53.40625 396.9375 C 54.778409 395.61506 57.790822 394.61573 62.4375 393.90625 C 67.084188 393.19702 70.342452 393.28494 72.25 394.21875 C 73.746892 394.96498 74.631371 396.1539 74.875 397.75 C 75.122514 399.37183 74.553204 400.83479 73.1875 402.15625 C 71.821746 403.4777 68.815773 404.50731 64.15625 405.21875 C 59.522403 405.926 56.335613 405.8519 54.625 405 C 53.082827 404.23197 52.162368 403.1541 51.8125 401.78125 L 48.84375 401.78125 C 49.163462 403.83885 49.998415 405.47413 51.3125 406.65625 C 52.633171 407.84427 54.355694 408.62917 56.5 409 C 58.644288 409.37079 61.366623 409.28845 64.6875 408.78125 C 67.493525 408.35294 69.692038 407.80221 71.28125 407.125 C 72.870414 406.44776 74.180649 405.64114 75.21875 404.71875 C 76.256798 403.79634 77.000913 402.70764 77.4375 401.46875 C 77.874028 400.22983 77.981801 398.8626 77.75 397.34375 C 77.435632 395.28426 76.62671 393.65777 75.3125 392.46875 C 73.998235 391.27974 72.270259 390.50226 70.125 390.125 C 69.052349 389.93638 67.810491 389.8729 66.4375 389.90625 z "
   transform="translate(0,-2.0838898e-5)"
   id="path4198" /><path
   style="font-size:40px;font-style:normal;font-weight:normal;line-height:125%;letter-spacing:0px;word-spacing:0px;fill:none;fill-opacity:1;stroke:#ff0000;font-family:Sans;stroke-opacity:1;stroke-width:0.03543307;stroke-miterlimit:4;stroke-dasharray:none"
   d="m 53.836572,427.46724 -0.659935,-3.45313 22.004112,-4.20525 c -0.951837,-0.67977 -1.953145,-1.61852 -3.003929,-2.81626 -1.050822,-1.19774 -1.877115,-2.29587 -2.47888,-3.29441 l 3.338026,-0.63794 c 1.277097,1.75766 2.699614,3.23565 4.267561,4.43399 1.567893,1.19833 3.016785,1.98194 4.346682,2.35085 l 0.425296,2.22535 z"
   id="path4200"
   inkscape:connector-curvature="0" /><path
   style="font-size:40px;font-style:normal;font-weight:normal;line-height:125%;letter-spacing:0px;word-spacing:0px;fill:none;fill-opacity:1;stroke:#ff0000;font-family:Sans;stroke-opacity:1;stroke-width:0.03543307;stroke-miterlimit:4;stroke-dasharray:none"
   d="M 75.78125 432.34375 C 73.706273 432.29206 71.322866 432.57321 68.625 433.1875 C 63.800555 434.286 60.534422 435.96876 58.84375 438.25 C 57.569361 439.96954 56.97548 441.85982 57.03125 443.90625 L 59.96875 443.90625 C 59.991898 443.35998 60.086398 442.80793 60.28125 442.25 C 60.640964 441.21994 61.316279 440.30969 62.28125 439.5625 C 63.246206 438.81529 64.319278 438.33137 65.5 438.0625 C 67.302804 437.65201 68.893379 437.86128 70.25 438.6875 C 71.60659 439.5137 72.459807 440.7011 72.8125 442.25 C 73.168049 443.81159 72.907967 445.21867 72.03125 446.5 C 71.154497 447.7813 69.74226 448.65434 67.8125 449.09375 C 65.80654 449.55049 64.092556 449.36884 62.6875 448.59375 C 61.282428 447.81862 60.423295 446.72857 60.09375 445.28125 C 60.075087 445.19928 60.077154 445.11349 60.0625 445.03125 L 57.125 445.03125 C 57.168234 445.33881 57.209632 445.65421 57.28125 445.96875 C 57.662831 447.64459 58.399514 449.04924 59.5 450.1875 C 60.600477 451.32574 62.011029 452.11839 63.6875 452.53125 C 65.363953 452.9441 67.060456 452.93016 68.8125 452.53125 C 71.47862 451.92417 73.46471 450.64529 74.78125 448.65625 C 76.09775 446.66719 76.520321 444.504 76 442.21875 C 75.702229 440.91107 75.099867 439.74215 74.21875 438.6875 C 73.337594 437.63284 72.163527 436.85154 70.71875 436.3125 C 73.517609 435.70192 75.753771 435.5344 77.40625 435.8125 C 79.058684 436.09059 80.404613 436.66257 81.4375 437.5625 C 82.234776 438.24896 82.751361 439.1269 83 440.21875 C 83.309287 441.57721 83.079027 442.8506 82.3125 444 C 81.830265 444.69737 80.963859 445.35762 79.6875 445.96875 L 80.71875 449.3125 C 82.826121 448.53886 84.337902 447.30828 85.25 445.625 C 86.162038 443.94169 86.375075 442.00888 85.875 439.8125 C 85.204307 436.86705 83.591416 434.75368 81.0625 433.5 C 79.610409 432.78234 77.856227 432.39544 75.78125 432.34375 z "
   transform="translate(0,-2.0838898e-5)"
   id="path4202" /></svg>