<?xml version="1.0" encoding="UTF-8" standalone="no"?>
<!-- Generator: Adobe Illustrator 19.0.0, SVG Export Plug-In . SVG Version: 6.00 Build 0)  -->

<svg
   xmlns:dc="http://purl.org/dc/elements/1.1/"
   xmlns:cc="http://creativecommons.org/ns#"
   xmlns:rdf="http://www.w3.org/1999/02/22-rdf-syntax-ns#"
   xmlns:svg="http://www.w3.org/2000/svg"
   xmlns="http://www.w3.org/2000/svg"
   xmlns:xlink="http://www.w3.org/1999/xlink"
   xmlns:sodipodi="http://sodipodi.sourceforge.net/DTD/sodipodi-0.dtd"
   xmlns:inkscape="http://www.inkscape.org/namespaces/inkscape"
   version="1.1"
   id="Abat-jour"
   x="0px"
   y="0px"
   viewBox="0 0 595.3 841.9"
   style="enable-background:new 0 0 595.3 841.9;"
   xml:space="preserve"
   inkscape:version="0.48.4 r9939"
   width="100%"
   height="100%"
   sodipodi:docname="abat.svg"><metadata
   id="metadata6090"><rdf:RDF><cc:Work
       rdf:about=""><dc:format>image/svg+xml</dc:format><dc:type
         rdf:resource="http://purl.org/dc/dcmitype/StillImage" /><dc:title></dc:title></cc:Work></rdf:RDF></metadata><defs
   id="defs6088"><linearGradient
     inkscape:collect="always"
     id="linearGradient6610"><stop
       style="stop-color:#000000;stop-opacity:1;"
       offset="0"
       id="stop6612" /><stop
       style="stop-color:#000000;stop-opacity:0;"
       offset="1"
       id="stop6614" /></linearGradient><radialGradient
     inkscape:collect="always"
     xlink:href="#linearGradient6610"
     id="radialGradient6620"
     cx="160.65492"
     cy="330.35223"
     fx="160.65492"
     fy="330.35223"
     r="152.90758"
     gradientTransform="matrix(1,0,0,1.9378391,0,-309.81725)"
     gradientUnits="userSpaceOnUse" /><radialGradient
     inkscape:collect="always"
     xlink:href="#linearGradient6610"
     id="radialGradient6622"
     cx="434.59506"
     cy="511.62766"
     fx="434.59506"
     fy="511.62766"
     r="152.95757"
     gradientTransform="matrix(1,0,0,1.9377281,0,-479.76763)"
     gradientUnits="userSpaceOnUse" /></defs><sodipodi:namedview
   pagecolor="#ffffff"
   bordercolor="#666666"
   borderopacity="1"
   objecttolerance="10"
   gridtolerance="10"
   guidetolerance="10"
   inkscape:pageopacity="0"
   inkscape:pageshadow="2"
   inkscape:window-width="1680"
   inkscape:window-height="987"
   id="namedview6086"
   showgrid="false"
   inkscape:zoom="1.1212733"
   inkscape:cx="84.465514"
   inkscape:cy="445.19883"
   inkscape:window-x="-8"
   inkscape:window-y="-8"
   inkscape:window-maximized="1"
   inkscape:current-layer="Abat-jour" />
<style
   type="text/css"
   id="style5977">
	.st0{fill:none;stroke:#FF0000;stroke-width:0.1;stroke-miterlimit:10;}
</style>

<g
   id="Basique"
   style="stroke:#ff0000;stroke-opacity:1;fill:none;stroke-width:0.03543307;stroke-miterlimit:4;stroke-dasharray:none">
	<path
   id="XMLID_197_"
   class="st0"
   d="M84.6,39.1c-1.3,3.8,0.7,8,4.6,9.3L57,37.4c-67.9,198.7-63.2,404.7-0.1,589.2l31.7-10.8   c2.5-1.3,3.7-4.3,2.8-7.1c-1.1-3.1-4.4-4.7-7.5-3.7l33.4-11.4c-3.1,1.1-4.7,4.4-3.7,7.5c1,2.8,3.8,4.4,6.6,3.9l52.9-18.1   c2.6-1.3,3.9-4.3,3-7.2c-1.1-3.1-4.4-4.7-7.5-3.7l33.4-11.4c-3.1,1.1-4.7,4.4-3.7,7.5c1,2.9,3.9,4.5,6.8,3.8l52.5-17.9   c2.8-1.2,4.2-4.4,3.2-7.3c-1.1-3.1-4.4-4.7-7.5-3.7l33.4-11.4c-3.1,1.1-4.7,4.4-3.7,7.5c1,3,4.2,4.6,7.3,3.7l23.2-7.9   c-44.3-129.6-47.9-274.6-0.8-414.3l-23.4-8c3.8,1.3,8-0.7,9.3-4.6c1.3-3.8-0.7-8-4.6-9.3l-30.6-10.5c-3.8-1.3-8,0.7-9.3,4.6   c-1.3,3.8,0.7,8,4.6,9.3l-54.1-18.5c3.8,1.3,8-0.7,9.3-4.6c1.3-3.8-0.7-8-4.6-9.3l-30.6-10.5c-3.8-1.3-8,0.7-9.3,4.6   c-1.3,3.8,0.7,8,4.6,9.3l-54.1-18.5c3.8,1.3,8-0.7,9.3-4.6c1.3-3.8-0.7-8-4.6-9.3L93.9,34.5C90.1,33.2,85.9,35.2,84.6,39.1z"
   style="stroke:#ff0000;stroke-opacity:1;fill:none;stroke-width:0.03543307;stroke-miterlimit:4;stroke-dasharray:none" />
	<line
   id="XMLID_196_"
   class="st0"
   x1="83.9"
   y1="605"
   x2="76.9"
   y2="607.4"
   style="stroke:#ff0000;stroke-opacity:1;fill:none;stroke-width:0.03543307;stroke-miterlimit:4;stroke-dasharray:none" />
	<line
   id="XMLID_195_"
   class="st0"
   x1="117.3"
   y1="593.6"
   x2="124.3"
   y2="591.2"
   style="stroke:#ff0000;stroke-opacity:1;fill:none;stroke-width:0.03543307;stroke-miterlimit:4;stroke-dasharray:none" />
	<line
   id="XMLID_194_"
   class="st0"
   x1="168.7"
   y1="576.1"
   x2="161.7"
   y2="578.5"
   style="stroke:#ff0000;stroke-opacity:1;fill:none;stroke-width:0.03543307;stroke-miterlimit:4;stroke-dasharray:none" />
	<line
   id="XMLID_193_"
   class="st0"
   x1="202.1"
   y1="564.7"
   x2="209.1"
   y2="562.3"
   style="stroke:#ff0000;stroke-opacity:1;fill:none;stroke-width:0.03543307;stroke-miterlimit:4;stroke-dasharray:none" />
	<line
   id="XMLID_192_"
   class="st0"
   x1="253.5"
   y1="547.1"
   x2="246.5"
   y2="549.5"
   style="stroke:#ff0000;stroke-opacity:1;fill:none;stroke-width:0.03543307;stroke-miterlimit:4;stroke-dasharray:none" />
	<line
   id="XMLID_191_"
   class="st0"
   x1="286.9"
   y1="535.7"
   x2="293.8"
   y2="533.3"
   style="stroke:#ff0000;stroke-opacity:1;fill:none;stroke-width:0.03543307;stroke-miterlimit:4;stroke-dasharray:none" />
</g>
<path
   style="fill:none;stroke:#ff0000;stroke-width:0.03543307;stroke-miterlimit:4;stroke-opacity:1;stroke-dasharray:none"
   d="m 200.87818,267.98898 2.26904,36.62223 -0.25212,0.07 -11.68134,-15.49851 -0.65129,19.39648 -32.69095,10.31678 32.03965,8.91631 0,0.28009 -16.89173,7.56253 16.40851,6.67556 -1.26058,37.71927 17.52201,-31.09039 0.23111,0.0934 1.26057,20.16673 10.77793,-15.2651 31.91359,13.00101 -21.2197,-28.12606 0.16808,-0.21007 17.66907,4.90164 -9.74845,-16.12872 20.98859,-29.68992 -30.632,13.72458 -0.14707,-0.25675 9.66442,-17.13239 -16.80768,5.29844 -18.92966,-31.34714 z"
   id="path6624"
   inkscape:connector-curvature="0" /><g
   transform="matrix(0.02843084,0.99959576,-0.99959576,0.02843084,0,0)"
   style="font-size:40px;font-style:normal;font-weight:normal;line-height:125%;letter-spacing:0px;word-spacing:0px;fill:none;fill-opacity:1;stroke:#ff0000;font-family:Sans;stroke-opacity:1;stroke-width:0.03543307;stroke-miterlimit:4;stroke-dasharray:none"
   id="text6626"><path
     d="m 246.91551,-29.581902 0,-28.632812 3.78906,0 0,25.253906 14.10157,0 0,3.378906 z"
     style="fill:none;stroke:#ff0000;stroke-opacity:1;stroke-width:0.03543307;stroke-miterlimit:4;stroke-dasharray:none"
     id="path6764" /><path
     d="m 268.9077,-54.171745 0,-4.042969 3.51562,0 0,4.042969 z m 0,24.589843 0,-20.742187 3.51562,0 0,20.742187 z"
     style="fill:none;stroke:#ff0000;stroke-opacity:1;stroke-width:0.03543307;stroke-miterlimit:4;stroke-dasharray:none"
     id="path6766" /><path
     style="fill:none;stroke:#ff0000;stroke-width:0.03543307;stroke-opacity:1;stroke-miterlimit:4;stroke-dasharray:none"
     d="M 47.90625 275.1875 C 45.029801 275.26931 42.605782 276.12964 40.59375 277.75 C 39.144086 278.91746 38.238101 280.41275 37.875 282.21875 L 41.125 282.21875 C 41.416074 281.63274 41.841787 281.08192 42.375 280.59375 C 43.593762 279.47791 45.560988 278.88987 48.28125 278.8125 C 50.780226 278.74142 52.668621 279.22403 53.96875 280.28125 C 54.668884 280.85058 55.164017 281.50306 55.5 282.21875 L 58.6875 282.21875 C 58.458438 281.06705 58.026844 280.04071 57.375 279.125 C 56.425205 277.79077 55.099094 276.79328 53.40625 276.125 C 51.713375 275.45671 49.884604 275.13123 47.90625 275.1875 z M 35.71875 276.25 C 33.478594 276.2616 31.850774 277.03927 30.78125 278.59375 C 29.711738 280.14822 29.210921 282.15204 29.28125 284.625 C 29.340489 286.70748 29.772287 288.472 30.59375 289.875 C 31.415226 291.27798 32.509199 292.28726 33.875 292.90625 C 35.240809 293.52521 37.522138 293.77929 40.75 293.6875 L 58.6875 293.1875 L 58.59375 289.9375 L 56.09375 290 C 57.436479 288.85801 58.279704 287.52926 58.65625 286 L 55.71875 286 C 55.434394 286.85579 54.914017 287.64267 54.15625 288.34375 C 52.899714 289.50623 51.006772 290.1153 48.46875 290.1875 C 45.813566 290.26301 43.867827 289.77668 42.59375 288.71875 C 41.67521 287.95601 41.061435 287.05169 40.78125 286 L 37.875 286 C 38.246401 287.6069 39.145442 288.98974 40.5625 290.125 C 38.272129 290.20316 36.752289 290.16184 36.03125 290 C 34.850967 289.72092 33.925954 289.14778 33.25 288.28125 C 32.574053 287.41469 32.23378 286.15818 32.1875 284.53125 C 32.144563 283.02144 32.436529 281.82805 33.0625 280.9375 C 33.525569 280.27302 34.262314 279.86065 35.3125 279.6875 L 35.71875 276.25 z "
     transform="matrix(0.02843084,-0.99959578,0.99959578,0.02843084,-2.0830474e-5,-5.9246737e-7)"
     id="path6768" /><path
     d="m 300.06004,-29.581902 0,-28.632812 3.51563,0 0,10.273437 c 1.64062,-1.901021 3.71093,-2.851541 6.21094,-2.851562 1.53644,2.1e-5 2.87107,0.302755 4.0039,0.908203 1.1328,0.605489 1.94334,1.442076 2.43164,2.509766 0.48826,1.067725 0.73241,2.617202 0.73242,4.648437 l 0,13.144531 -3.51562,0 0,-13.144531 c -2e-5,-1.757797 -0.38088,-3.037093 -1.14258,-3.83789 -0.76173,-0.800764 -1.8392,-1.201154 -3.23242,-1.201172 -1.04168,1.8e-5 -2.02149,0.2702 -2.93945,0.810547 -0.91798,0.540381 -1.57228,1.272802 -1.96289,2.197265 -0.39064,0.924494 -0.58595,2.200534 -0.58594,3.828125 l 0,11.347656 z"
     style="fill:none;stroke:#ff0000;stroke-opacity:1;stroke-width:0.03543307;stroke-miterlimit:4;stroke-dasharray:none"
     id="path6770" /><path
     d="m 330.00145,-32.726433 0.50781,3.105469 c -0.98959,0.208333 -1.87501,0.3125 -2.65625,0.3125 -1.27605,0 -2.26563,-0.201823 -2.96875,-0.605469 -0.70313,-0.403645 -1.19792,-0.934243 -1.48437,-1.591797 -0.28646,-0.657549 -0.42969,-2.041011 -0.42969,-4.15039 l 0,-11.933594 -2.57813,0 0,-2.734375 2.57813,0 0,-5.136719 3.49609,-2.109375 0,7.246094 3.53516,0 0,2.734375 -3.53516,0 0,12.128906 c 0,1.002609 0.0618,1.64714 0.18555,1.933594 0.12369,0.286462 0.32551,0.514326 0.60547,0.683594 0.27994,0.169274 0.68033,0.253909 1.20117,0.253906 0.39062,3e-6 0.90494,-0.04557 1.54297,-0.136719 z"
     style="fill:none;stroke:#ff0000;stroke-opacity:1;stroke-width:0.03543307;stroke-miterlimit:4;stroke-dasharray:none"
     id="path6772" /><path
     d="m 344.51317,-29.581902 0,-20.742187 3.14453,0 0,2.910156 c 0.65103,-1.015606 1.51692,-1.832662 2.59766,-2.451172 1.08072,-0.618468 2.31118,-0.927713 3.6914,-0.927734 1.53645,2.1e-5 2.79621,0.319031 3.7793,0.957031 0.98306,0.638041 1.67641,1.529967 2.08008,2.675781 1.6406,-2.421855 3.77602,-3.632791 6.40625,-3.632812 2.05726,2.1e-5 3.63929,0.569682 4.74609,1.708984 1.10674,1.139342 1.66013,2.893897 1.66016,5.263672 l 0,14.238281 -3.4961,0 0,-13.066406 c -2e-5,-1.406235 -0.11396,-2.418604 -0.34179,-3.037109 -0.22789,-0.618473 -0.64131,-1.116519 -1.24024,-1.494141 -0.59898,-0.377586 -1.30211,-0.566388 -2.10937,-0.566406 -1.45836,1.8e-5 -2.66929,0.485044 -3.63282,1.455078 -0.96356,0.970068 -1.44533,2.522801 -1.44531,4.658203 l 0,12.050781 -3.51562,0 0,-13.476562 c -2e-5,-1.562485 -0.28648,-2.734359 -0.85938,-3.515625 -0.57293,-0.781232 -1.51043,-1.171857 -2.8125,-1.171875 -0.98959,1.8e-5 -1.9043,0.260435 -2.74414,0.78125 -0.83985,0.52085 -1.44857,1.282568 -1.82617,2.285156 -0.37761,1.002618 -0.56641,2.44793 -0.56641,4.335938 l 0,10.761718 z"
     style="fill:none;stroke:#ff0000;stroke-opacity:1;stroke-width:0.03543307;stroke-miterlimit:4;stroke-dasharray:none"
     id="path6774" /><path
     style="fill:none;stroke:#ff0000;stroke-width:0.03543307;stroke-opacity:1;stroke-miterlimit:4;stroke-dasharray:none"
     d="M 50.46875 375.40625 C 47.09771 375.50213 44.504698 376.48276 42.6875 378.3125 C 40.870297 380.14224 40.007495 382.56112 40.09375 385.59375 C 40.162235 388.00162 40.815795 389.98445 42.03125 391.5 C 43.246702 393.01552 44.924669 394.01889 47.0625 394.53125 L 47.40625 390.875 C 45.907292 390.38355 44.796469 389.70433 44.09375 388.8125 C 43.391023 387.92065 43.005396 386.81978 42.96875 385.53125 C 42.919511 383.80017 43.509996 382.34906 44.6875 381.15625 C 45.864995 379.96343 47.56972 379.25743 49.84375 379.0625 L 49.96875 382.96875 L 52.84375 382.96875 L 52.75 379.1875 C 54.562481 379.25319 56.013411 379.8059 57.125 380.875 C 57.753884 381.47985 58.21222 382.18949 58.5 382.96875 L 61.5625 382.96875 C 61.170976 380.93728 60.193236 379.22853 58.65625 377.875 C 56.678842 376.13364 53.956909 375.30704 50.46875 375.40625 z M 50.0625 386.75 L 50.28125 394.53125 C 50.698094 394.5319 51.01049 394.53715 51.21875 394.53125 C 54.64183 394.43387 57.287701 393.46702 59.125 391.65625 C 60.510232 390.29097 61.328998 388.66186 61.625 386.75 L 58.625 386.75 C 58.337491 387.72986 57.802985 388.58172 56.96875 389.3125 C 56.117422 390.06616 54.802129 390.5442 53.0625 390.75 L 52.96875 386.75 L 50.0625 386.75 z "
     transform="matrix(0.02843084,-0.99959578,0.99959578,0.02843084,-2.0830474e-5,-5.9246737e-7)"
     id="path6776" /><path
     d="m 424.82567,-29.581902 0,-3.046875 c -1.6146,2.343751 -3.80861,3.515625 -6.58203,3.515625 -1.22397,0 -2.36655,-0.234375 -3.42774,-0.703125 -1.0612,-0.468749 -1.84896,-1.057941 -2.36328,-1.767578 -0.51432,-0.709632 -0.87565,-1.578772 -1.08398,-2.607422 -0.14323,-0.690098 -0.21485,-1.783847 -0.21485,-3.28125 l 0,-12.851562 3.51563,0 0,11.503906 c -10e-6,1.835945 0.0716,3.072923 0.21484,3.710938 0.22135,0.924483 0.6901,1.650394 1.40625,2.177734 0.71614,0.527347 1.60156,0.791018 2.65625,0.791016 1.05468,2e-6 2.04426,-0.27018 2.96875,-0.810547 0.92447,-0.540361 1.57876,-1.276037 1.96289,-2.207031 0.3841,-0.930984 0.57616,-2.281894 0.57617,-4.052735 l 0,-11.113281 3.51563,0 0,20.742187 z"
     style="fill:none;stroke:#ff0000;stroke-opacity:1;stroke-width:0.03543307;stroke-miterlimit:4;stroke-dasharray:none"
     id="path6778" /><path
     style="fill:none;stroke:#ff0000;stroke-width:0.03543307;stroke-opacity:1;stroke-miterlimit:4;stroke-dasharray:none"
     d="M 62.625 431.90625 L 33.9375 432.71875 L 34.0625 436.21875 L 44.15625 435.9375 C 43.418374 436.55768 42.811872 437.33656 42.34375 438.28125 C 42.142506 438.68736 41.983573 439.11449 41.875 439.5625 L 44.78125 439.5625 C 45.050588 438.67792 45.579652 437.86966 46.375 437.15625 C 47.619794 436.03968 49.5818 435.45088 52.25 435.375 C 54.918179 435.2991 56.94305 435.82541 58.375 436.9375 C 59.382737 437.72014 60.055381 438.58931 60.375 439.5625 L 63.15625 439.5625 C 63.009042 438.85886 62.798103 438.21205 62.46875 437.65625 C 61.914576 436.7211 61.106963 435.88116 60.03125 435.15625 L 62.71875 435.09375 L 62.625 431.90625 z M 42 443.34375 C 42.244177 444.25233 42.594443 445.15329 43.15625 446 C 44.102107 447.42548 45.436059 448.50563 47.15625 449.21875 C 48.876432 449.93183 50.815953 450.24782 52.9375 450.1875 C 54.915853 450.13121 56.70387 449.737 58.34375 449 C 59.983596 448.26296 61.25239 447.19202 62.125 445.8125 C 62.605607 445.05265 62.924377 444.22208 63.125 443.34375 L 59.96875 443.34375 C 59.667238 443.85711 59.265234 444.33001 58.75 444.78125 C 57.466322 445.90542 55.485897 446.51858 52.84375 446.59375 C 50.071425 446.67258 48.008976 446.169 46.65625 445.09375 C 45.993145 444.56666 45.504977 443.98777 45.15625 443.34375 L 42 443.34375 z "
     transform="matrix(0.02843084,-0.99959578,0.99959578,0.02843084,-2.0830474e-5,-5.9246737e-7)"
     id="path6780" /><path
     d="m 468.73192,-36.691277 -1.07422,-15.175781 0,-6.347656 4.35547,0 0,6.347656 -1.01563,15.175781 z m -0.91797,7.109375 0,-4.003906 4.04297,0 0,4.003906 z"
     style="fill:none;stroke:#ff0000;stroke-opacity:1;stroke-width:0.03543307;stroke-miterlimit:4;stroke-dasharray:none"
     id="path6782" /></g><path
   sodipodi:type="star"
   style="fill:none;stroke:#ff0000;stroke-width:0.05746428;stroke-miterlimit:4;stroke-opacity:1;stroke-dasharray:none"
   id="path6632"
   sodipodi:sides="5"
   sodipodi:cx="181.04417"
   sodipodi:cy="393.30286"
   sodipodi:r1="71.447723"
   sodipodi:r2="12.485773"
   sodipodi:arg1="1.1462349"
   sodipodi:arg2="2.4481779"
   inkscape:flatsided="false"
   inkscape:rounded="0"
   inkscape:randomized="0"
   d="m 210.47501,458.40741 -39.03324,-57.12406 -43.22108,40.1283 42.26628,-54.77512 -51.52034,-28.70536 65.15524,23.27118 11.37976,-57.8692 -1.99813,69.1575 58.55341,-7.05976 -66.39014,19.47051 z"
   transform="matrix(0.58157938,0,0,0.65375131,-20.034884,271.3444)"
   inkscape:transform-center-x="-2.5982617"
   inkscape:transform-center-y="-1.5903006" /><path
   sodipodi:type="star"
   style="fill:none;stroke:#ff0000;stroke-width:0.02806008;stroke-miterlimit:4;stroke-opacity:1;stroke-dasharray:none"
   id="path6634"
   sodipodi:sides="5"
   sodipodi:cx="192.63814"
   sodipodi:cy="361.1965"
   sodipodi:r1="15.600885"
   sodipodi:r2="2.7263165"
   sodipodi:arg1="-2.1112158"
   sodipodi:arg2="-1.4828973"
   inkscape:flatsided="false"
   inkscape:rounded="0"
   inkscape:randomized="0"
   d="m 184.61155,347.81885 8.26592,10.66186 10.00322,-9.05187 -7.58572,11.15606 11.7,6.71644 -12.95415,-3.76704 -2.77222,13.20286 -0.42039,-13.48421 -13.41332,1.44337 12.69433,-4.56666 z"
   transform="matrix(1.2298086,0,0,1.2965889,-137.81618,-111.90687)"
   inkscape:transform-center-x="0.52047712"
   inkscape:transform-center-y="1.4022598" /><path
   sodipodi:type="star"
   style="fill:none;stroke:#ff0000;stroke-width:0.03543307;stroke-miterlimit:4;stroke-opacity:1;stroke-dasharray:none"
   id="path6636"
   sodipodi:sides="5"
   sodipodi:cx="163.20731"
   sodipodi:cy="431.65212"
   sodipodi:r1="11.421166"
   sodipodi:r2="1.995894"
   sodipodi:arg1="-2.4668517"
   sodipodi:arg2="-1.8385332"
   inkscape:flatsided="false"
   inkscape:rounded="0"
   inkscape:randomized="0"
   d="m 154.28887,424.51738 8.39042,5.20997 4.55762,-8.76191 -2.36219,9.58973 9.74145,1.62697 -9.85033,0.71682 1.46293,9.76742 -3.72565,-9.14671 -8.83731,4.40964 7.54775,-6.3698 z"
   transform="translate(0,-2.0838898e-5)"
   inkscape:transform-center-x="-0.93368063"
   inkscape:transform-center-y="0.16377252" /><path
   inkscape:transform-center-y="1.0814961"
   inkscape:transform-center-x="0.4232143"
   transform="translate(58.861654,140.91121)"
   d="m 184.61155,347.81885 8.26592,10.66186 10.00322,-9.05187 -7.58572,11.15606 11.7,6.71644 -12.95415,-3.76704 -2.77222,13.20286 -0.42039,-13.48421 -13.41332,1.44337 12.69433,-4.56666 z"
   inkscape:randomized="0"
   inkscape:rounded="0"
   inkscape:flatsided="false"
   sodipodi:arg2="-1.4828973"
   sodipodi:arg1="-2.1112158"
   sodipodi:r2="2.7263165"
   sodipodi:r1="15.600885"
   sodipodi:cy="361.1965"
   sodipodi:cx="192.63814"
   sodipodi:sides="5"
   id="path6640"
   style="fill:none;stroke:#ff0000;stroke-width:0.03543307;stroke-miterlimit:4;stroke-opacity:1;stroke-dasharray:none"
   sodipodi:type="star" /><path
   sodipodi:type="star"
   style="fill:none;stroke:#ff0000;stroke-width:0.02543253;stroke-miterlimit:4;stroke-opacity:1;stroke-dasharray:none"
   id="path6642"
   sodipodi:sides="5"
   sodipodi:cx="192.63814"
   sodipodi:cy="361.1965"
   sodipodi:r1="15.600885"
   sodipodi:r2="2.7263165"
   sodipodi:arg1="-2.1112158"
   sodipodi:arg2="-1.4828973"
   inkscape:flatsided="false"
   inkscape:rounded="0"
   inkscape:randomized="0"
   d="m 184.61155,347.81885 8.26592,10.66186 10.00322,-9.05187 -7.58572,11.15606 11.7,6.71644 -12.95415,-3.76704 -2.77222,13.20286 -0.42039,-13.48421 -13.41332,1.44337 12.69433,-4.56666 z"
   transform="matrix(1.4352648,0,0,1.3524043,-31.491563,-38.484019)"
   inkscape:transform-center-x="0.6074254"
   inkscape:transform-center-y="1.4626257" /><path
   inkscape:transform-center-y="1.0814961"
   inkscape:transform-center-x="0.4232143"
   transform="translate(-4.459216,143.58674)"
   d="m 184.61155,347.81885 8.26592,10.66186 10.00322,-9.05187 -7.58572,11.15606 11.7,6.71644 -12.95415,-3.76704 -2.77222,13.20286 -0.42039,-13.48421 -13.41332,1.44337 12.69433,-4.56666 z"
   inkscape:randomized="0"
   inkscape:rounded="0"
   inkscape:flatsided="false"
   sodipodi:arg2="-1.4828973"
   sodipodi:arg1="-2.1112158"
   sodipodi:r2="2.7263165"
   sodipodi:r1="15.600885"
   sodipodi:cy="361.1965"
   sodipodi:cx="192.63814"
   sodipodi:sides="5"
   id="path6644"
   style="fill:none;stroke:#ff0000;stroke-width:0.03543307;stroke-miterlimit:4;stroke-opacity:1;stroke-dasharray:none"
   sodipodi:type="star" /><path
   sodipodi:type="star"
   style="fill:none;stroke:#ff0000;stroke-width:0.03543307;stroke-miterlimit:4;stroke-opacity:1;stroke-dasharray:none"
   id="path6646"
   sodipodi:sides="5"
   sodipodi:cx="192.63814"
   sodipodi:cy="361.1965"
   sodipodi:r1="15.600885"
   sodipodi:r2="2.7263165"
   sodipodi:arg1="-2.1112158"
   sodipodi:arg2="-1.4828973"
   inkscape:flatsided="false"
   inkscape:rounded="0"
   inkscape:randomized="0"
   d="m 184.61155,347.81885 8.26592,10.66186 10.00322,-9.05187 -7.58572,11.15606 11.7,6.71644 -12.95415,-3.76704 -2.77222,13.20286 -0.42039,-13.48421 -13.41332,1.44337 12.69433,-4.56666 z"
   transform="translate(-79.374048,68.671908)"
   inkscape:transform-center-x="0.4232143"
   inkscape:transform-center-y="1.0814961" /><path
   inkscape:transform-center-y="2.3262016"
   inkscape:transform-center-x="0.91247496"
   transform="matrix(2.1560922,0,0,2.150909,-318.53724,-664.43554)"
   d="m 184.61155,347.81885 8.26592,10.66186 10.00322,-9.05187 -7.58572,11.15606 11.7,6.71644 -12.95415,-3.76704 -2.77222,13.20286 -0.42039,-13.48421 -13.41332,1.44337 12.69433,-4.56666 z"
   inkscape:randomized="0"
   inkscape:rounded="0"
   inkscape:flatsided="false"
   sodipodi:arg2="-1.4828973"
   sodipodi:arg1="-2.1112158"
   sodipodi:r2="2.7263165"
   sodipodi:r1="15.600885"
   sodipodi:cy="361.1965"
   sodipodi:cx="192.63814"
   sodipodi:sides="5"
   id="path6650"
   style="fill:none;stroke:#ff0000;stroke-width:0.01645372;stroke-miterlimit:4;stroke-opacity:1;stroke-dasharray:none"
   sodipodi:type="star" /><path
   inkscape:transform-center-y="1.0509877"
   inkscape:transform-center-x="0.38599201"
   transform="matrix(0.91206323,0,0,0.97179181,-40.643832,-130.43579)"
   d="m 184.61155,347.81885 8.26592,10.66186 10.00322,-9.05187 -7.58572,11.15606 11.7,6.71644 -12.95415,-3.76704 -2.77222,13.20286 -0.42039,-13.48421 -13.41332,1.44337 12.69433,-4.56666 z"
   inkscape:randomized="0"
   inkscape:rounded="0"
   inkscape:flatsided="false"
   sodipodi:arg2="-1.4828973"
   sodipodi:arg1="-2.1112158"
   sodipodi:r2="2.7263165"
   sodipodi:r1="15.600885"
   sodipodi:cy="361.1965"
   sodipodi:cx="192.63814"
   sodipodi:sides="5"
   id="path6650-5"
   style="fill:none;stroke:#ff0000;stroke-width:0.03763654;stroke-miterlimit:4;stroke-opacity:1;stroke-dasharray:none"
   sodipodi:type="star" /><path
   inkscape:transform-center-y="0.91912167"
   inkscape:transform-center-x="0.41212057"
   transform="matrix(0.97379985,0,0,0.84985799,70.563833,-113.90898)"
   d="m 184.61155,347.81885 8.26592,10.66186 10.00322,-9.05187 -7.58572,11.15606 11.7,6.71644 -12.95415,-3.76704 -2.77222,13.20286 -0.42039,-13.48421 -13.41332,1.44337 12.69433,-4.56666 z"
   inkscape:randomized="0"
   inkscape:rounded="0"
   inkscape:flatsided="false"
   sodipodi:arg2="-1.4828973"
   sodipodi:arg1="-2.1112158"
   sodipodi:r2="2.7263165"
   sodipodi:r1="15.600885"
   sodipodi:cy="361.1965"
   sodipodi:cx="192.63814"
   sodipodi:sides="5"
   id="path6650-2"
   style="fill:none;stroke:#ff0000;stroke-width:0.0389494;stroke-miterlimit:4;stroke-opacity:1;stroke-dasharray:none"
   sodipodi:type="star" /><path
   inkscape:transform-center-y="1.0162457"
   inkscape:transform-center-x="0.42376996"
   transform="matrix(1.0013192,0,0,0.93966827,-51.111341,-194.15888)"
   d="m 184.61155,347.81885 8.26592,10.66186 10.00322,-9.05187 -7.58572,11.15606 11.7,6.71644 -12.95415,-3.76704 -2.77222,13.20286 -0.42039,-13.48421 -13.41332,1.44337 12.69433,-4.56666 z"
   inkscape:randomized="0"
   inkscape:rounded="0"
   inkscape:flatsided="false"
   sodipodi:arg2="-1.4828973"
   sodipodi:arg1="-2.1112158"
   sodipodi:r2="2.7263165"
   sodipodi:r1="15.600885"
   sodipodi:cy="361.1965"
   sodipodi:cx="192.63814"
   sodipodi:sides="5"
   id="path6650-3"
   style="fill:none;stroke:#ff0000;stroke-width:0.03652879;stroke-miterlimit:4;stroke-opacity:1;stroke-dasharray:none"
   sodipodi:type="star" /><path
   inkscape:transform-center-y="1.176588"
   inkscape:transform-center-x="0.47238749"
   transform="matrix(1.1161974,0,0,1.087936,-0.06150551,6.7482113)"
   d="m 184.61155,347.81885 8.26592,10.66186 10.00322,-9.05187 -7.58572,11.15606 11.7,6.71644 -12.95415,-3.76704 -2.77222,13.20286 -0.42039,-13.48421 -13.41332,1.44337 12.69433,-4.56666 z"
   inkscape:randomized="0"
   inkscape:rounded="0"
   inkscape:flatsided="false"
   sodipodi:arg2="-1.4828973"
   sodipodi:arg1="-2.1112158"
   sodipodi:r2="2.7263165"
   sodipodi:r1="15.600885"
   sodipodi:cy="361.1965"
   sodipodi:cx="192.63814"
   sodipodi:sides="5"
   id="path6650-1"
   style="fill:none;stroke:#ff0000;stroke-width:0.03215412;stroke-miterlimit:4;stroke-opacity:1;stroke-dasharray:none"
   sodipodi:type="star" /><path
   inkscape:transform-center-y="1.4300058"
   inkscape:transform-center-x="0.60771238"
   transform="matrix(1.4359375,0,0,1.3222518,-136.88109,-1.440718)"
   d="m 184.61155,347.81885 8.26592,10.66186 10.00322,-9.05187 -7.58572,11.15606 11.7,6.71644 -12.95415,-3.76704 -2.77222,13.20286 -0.42039,-13.48421 -13.41332,1.44337 12.69433,-4.56666 z"
   inkscape:randomized="0"
   inkscape:rounded="0"
   inkscape:flatsided="false"
   sodipodi:arg2="-1.4828973"
   sodipodi:arg1="-2.1112158"
   sodipodi:r2="2.7263165"
   sodipodi:r1="15.600885"
   sodipodi:cy="361.1965"
   sodipodi:cx="192.63814"
   sodipodi:sides="5"
   id="path6650-6"
   style="fill:none;stroke:#ff0000;stroke-width:0.02571485;stroke-miterlimit:4;stroke-opacity:1;stroke-dasharray:none"
   sodipodi:type="star" /><path
   inkscape:transform-center-y="1.2703692"
   inkscape:transform-center-x="0.54658366"
   transform="matrix(1.2915162,0,0,1.1746254,-181.80637,-218.63332)"
   d="m 184.61155,347.81885 8.26592,10.66186 10.00322,-9.05187 -7.58572,11.15606 11.7,6.71644 -12.95415,-3.76704 -2.77222,13.20286 -0.42039,-13.48421 -13.41332,1.44337 12.69433,-4.56666 z"
   inkscape:randomized="0"
   inkscape:rounded="0"
   inkscape:flatsided="false"
   sodipodi:arg2="-1.4828973"
   sodipodi:arg1="-2.1112158"
   sodipodi:r2="2.7263165"
   sodipodi:r1="15.600885"
   sodipodi:cy="361.1965"
   sodipodi:cx="192.63814"
   sodipodi:sides="5"
   id="path6650-8"
   style="fill:none;stroke:#ff0000;stroke-width:0.02876797;stroke-miterlimit:4;stroke-opacity:1;stroke-dasharray:none"
   sodipodi:type="star" /><path
   inkscape:transform-center-y="1.327245"
   inkscape:transform-center-x="0.70881453"
   transform="matrix(1.6748499,0,0,1.2272253,-107.88878,-317.95503)"
   d="m 184.61155,347.81885 8.26592,10.66186 10.00322,-9.05187 -7.58572,11.15606 11.7,6.71644 -12.95415,-3.76704 -2.77222,13.20286 -0.42039,-13.48421 -13.41332,1.44337 12.69433,-4.56666 z"
   inkscape:randomized="0"
   inkscape:rounded="0"
   inkscape:flatsided="false"
   sodipodi:arg2="-1.4828973"
   sodipodi:arg1="-2.1112158"
   sodipodi:r2="2.7263165"
   sodipodi:r1="15.600885"
   sodipodi:cy="361.1965"
   sodipodi:cx="192.63814"
   sodipodi:sides="5"
   id="path6650-82"
   style="fill:none;stroke:#ff0000;stroke-width:0.02471489;stroke-miterlimit:4;stroke-opacity:1;stroke-dasharray:none"
   sodipodi:type="star" /><path
   inkscape:transform-center-y="0.91912167"
   inkscape:transform-center-x="0.41212057"
   transform="matrix(0.97379985,0,0,0.84985799,33.106413,-79.57301)"
   d="m 184.61155,347.81885 8.26592,10.66186 10.00322,-9.05187 -7.58572,11.15606 11.7,6.71644 -12.95415,-3.76704 -2.77222,13.20286 -0.42039,-13.48421 -13.41332,1.44337 12.69433,-4.56666 z"
   inkscape:randomized="0"
   inkscape:rounded="0"
   inkscape:flatsided="false"
   sodipodi:arg2="-1.4828973"
   sodipodi:arg1="-2.1112158"
   sodipodi:r2="2.7263165"
   sodipodi:r1="15.600885"
   sodipodi:cy="361.1965"
   sodipodi:cx="192.63814"
   sodipodi:sides="5"
   id="path6650-2-7"
   style="fill:none;stroke:#ff0000;stroke-width:0.0389494;stroke-miterlimit:4;stroke-opacity:1;stroke-dasharray:none"
   sodipodi:type="star" /><path
   inkscape:transform-center-y="0.91912167"
   inkscape:transform-center-x="0.41212057"
   transform="matrix(0.97379985,0,0,0.84985799,-75.698463,-125.94886)"
   d="m 184.61155,347.81885 8.26592,10.66186 10.00322,-9.05187 -7.58572,11.15606 11.7,6.71644 -12.95415,-3.76704 -2.77222,13.20286 -0.42039,-13.48421 -13.41332,1.44337 12.69433,-4.56666 z"
   inkscape:randomized="0"
   inkscape:rounded="0"
   inkscape:flatsided="false"
   sodipodi:arg2="-1.4828973"
   sodipodi:arg1="-2.1112158"
   sodipodi:r2="2.7263165"
   sodipodi:r1="15.600885"
   sodipodi:cy="361.1965"
   sodipodi:cx="192.63814"
   sodipodi:sides="5"
   id="path6650-2-71"
   style="fill:none;stroke:#ff0000;stroke-width:0.0389494;stroke-miterlimit:4;stroke-opacity:1;stroke-dasharray:none"
   sodipodi:type="star" /><path
   inkscape:transform-center-y="0.91912167"
   inkscape:transform-center-x="0.41212057"
   transform="matrix(0.97379985,0,0,0.84985799,-73.022933,-43.899281)"
   d="m 184.61155,347.81885 8.26592,10.66186 10.00322,-9.05187 -7.58572,11.15606 11.7,6.71644 -12.95415,-3.76704 -2.77222,13.20286 -0.42039,-13.48421 -13.41332,1.44337 12.69433,-4.56666 z"
   inkscape:randomized="0"
   inkscape:rounded="0"
   inkscape:flatsided="false"
   sodipodi:arg2="-1.4828973"
   sodipodi:arg1="-2.1112158"
   sodipodi:r2="2.7263165"
   sodipodi:r1="15.600885"
   sodipodi:cy="361.1965"
   sodipodi:cx="192.63814"
   sodipodi:sides="5"
   id="path6650-2-2"
   style="fill:none;stroke:#ff0000;stroke-width:0.0389494;stroke-miterlimit:4;stroke-opacity:1;stroke-dasharray:none"
   sodipodi:type="star" /><path
   inkscape:transform-center-y="1.0814961"
   inkscape:transform-center-x="0.4232143"
   transform="translate(-41.49342,171.93608)"
   d="m 184.61155,347.81885 8.26592,10.66186 10.00322,-9.05187 -7.58572,11.15606 11.7,6.71644 -12.95415,-3.76704 -2.77222,13.20286 -0.42039,-13.48421 -13.41332,1.44337 12.69433,-4.56666 z"
   inkscape:randomized="0"
   inkscape:rounded="0"
   inkscape:flatsided="false"
   sodipodi:arg2="-1.4828973"
   sodipodi:arg1="-2.1112158"
   sodipodi:r2="2.7263165"
   sodipodi:r1="15.600885"
   sodipodi:cy="361.1965"
   sodipodi:cx="192.63814"
   sodipodi:sides="5"
   id="path6644-6"
   style="fill:none;stroke:#ff0000;stroke-width:0.03543307;stroke-miterlimit:4;stroke-opacity:1;stroke-dasharray:none"
   sodipodi:type="star" /><path
   inkscape:transform-center-y="1.1738951"
   inkscape:transform-center-x="0.52242522"
   transform="matrix(1.2344358,0,0,1.0854381,-113.7567,-73.950499)"
   d="m 184.61155,347.81885 8.26592,10.66186 10.00322,-9.05187 -7.58572,11.15606 11.7,6.71644 -12.95415,-3.76704 -2.77222,13.20286 -0.42039,-13.48421 -13.41332,1.44337 12.69433,-4.56666 z"
   inkscape:randomized="0"
   inkscape:rounded="0"
   inkscape:flatsided="false"
   sodipodi:arg2="-1.4828973"
   sodipodi:arg1="-2.1112158"
   sodipodi:r2="2.7263165"
   sodipodi:r1="15.600885"
   sodipodi:cy="361.1965"
   sodipodi:cx="192.63814"
   sodipodi:sides="5"
   id="path6650-2-2-0"
   style="fill:none;stroke:#ff0000;stroke-width:0.03061061;stroke-miterlimit:4;stroke-opacity:1;stroke-dasharray:none"
   sodipodi:type="star" /><path
   inkscape:transform-center-y="0.91912167"
   inkscape:transform-center-x="0.41212057"
   transform="matrix(0.97379985,0,0,0.84985799,-23.079712,-42.115595)"
   d="m 184.61155,347.81885 8.26592,10.66186 10.00322,-9.05187 -7.58572,11.15606 11.7,6.71644 -12.95415,-3.76704 -2.77222,13.20286 -0.42039,-13.48421 -13.41332,1.44337 12.69433,-4.56666 z"
   inkscape:randomized="0"
   inkscape:rounded="0"
   inkscape:flatsided="false"
   sodipodi:arg2="-1.4828973"
   sodipodi:arg1="-2.1112158"
   sodipodi:r2="2.7263165"
   sodipodi:r1="15.600885"
   sodipodi:cy="361.1965"
   sodipodi:cx="192.63814"
   sodipodi:sides="5"
   id="path6650-2-2-4"
   style="fill:none;stroke:#ff0000;stroke-width:0.0389494;stroke-miterlimit:4;stroke-opacity:1;stroke-dasharray:none"
   sodipodi:type="star" /><path
   inkscape:transform-center-y="0.91912167"
   inkscape:transform-center-x="0.41212057"
   transform="matrix(0.97379985,0,0,0.84985799,-32.889987,65.797438)"
   d="m 184.61155,347.81885 8.26592,10.66186 10.00322,-9.05187 -7.58572,11.15606 11.7,6.71644 -12.95415,-3.76704 -2.77222,13.20286 -0.42039,-13.48421 -13.41332,1.44337 12.69433,-4.56666 z"
   inkscape:randomized="0"
   inkscape:rounded="0"
   inkscape:flatsided="false"
   sodipodi:arg2="-1.4828973"
   sodipodi:arg1="-2.1112158"
   sodipodi:r2="2.7263165"
   sodipodi:r1="15.600885"
   sodipodi:cy="361.1965"
   sodipodi:cx="192.63814"
   sodipodi:sides="5"
   id="path6650-2-2-9"
   style="fill:none;stroke:#ff0000;stroke-width:0.0389494;stroke-miterlimit:4;stroke-opacity:1;stroke-dasharray:none"
   sodipodi:type="star" /><path
   inkscape:transform-center-y="0.91912167"
   inkscape:transform-center-x="0.41212057"
   transform="matrix(0.97379985,0,0,0.84985799,63.429083,-41.223751)"
   d="m 184.61155,347.81885 8.26592,10.66186 10.00322,-9.05187 -7.58572,11.15606 11.7,6.71644 -12.95415,-3.76704 -2.77222,13.20286 -0.42039,-13.48421 -13.41332,1.44337 12.69433,-4.56666 z"
   inkscape:randomized="0"
   inkscape:rounded="0"
   inkscape:flatsided="false"
   sodipodi:arg2="-1.4828973"
   sodipodi:arg1="-2.1112158"
   sodipodi:r2="2.7263165"
   sodipodi:r1="15.600885"
   sodipodi:cy="361.1965"
   sodipodi:cx="192.63814"
   sodipodi:sides="5"
   id="path6650-2-2-46"
   style="fill:none;stroke:#ff0000;stroke-width:0.0389494;stroke-miterlimit:4;stroke-opacity:1;stroke-dasharray:none"
   sodipodi:type="star" /><path
   inkscape:transform-center-y="0.91912167"
   inkscape:transform-center-x="0.41212057"
   transform="matrix(0.97379985,0,0,0.84985799,80.374104,-153.596)"
   d="m 184.61155,347.81885 8.26592,10.66186 10.00322,-9.05187 -7.58572,11.15606 11.7,6.71644 -12.95415,-3.76704 -2.77222,13.20286 -0.42039,-13.48421 -13.41332,1.44337 12.69433,-4.56666 z"
   inkscape:randomized="0"
   inkscape:rounded="0"
   inkscape:flatsided="false"
   sodipodi:arg2="-1.4828973"
   sodipodi:arg1="-2.1112158"
   sodipodi:r2="2.7263165"
   sodipodi:r1="15.600885"
   sodipodi:cy="361.1965"
   sodipodi:cx="192.63814"
   sodipodi:sides="5"
   id="path6650-2-2-03"
   style="fill:none;stroke:#ff0000;stroke-width:0.0389494;stroke-miterlimit:4;stroke-opacity:1;stroke-dasharray:none"
   sodipodi:type="star" /><path
   inkscape:transform-center-y="0.91912167"
   inkscape:transform-center-x="0.41212057"
   transform="matrix(0.97379985,0,0,0.84985799,-9.7020627,-125.05702)"
   d="m 184.61155,347.81885 8.26592,10.66186 10.00322,-9.05187 -7.58572,11.15606 11.7,6.71644 -12.95415,-3.76704 -2.77222,13.20286 -0.42039,-13.48421 -13.41332,1.44337 12.69433,-4.56666 z"
   inkscape:randomized="0"
   inkscape:rounded="0"
   inkscape:flatsided="false"
   sodipodi:arg2="-1.4828973"
   sodipodi:arg1="-2.1112158"
   sodipodi:r2="2.7263165"
   sodipodi:r1="15.600885"
   sodipodi:cy="361.1965"
   sodipodi:cx="192.63814"
   sodipodi:sides="5"
   id="path6650-2-2-6"
   style="fill:none;stroke:#ff0000;stroke-width:0.0389494;stroke-miterlimit:4;stroke-opacity:1;stroke-dasharray:none"
   sodipodi:type="star" /><path
   inkscape:transform-center-y="0.91912167"
   inkscape:transform-center-x="0.41212057"
   transform="matrix(0.97379985,0,0,0.84985799,34.8901,-133.97545)"
   d="m 184.61155,347.81885 8.26592,10.66186 10.00322,-9.05187 -7.58572,11.15606 11.7,6.71644 -12.95415,-3.76704 -2.77222,13.20286 -0.42039,-13.48421 -13.41332,1.44337 12.69433,-4.56666 z"
   inkscape:randomized="0"
   inkscape:rounded="0"
   inkscape:flatsided="false"
   sodipodi:arg2="-1.4828973"
   sodipodi:arg1="-2.1112158"
   sodipodi:r2="2.7263165"
   sodipodi:r1="15.600885"
   sodipodi:cy="361.1965"
   sodipodi:cx="192.63814"
   sodipodi:sides="5"
   id="path6650-2-7-2"
   style="fill:none;stroke:#ff0000;stroke-width:0.0389494;stroke-miterlimit:4;stroke-opacity:1;stroke-dasharray:none"
   sodipodi:type="star" /><path
   inkscape:transform-center-y="0.91912167"
   inkscape:transform-center-x="0.41212057"
   transform="matrix(0.97379985,0,0,0.84985799,10.810331,157.65729)"
   d="m 184.61155,347.81885 8.26592,10.66186 10.00322,-9.05187 -7.58572,11.15606 11.7,6.71644 -12.95415,-3.76704 -2.77222,13.20286 -0.42039,-13.48421 -13.41332,1.44337 12.69433,-4.56666 z"
   inkscape:randomized="0"
   inkscape:rounded="0"
   inkscape:flatsided="false"
   sodipodi:arg2="-1.4828973"
   sodipodi:arg1="-2.1112158"
   sodipodi:r2="2.7263165"
   sodipodi:r1="15.600885"
   sodipodi:cy="361.1965"
   sodipodi:cx="192.63814"
   sodipodi:sides="5"
   id="path6650-2-7-2-4"
   style="fill:none;stroke:#ff0000;stroke-width:0.0389494;stroke-miterlimit:4;stroke-opacity:1;stroke-dasharray:none"
   sodipodi:type="star" /></svg>